<svg width="330" height="500" viewBox="0 0 330 500" fill="none" xmlns="http://www.w3.org/2000/svg">
<path d="M330 60C330 26.8629 303.137 0 270 0H60C26.8629 0 0 26.8629 0 60L0 440C0 473.137 26.8629 500 60 500H270C303.137 500 330 473.137 330 440L330 60Z" fill="white"/>
<path d="M244.846 454.727H85.1511C54.6086 454.727 29.8781 429.708 29.8781 398.896L29.8781 101.102C29.8781 70.2513 54.6476 45.271 85.1511 45.271H244.846C275.389 45.271 300.119 70.2907 300.119 101.102L300.119 398.896C300.119 429.747 275.389 454.727 244.846 454.727Z" fill="#D34D4B"/>
<path d="M225.316 86.6818C224.614 86.5242 223.873 86.406 223.171 86.5242C222.118 86.7212 221.221 87.4305 220.597 88.3367C220.168 89.0065 219.855 89.7157 219.582 90.4643C220.636 91.6858 221.884 92.9072 223.483 92.9072C224.887 92.9072 226.097 91.9222 226.799 90.7007C227.501 89.4793 227.735 88.0609 227.969 86.6818C227.15 87.0758 226.253 86.8788 225.316 86.6818ZM211.898 99.6448C211.703 99.4872 211.547 99.3296 211.352 99.172C211.196 99.0144 211.04 98.8962 210.923 98.7386C210.611 98.4234 210.338 98.0688 210.065 97.7141C209.87 97.4777 209.714 97.2413 209.558 96.9655C209.324 96.5715 209.089 96.1775 208.894 95.7441C208.699 95.3107 208.504 94.8379 208.348 94.365C207.685 92.3162 207.529 90.0703 208.075 87.9821C208.66 85.5786 210.026 83.3327 210.065 80.8899C210.143 76.2011 205.501 71.6306 207.568 67.4541C211.157 69.3059 212.795 73.8371 216.423 75.6495C219.114 77.0286 222.157 76.5951 225.043 75.4525C227.111 71.7094 229.412 68.1239 231.987 64.696C232.416 64.105 233.196 63.4746 233.742 63.9474C233.586 67.6511 234.093 71.3942 235.224 74.9403C236.004 75.9253 236.746 76.9104 237.526 77.856C246.341 89.1247 255.196 100.433 264.909 110.953C268.731 115.09 272.944 119.7 273.139 125.374C273.178 127.186 272.32 129.235 273.724 130.338C274.387 130.85 277.118 130.417 277.82 130.85C279.224 131.717 279.341 134.081 279.614 135.697C280.238 139.676 279.77 143.813 280.121 147.832C280.511 152.166 280.707 156.658 279.341 160.756C278.015 164.735 274.972 168.36 270.955 169.306C270.604 179.196 269.472 189.243 265.728 198.423C264.714 200.866 263.504 203.27 261.71 205.2C259.877 207.17 257.497 208.549 255.118 209.85C250.476 212.45 245.054 214.972 240.061 213.081C236.433 211.702 234.015 208.313 231.831 205.082C231.168 204.097 230.504 203.073 230.309 201.93C230.153 200.748 230.621 199.408 231.675 198.975C233.391 198.266 235.029 200.118 236.121 201.654C237.799 203.979 239.983 206.185 242.792 206.816C246.029 207.564 249.423 206.028 252.075 204.058C256.951 200.393 260.501 195.074 262.451 189.243C264.363 183.451 264.753 177.186 264.051 171.118C263.855 171.394 263.426 171.512 263.036 171.591C257.887 172.34 252.621 172.419 247.472 171.709C246.614 171.591 245.678 171.434 244.937 170.961C243.689 170.173 243.143 168.676 242.519 167.336C240.295 162.608 236.316 159.022 232.845 155.122C229.373 151.221 226.253 146.493 226.409 141.252C226.565 136.012 231.48 130.772 236.472 132.151C236.355 122.025 236.043 111.268 230.66 102.718C230.153 101.93 229.568 101.103 228.749 100.669C226.838 99.6448 224.575 100.945 222.547 101.615C219.036 102.876 214.824 102.048 211.898 99.6448ZM213.185 89.8339C212.756 89.2429 212.288 88.7307 211.781 88.1791C211.508 87.9033 211.235 87.6275 210.884 87.4305C210.767 87.3911 210.65 87.3517 210.533 87.3123C209.675 87.1546 208.972 87.7851 208.465 88.5731C208.231 90.0309 208.894 91.6464 210.104 92.4738C211.352 93.3406 213.146 93.38 214.433 92.5526C214.55 92.4738 214.668 92.395 214.707 92.2374C214.746 92.1192 214.668 91.9616 214.589 91.8434C214.16 91.213 213.692 90.5037 213.185 89.8339Z" fill="black"/>
<path d="M228.006 86.7621C227.772 88.1411 227.538 89.5596 226.836 90.781C226.134 92.0024 224.886 92.9875 223.52 92.9875C221.921 92.9875 220.673 91.766 219.62 90.5446C219.893 89.796 220.205 89.0474 220.634 88.4169C221.258 87.5107 222.116 86.7621 223.208 86.6045C222.701 87.6683 222.935 89.1262 223.169 90.2688C223.208 90.4264 223.247 90.584 223.364 90.6628C223.52 90.781 223.715 90.781 223.91 90.7022C224.574 90.4658 225.042 89.8354 225.237 89.1262C225.393 88.4957 225.432 87.4713 225.393 86.7621C226.251 86.8803 227.148 87.0773 228.006 86.7621Z" fill="#D5BF4B"/>
<path d="M225.317 86.6838C225.356 87.3931 225.356 88.4175 225.161 89.0479C224.966 89.7571 224.498 90.3875 223.834 90.624C223.639 90.6634 223.444 90.7028 223.288 90.5845C223.171 90.5057 223.132 90.3481 223.093 90.1905C222.859 89.0479 222.625 87.5901 223.132 86.5262C223.873 86.408 224.615 86.5656 225.317 86.6838Z" fill="black"/>
<path d="M214.592 91.9619C214.67 92.0801 214.709 92.1983 214.709 92.3559C214.67 92.4741 214.553 92.5923 214.436 92.6711C213.148 93.4985 211.354 93.4591 210.106 92.5923C208.897 91.7255 208.234 90.1494 208.468 88.6916C208.975 87.9036 209.677 87.2338 210.535 87.4308C210.652 87.4702 210.769 87.5096 210.886 87.549L210.847 87.6278C210.457 88.337 210.106 89.0856 210.067 89.913C210.067 90.7405 210.457 91.6073 211.198 91.9225C211.861 92.1983 212.875 90.8193 213.187 89.9524C213.695 90.5041 214.163 91.2133 214.592 91.9619Z" fill="#D5BF4B"/>
<path d="M211.783 88.2208C212.29 88.733 212.758 89.2846 213.187 89.8756C212.875 90.7819 211.861 92.1215 211.198 91.8457C210.457 91.5305 210.067 90.6637 210.067 89.8362C210.067 89.0088 210.418 88.2602 210.847 87.551L210.886 87.4722C211.237 87.6298 211.549 87.945 211.783 88.2208Z" fill="black"/>
<path d="M211.389 99.1741C211.545 99.3317 211.74 99.4893 211.936 99.6469C209.712 101.184 207.372 102.484 204.875 103.508C204.719 103.587 204.524 103.626 204.446 103.469C204.368 103.351 204.446 103.232 204.485 103.114C205.421 101.459 207.255 100.514 208.971 99.6863C209.634 99.3711 210.297 99.0559 210.999 98.7407C211.077 98.8983 211.233 99.0559 211.389 99.1741Z" fill="black"/>
<path d="M209.598 97.0054C209.754 97.2418 209.91 97.5176 210.105 97.754C207.53 98.739 204.332 100.197 201.757 100.512C201.367 100.551 200.899 100.591 200.548 100.394C200.509 100.197 200.743 100.039 200.938 99.9605C203.59 98.739 206.75 97.7146 209.598 97.0054Z" fill="black"/>
<path d="M208.388 94.4062C208.544 94.879 208.739 95.3124 208.934 95.7852C206.321 96.1004 203.239 96.2974 200.665 96.1004C200.392 96.1004 200.079 96.061 199.884 95.864C200.899 94.9972 202.303 94.8002 203.629 94.682C205.189 94.5244 206.789 94.4062 208.388 94.4062Z" fill="black"/>
<path fill-rule="evenodd" clip-rule="evenodd" d="M232.945 64.138C232.662 64.292 232.38 64.5733 232.176 64.8543L232.175 64.8569C229.606 68.277 227.309 71.8547 225.246 75.5901C225.246 75.5902 225.246 75.5901 225.246 75.5901L224.661 76.6538L224.32 76.4624L224.905 75.3986C226.977 71.6483 229.283 68.0552 231.863 64.62C232.088 64.3103 232.41 63.9816 232.76 63.7911C233.113 63.5996 233.541 63.5277 233.901 63.8396L233.973 63.9019L233.969 63.9975C233.814 67.6774 234.318 71.3969 235.442 74.9207C235.868 76.2127 236.372 77.4653 236.954 78.6788L236.602 78.8504C236.014 77.6213 235.503 76.3526 235.072 75.0444L235.071 75.0425C233.944 71.508 233.432 67.779 233.575 64.0861C233.402 63.9818 233.192 64.004 232.945 64.138Z" fill="black"/>
<path fill-rule="evenodd" clip-rule="evenodd" d="M233.034 72.387L233.034 72.3869L233.341 72.144C234.043 73.0506 234.744 73.9551 235.444 74.82L235.446 74.8217L235.446 74.8217C235.728 75.1783 236.004 75.5333 236.278 75.8857C236.766 76.512 237.246 77.13 237.745 77.7343L237.748 77.7382L237.748 77.7383C246.564 89.008 255.414 100.31 265.121 110.823C267.03 112.89 269.05 115.088 270.616 117.483C272.183 119.88 273.304 122.486 273.403 125.371L273.403 125.374C273.413 125.842 273.366 126.321 273.313 126.786C273.304 126.857 273.296 126.928 273.288 126.998C273.242 127.391 273.198 127.77 273.184 128.134C273.151 128.989 273.287 129.694 273.912 130.186C273.966 130.228 274.054 130.269 274.182 130.304C274.308 130.338 274.46 130.363 274.635 130.382C274.985 130.419 275.401 130.426 275.829 130.431C275.866 130.432 275.903 130.432 275.939 130.433C276.328 130.437 276.721 130.441 277.061 130.468C277.248 130.482 277.424 130.504 277.579 130.537C277.732 130.569 277.876 130.616 277.991 130.687C278.759 131.161 279.157 132.032 279.399 132.946C279.57 133.59 279.67 134.288 279.762 134.919C279.8 135.183 279.837 135.436 279.876 135.668L279.876 135.67C280.191 137.677 280.23 139.719 280.235 141.754C280.235 142.045 280.235 142.337 280.235 142.628C280.235 144.372 280.235 146.106 280.385 147.819C280.775 152.154 280.975 156.683 279.595 160.823L279.41 160.76L279.595 160.823C278.255 164.844 275.173 168.535 271.07 169.502C271.069 169.502 271.069 169.502 271.068 169.502L271.061 169.504C270.912 169.542 270.736 169.586 270.556 169.586V169.192C270.684 169.192 270.816 169.16 270.977 169.119L270.98 169.119C274.911 168.193 277.913 164.635 279.226 160.697C280.577 156.643 280.386 152.188 279.996 147.855L279.996 147.854C279.845 146.122 279.845 144.368 279.845 142.625C279.845 142.334 279.845 142.044 279.844 141.755C279.84 139.722 279.8 137.706 279.491 135.733C279.449 135.483 279.411 135.219 279.372 134.949C279.282 134.327 279.187 133.669 279.022 133.048C278.787 132.16 278.424 131.416 277.788 131.023C277.727 130.986 277.632 130.951 277.498 130.922C277.367 130.894 277.209 130.874 277.031 130.86C276.704 130.835 276.324 130.831 275.932 130.827C275.897 130.826 275.861 130.826 275.825 130.825C275.399 130.82 274.965 130.813 274.594 130.774C274.408 130.754 274.233 130.726 274.08 130.684C273.929 130.643 273.786 130.585 273.675 130.499L273.674 130.498C272.896 129.887 272.759 129.016 272.794 128.119C272.809 127.738 272.855 127.341 272.901 126.949C272.909 126.879 272.917 126.81 272.925 126.741C272.978 126.277 273.023 125.822 273.013 125.384C272.917 122.596 271.834 120.061 270.291 117.7C268.746 115.337 266.748 113.162 264.835 111.092L264.835 111.092C255.117 100.565 246.258 89.2516 237.443 77.9846C236.942 77.3772 236.456 76.7513 235.966 76.1221C235.693 75.7711 235.419 75.419 235.142 75.0687C234.438 74.2002 233.735 73.2926 233.034 72.387Z" fill="black"/>
<path fill-rule="evenodd" clip-rule="evenodd" d="M207.472 67.2295L207.647 67.3199C209.477 68.264 210.815 69.876 212.122 71.4509L212.135 71.4665C213.457 73.0584 214.749 74.6106 216.502 75.5152C219.122 76.8576 222.139 76.4826 224.96 75.3115L224.962 75.3105C226.427 74.7266 227.818 73.9074 229.099 73.0446L229.316 73.3724C228.023 74.243 226.606 75.0784 225.107 75.6765C222.233 76.8691 219.087 77.2818 216.325 75.8665L216.324 75.8662C214.495 74.9221 213.157 73.3101 211.849 71.7352L211.836 71.7196C210.56 70.1819 209.311 68.6812 207.647 67.7654C206.778 69.7137 207.366 71.7634 208.227 73.9483C208.369 74.308 208.519 74.6722 208.669 75.0394C208.986 75.8093 209.307 76.5925 209.575 77.3768C209.972 78.5397 210.26 79.7287 210.25 80.9328L210.25 80.9342C210.23 82.2097 209.869 83.4074 209.448 84.5742C209.341 84.873 209.229 85.169 209.118 85.4638C208.793 86.3291 208.471 87.1842 208.255 88.0702M207.472 67.2295L207.384 67.4072L207.472 67.2295ZM207.384 67.4072C206.308 69.5813 206.978 71.8455 207.865 74.094L207.384 67.4072ZM207.865 74.094C208.011 74.4651 208.163 74.8351 208.315 75.2051L207.865 74.094ZM208.315 75.2051C208.629 75.9686 208.942 76.7322 209.206 77.5053L208.315 75.2051ZM209.206 77.5053C209.597 78.6483 209.869 79.7887 209.86 80.9287L209.206 77.5053ZM209.86 80.9287C209.841 82.1353 209.499 83.2817 209.082 84.4393C208.978 84.7265 208.87 85.0152 208.76 85.3057C208.432 86.1771 208.098 87.0646 207.876 87.9763C207.36 90.1023 207.479 92.3858 208.153 94.4675L208.154 94.4686C208.276 94.841 208.424 95.1915 208.573 95.5463C208.617 95.6507 208.661 95.7554 208.705 95.8611L208.706 95.864L208.707 95.8668C208.907 96.3104 209.146 96.7125 209.378 97.1037L209.383 97.1121L209.386 97.116C209.425 97.1754 209.466 97.2403 209.509 97.3083C209.625 97.4923 209.755 97.6989 209.903 97.8789L209.905 97.881C210.175 98.2324 210.455 98.5952 210.775 98.9191L211.204 99.3525C211.368 99.5178 211.57 99.681 211.761 99.8356L211.765 99.8389C211.765 99.839 211.766 99.8392 211.766 99.8393C214.742 102.284 218.984 103.125 222.675 101.922C223.093 101.787 223.518 101.627 223.941 101.468C224.046 101.429 224.151 101.39 224.255 101.351C224.784 101.154 225.307 100.967 225.824 100.832C226.857 100.562 227.834 100.504 228.728 100.964C229.497 101.372 230.059 102.119 230.563 102.942L230.564 102.944C235.906 111.368 236.224 121.957 236.343 132.017C233.849 131.434 231.406 132.43 229.561 134.196C227.655 136.021 226.362 138.689 226.282 141.366C226.124 146.688 229.33 151.467 232.767 155.372L232.768 155.373C233.538 156.238 234.332 157.087 235.125 157.935C235.228 158.045 235.332 158.156 235.435 158.266C236.331 159.225 237.221 160.184 238.071 161.168C239.772 163.137 241.31 165.199 242.41 167.54C242.488 167.706 242.565 167.876 242.642 168.048C242.873 168.559 243.112 169.088 243.394 169.575C243.773 170.23 244.241 170.831 244.902 171.248C245.683 171.746 246.619 171.907 247.516 172.025C252.681 172.697 257.963 172.657 263.128 171.907C263.332 171.886 263.556 171.844 263.758 171.761C263.962 171.677 264.158 171.547 264.284 171.343L264.289 171.335L264.423 171.064L264.428 171.034C264.46 170.841 264.385 170.681 264.273 170.57C264.165 170.464 264.022 170.4 263.886 170.375C263.755 170.35 263.596 170.356 263.469 170.436C263.401 170.479 263.343 170.543 263.313 170.629C263.282 170.714 263.284 170.805 263.305 170.892L263.684 170.797C263.68 170.783 263.68 170.773 263.68 170.768C263.697 170.76 263.743 170.749 263.815 170.762C263.889 170.776 263.958 170.811 264 170.852C264.031 170.883 264.045 170.913 264.045 170.946L263.949 171.141C263.88 171.249 263.765 171.333 263.612 171.396C263.455 171.46 263.27 171.497 263.085 171.515L263.081 171.516L263.077 171.516C257.945 172.262 252.697 172.302 247.566 171.634C246.668 171.516 245.81 171.361 245.109 170.914L245.109 170.914C244.522 170.543 244.093 170.001 243.73 169.376C243.46 168.908 243.233 168.406 243.004 167.899C242.925 167.724 242.845 167.547 242.763 167.372L242.763 167.371C241.64 164.984 240.077 162.89 238.365 160.909C237.509 159.918 236.614 158.954 235.718 157.996C235.615 157.885 235.512 157.774 235.408 157.664C234.615 156.816 233.824 155.971 233.058 155.11C229.631 151.215 226.518 146.537 226.672 141.378C226.748 138.815 227.991 136.243 229.829 134.482C231.667 132.722 234.076 131.794 236.489 132.461L236.739 132.53L236.736 132.268C236.619 122.153 236.35 111.338 230.894 102.733C230.384 101.902 229.776 101.074 228.908 100.615L228.906 100.614C227.888 100.089 226.798 100.17 225.726 100.451C225.189 100.591 224.65 100.784 224.12 100.981C224.013 101.021 223.907 101.061 223.801 101.101C223.379 101.259 222.965 101.415 222.556 101.547C218.992 102.709 214.886 101.895 212.011 99.5332L212.01 99.5322C211.813 99.3728 211.627 99.2223 211.48 99.0739L211.051 98.6405C210.749 98.3354 210.483 97.9907 210.209 97.6344L210.207 97.6318L210.205 97.6293C210.073 97.4693 209.963 97.2953 209.851 97.1178C209.806 97.046 209.76 96.9737 209.713 96.9014C209.479 96.5083 209.252 96.1257 209.064 95.7066C209.018 95.5961 208.973 95.4886 208.928 95.3831C208.78 95.0314 208.641 94.7004 208.524 94.3446C207.872 92.3288 207.757 90.1205 208.255 88.0702" fill="black"/>
<path fill-rule="evenodd" clip-rule="evenodd" d="M270.124 170.413H270.513V170.845H270.124V170.413Z" fill="black"/>
<path fill-rule="evenodd" clip-rule="evenodd" d="M265.531 198.429C269.262 189.281 270.392 179.262 270.743 169.341L271.133 169.355C270.782 179.292 269.649 189.367 265.891 198.58L265.891 198.581C264.874 201.03 263.654 203.46 261.836 205.417C259.978 207.412 257.573 208.804 255.195 210.104C252.871 211.405 250.339 212.695 247.757 213.421C245.172 214.147 242.523 214.311 239.976 213.346C236.282 211.942 233.832 208.497 231.653 205.275C230.993 204.294 230.304 203.236 230.1 202.045L230.1 202.041L230.099 202.037C229.937 200.808 230.416 199.355 231.584 198.874C232.532 198.482 233.444 198.809 234.231 199.395C235.017 199.98 235.714 200.848 236.263 201.62C237.932 203.934 240.081 206.09 242.817 206.705L242.818 206.705C245.972 207.434 249.305 205.94 251.943 203.981C256.782 200.343 260.31 195.06 262.25 189.262C264.15 183.502 264.54 177.267 263.84 171.223L263.839 171.211V171.121H264.229V171.188C264.932 177.275 264.54 183.566 262.62 189.387L262.619 189.387C260.658 195.252 257.087 200.606 252.175 204.297L252.174 204.298C249.507 206.279 246.053 207.857 242.732 207.089C239.852 206.442 237.632 204.186 235.947 201.852L235.946 201.85C235.403 201.086 234.735 200.26 234 199.712C233.266 199.166 232.5 198.921 231.732 199.239C230.795 199.624 230.337 200.848 230.486 201.982C230.673 203.074 231.31 204.064 231.975 205.053C234.165 208.291 236.552 211.624 240.113 212.978C242.559 213.904 245.117 213.753 247.652 213.041C250.189 212.328 252.688 211.057 255.007 209.759L255.008 209.758C257.389 208.457 259.742 207.091 261.551 205.147C263.321 203.242 264.52 200.865 265.531 198.429Z" fill="black"/>
<path fill-rule="evenodd" clip-rule="evenodd" d="M225.298 86.8747C224.6 86.718 223.89 86.6075 223.227 86.7191L223.223 86.7199L223.223 86.7198C222.205 86.8666 221.389 87.5666 220.781 88.4493C220.388 89.0276 220.093 89.7141 219.831 90.4196C220.88 91.6298 222.064 92.7501 223.546 92.7501C224.819 92.7501 226.012 91.8258 226.693 90.6418C227.321 89.549 227.566 88.2895 227.785 87.013C226.954 87.2362 226.083 87.047 225.299 86.8749L225.298 86.8747ZM219.386 90.5207C219.356 90.6157 219.322 90.7122 219.286 90.8123L219.285 90.8153C219.237 90.9512 219.187 91.0941 219.146 91.2382L219.521 91.3464C219.558 91.2157 219.604 91.0839 219.654 90.9449L219.655 90.9419C219.665 90.9116 219.676 90.8809 219.687 90.8499C220.702 91.998 221.949 93.1442 223.546 93.1442C225.004 93.1442 226.307 92.0984 227.03 90.8396C227.741 89.6032 227.983 88.1757 228.212 86.8246C228.216 86.8014 228.22 86.7782 228.224 86.7551L228.284 86.4049L227.958 86.5394C227.165 86.867 226.291 86.6894 225.382 86.49C224.677 86.3317 223.906 86.2059 223.165 86.3301C221.999 86.4992 221.1 87.2958 220.461 88.2247L220.461 88.2247L220.46 88.2256C220.061 88.8121 219.763 89.4928 219.507 90.1714L219.274 90.4072L219.386 90.5207Z" fill="black"/>
<path fill-rule="evenodd" clip-rule="evenodd" d="M222.669 88.3361C222.644 87.68 222.713 87.0131 222.986 86.4404L223.337 86.6114C223.103 87.1025 223.035 87.6964 223.059 88.3209C223.083 88.9426 223.197 89.578 223.313 90.1463C223.333 90.2267 223.349 90.2882 223.37 90.3391C223.391 90.3888 223.411 90.41 223.426 90.4203L223.43 90.4233L223.435 90.4266C223.519 90.4903 223.636 90.5034 223.791 90.4407L223.795 90.4392L223.799 90.4378C224.385 90.229 224.818 89.6627 225.001 88.9973C225.15 88.3941 225.19 87.3938 225.151 86.6944L225.151 86.689V86.4867L225.541 86.4865V86.678C225.58 87.3959 225.542 88.4391 225.379 89.0953L225.378 89.1003C225.172 89.851 224.67 90.5434 223.932 90.8081C223.7 90.901 223.431 90.9134 223.205 90.7449C223.106 90.6766 223.049 90.5812 223.012 90.4944C222.976 90.4107 222.953 90.3188 222.935 90.2446L222.933 90.2341L222.932 90.2301C222.814 89.6568 222.694 88.9934 222.669 88.3361Z" fill="black"/>
<path fill-rule="evenodd" clip-rule="evenodd" d="M208.29 88.5025C208.288 88.5048 208.287 88.507 208.285 88.5093L208.283 88.5123C208.082 88.8375 207.92 89.1644 207.798 89.4932L208.163 89.6315C208.179 89.5889 208.196 89.5463 208.213 89.5037C208.281 90.771 208.935 92.0122 209.974 92.7569L209.977 92.7585C211.289 93.6699 213.168 93.7113 214.522 92.8412L214.525 92.8389C214.656 92.7506 214.816 92.6016 214.875 92.4221L214.885 92.3918V92.3598C214.885 92.1636 214.835 92.0084 214.737 91.8599C214.307 91.1479 213.836 90.4345 213.325 89.7594C212.891 89.1628 212.419 88.6056 211.907 88.088C211.633 87.7719 211.337 87.4694 210.946 87.294L210.938 87.2902L210.569 87.1659L210.559 87.1638C210.065 87.0502 209.62 87.1901 209.24 87.4548C208.882 87.7046 208.575 88.0693 208.321 88.4539L208.313 88.4498C208.304 88.4679 208.297 88.4854 208.29 88.5025ZM208.644 88.6751C208.644 88.6784 208.644 88.6839 208.644 88.6955V88.7114L208.641 88.727C208.42 90.1087 209.05 91.6103 210.199 92.4347C211.382 93.2558 213.09 93.2933 214.31 92.51C214.398 92.4505 214.465 92.378 214.494 92.3228C214.489 92.2248 214.462 92.1525 214.411 92.0751L214.408 92.0718L214.406 92.0685C213.98 91.3637 213.516 90.6604 213.014 89.9972L213.011 89.9941C212.588 89.411 212.126 88.867 211.626 88.362L211.622 88.3574L211.618 88.3524C211.349 88.0427 211.102 87.7974 210.796 87.6579L210.464 87.5459C210.104 87.4661 209.772 87.5628 209.462 87.779C209.158 87.9904 208.883 88.3118 208.644 88.6751Z" fill="black"/>
<path fill-rule="evenodd" clip-rule="evenodd" d="M209.855 89.8276C209.896 88.9516 210.267 88.1688 210.659 87.4561L211 87.6474C210.613 88.3517 210.282 89.0647 210.245 89.8417C210.246 90.6201 210.614 91.3912 211.256 91.6645C211.346 91.7019 211.469 91.6926 211.636 91.603C211.802 91.5138 211.983 91.3581 212.163 91.1576C212.521 90.7575 212.839 90.2192 212.986 89.8115C213.027 89.6881 213.053 89.6017 213.053 89.5218H213.443C213.443 89.6724 213.395 89.8169 213.359 89.9272C213.358 89.931 213.356 89.9349 213.355 89.9387L213.354 89.9437L213.353 89.9437C213.188 90.4026 212.843 90.9858 212.452 91.4222C212.256 91.6403 212.04 91.8319 211.819 91.9507C211.6 92.069 211.348 92.1289 211.107 92.0286L211.105 92.028L211.105 92.028C210.266 91.6712 209.855 90.7115 209.855 89.837V89.8323L209.855 89.8276Z" fill="black"/>
<path fill-rule="evenodd" clip-rule="evenodd" d="M203.599 94.4869C205.162 94.329 206.731 94.2099 208.342 94.2496L208.333 94.6435C206.746 94.6044 205.195 94.7217 203.637 94.879L203.635 94.8792L203.635 94.8792C202.4 94.9892 201.155 95.1658 200.214 95.8462C200.338 95.8887 200.49 95.9044 200.653 95.9044H200.66L200.668 95.905C203.224 96.1006 206.331 95.9051 208.899 95.5907L208.911 95.5892H208.923C208.995 95.5892 209.047 95.5891 209.134 95.5599L209.257 95.9337C209.117 95.9811 209.016 95.9831 208.934 95.9832C206.358 96.2981 203.233 96.4956 200.646 96.2984C200.37 96.2978 199.988 96.2603 199.735 96.0043L199.585 95.8529L199.747 95.7146C200.814 94.8029 202.278 94.6047 203.599 94.4869Z" fill="black"/>
<path fill-rule="evenodd" clip-rule="evenodd" d="M209.732 96.7727C209.793 96.7625 209.837 96.7548 209.878 96.7407L210.002 97.1145C209.928 97.1392 209.857 97.1512 209.801 97.1605L209.796 97.1613C209.736 97.1716 209.692 97.1793 209.651 97.1933L209.643 97.1958L209.636 97.1977C206.796 97.9048 203.648 98.9259 201.008 100.102L201.005 100.104L201.002 100.105C200.917 100.139 200.834 100.187 200.78 100.238C200.777 100.241 200.775 100.243 200.773 100.245C201.036 100.336 201.353 100.312 201.728 100.278C202.992 100.123 204.417 99.6859 205.856 99.1606C206.721 98.8447 207.58 98.5011 208.409 98.1695C208.963 97.948 209.503 97.7318 210.023 97.5329C210.306 97.4107 210.588 97.3294 210.856 97.2519L210.862 97.2504L210.969 97.6293C210.694 97.7085 210.433 97.7842 210.173 97.8967L210.169 97.8984L210.165 97.8999C209.656 98.0944 209.119 98.3095 208.564 98.5311C207.729 98.8654 206.855 99.2146 205.988 99.5311C204.542 100.059 203.082 100.509 201.772 100.669L201.769 100.67L201.766 100.67C201.757 100.671 201.747 100.672 201.738 100.672C201.33 100.71 200.849 100.754 200.444 100.528L200.366 100.483L200.348 100.394C200.309 100.199 200.413 100.046 200.513 99.9508C200.614 99.8552 200.744 99.7852 200.854 99.7405C203.516 98.5544 206.682 97.5279 209.535 96.8169C209.605 96.794 209.674 96.7825 209.727 96.7735L209.732 96.7727Z" fill="black"/>
<path fill-rule="evenodd" clip-rule="evenodd" d="M211.144 98.4211C211.249 98.3727 211.36 98.3219 211.462 98.2808L211.606 98.6466C211.514 98.684 211.411 98.7312 211.303 98.7809L211.3 98.7821C211.197 98.8296 211.088 98.8795 210.988 98.9202C210.327 99.2341 209.665 99.549 208.963 99.8641C207.244 100.693 205.477 101.612 204.574 103.195C204.566 103.218 204.557 103.241 204.549 103.26C204.547 103.265 204.545 103.27 204.543 103.274C204.532 103.303 204.525 103.322 204.521 103.338C204.519 103.349 204.518 103.355 204.518 103.357C204.518 103.358 204.519 103.358 204.519 103.358L204.526 103.369L204.529 103.376C204.534 103.377 204.542 103.379 204.557 103.379C204.576 103.379 204.599 103.375 204.623 103.368C204.647 103.361 204.666 103.351 204.678 103.343L204.694 103.332L204.712 103.325C207.195 102.306 209.523 101.013 211.736 99.4831L211.738 99.4818L211.738 99.4818C211.793 99.4445 211.859 99.3973 211.928 99.3475L211.929 99.3463C211.996 99.2979 212.067 99.2472 212.128 99.206L212.344 99.5338C212.289 99.5711 212.223 99.6183 212.154 99.6681L212.153 99.6693C212.086 99.7174 212.016 99.7679 211.955 99.8089C209.726 101.349 207.379 102.654 204.875 103.683C204.787 103.737 204.671 103.773 204.557 103.773C204.434 103.773 204.274 103.728 204.188 103.567C204.115 103.45 204.121 103.333 204.143 103.243C204.154 103.199 204.169 103.16 204.181 103.129C204.184 103.122 204.187 103.114 204.189 103.108C204.198 103.085 204.205 103.068 204.211 103.051L204.217 103.032L204.226 103.015C205.197 101.299 207.09 100.33 208.797 99.5073L208.802 99.505L208.802 99.5051C209.502 99.1909 210.163 98.8766 210.827 98.5612L210.832 98.5587L210.837 98.5566C210.93 98.5192 211.033 98.472 211.141 98.4222L211.144 98.4211Z" fill="black"/>
<path d="M105.56 414.659C106.262 414.817 107.003 414.935 107.705 414.817C108.758 414.62 109.655 413.911 110.24 413.004C110.669 412.335 110.982 411.625 111.255 410.877C110.201 409.655 108.953 408.434 107.393 408.434C106.028 408.434 104.779 409.419 104.077 410.601C103.375 411.822 103.141 413.201 102.907 414.58C103.765 414.265 104.662 414.462 105.56 414.659ZM118.978 401.736C119.173 401.893 119.329 402.051 119.524 402.208C119.68 402.366 119.836 402.484 119.953 402.642C120.265 402.957 120.538 403.312 120.811 403.666C121.006 403.903 121.162 404.139 121.318 404.415C121.552 404.809 121.787 405.203 121.982 405.636C122.177 406.07 122.372 406.543 122.528 407.015C123.191 409.064 123.347 411.31 122.801 413.398C122.216 415.802 120.85 418.008 120.811 420.491C120.733 425.14 125.375 429.71 123.269 433.887C119.68 432.035 118.042 427.543 114.453 425.692C111.762 424.312 108.719 424.746 105.872 425.889C103.804 429.632 101.503 433.217 98.9284 436.606C98.4993 437.197 97.7191 437.788 97.173 437.354C97.3291 433.651 96.822 429.947 95.6908 426.401C94.9106 425.416 94.1695 424.47 93.3893 423.485C84.5737 412.216 75.7971 400.948 66.0844 390.467C62.2617 386.33 58.0489 381.759 57.8929 376.086C57.8539 374.273 58.712 372.224 57.3078 371.121C56.6447 370.609 53.9142 371.042 53.212 370.609C51.8468 369.742 51.6908 367.378 51.4177 365.762C50.7936 361.783 51.2617 357.685 50.9106 353.666C50.5206 349.332 50.3255 344.88 51.6908 340.743C52.978 336.763 56.0596 333.138 60.0383 332.193C60.3503 322.303 61.5206 312.295 65.2652 303.154C66.2794 300.711 67.4496 298.308 69.244 296.377C71.0773 294.407 73.4567 293.028 75.7972 291.728C80.439 289.167 85.822 286.645 90.7759 288.497C94.4035 289.837 96.822 293.225 98.9674 296.456C99.6305 297.441 100.294 298.426 100.45 299.608C100.606 300.751 100.138 302.13 99.0844 302.563C97.3681 303.272 95.7298 301.42 94.6376 299.884C92.9603 297.559 90.7759 295.353 87.9674 294.722C84.7298 293.974 81.3752 295.471 78.6837 297.48C73.8078 301.105 70.2581 306.464 68.3468 312.256C66.4354 318.048 66.0454 324.273 66.7475 330.341C66.9425 330.065 67.3716 329.947 67.7617 329.868C72.9106 329.119 78.1376 329.041 83.2865 329.75C84.1447 329.868 85.0418 330.026 85.822 330.498C87.0702 331.286 87.6163 332.784 88.2404 334.123C90.4638 338.851 94.4425 342.437 97.8752 346.298C101.347 350.199 104.467 354.888 104.311 360.128C104.155 365.329 99.2404 370.569 94.2475 369.19C94.3645 379.316 94.6766 389.994 100.06 398.544C100.567 399.332 101.152 400.16 101.971 400.593C103.882 401.617 106.106 400.317 108.173 399.647C111.879 398.505 116.052 399.332 118.978 401.736ZM117.691 411.507C118.12 412.098 118.588 412.61 119.095 413.162C119.368 413.438 119.641 413.714 119.992 413.871C120.109 413.911 120.226 413.95 120.343 413.989C121.201 414.147 121.904 413.517 122.411 412.729C122.645 411.271 121.982 409.655 120.772 408.828C119.524 407.961 117.73 407.922 116.443 408.749C116.326 408.828 116.208 408.907 116.169 409.064C116.13 409.182 116.209 409.34 116.287 409.458C116.716 410.128 117.145 410.837 117.691 411.507Z" fill="black"/>
<path d="M102.91 414.582C103.144 413.203 103.378 411.784 104.08 410.602C104.782 409.381 106.03 408.396 107.396 408.435C108.956 408.435 110.243 409.657 111.257 410.878C110.984 411.627 110.672 412.336 110.243 413.006C109.658 413.912 108.761 414.661 107.708 414.818C108.215 413.754 107.981 412.336 107.747 411.154C107.708 410.996 107.669 410.839 107.552 410.76C107.396 410.642 107.201 410.642 107.005 410.721C106.342 410.957 105.874 411.587 105.679 412.297C105.523 412.927 105.484 413.951 105.523 414.661C104.665 414.464 103.768 414.267 102.91 414.582Z" fill="#D5BF4B"/>
<path d="M105.559 414.661C105.52 413.951 105.52 412.927 105.715 412.297C105.91 411.587 106.378 410.957 107.041 410.721C107.236 410.681 107.431 410.642 107.587 410.76C107.704 410.839 107.743 410.996 107.782 411.154C108.016 412.297 108.25 413.754 107.743 414.818C107.002 414.936 106.3 414.779 105.559 414.661Z" fill="black"/>
<path d="M116.286 409.42C116.208 409.301 116.169 409.183 116.169 409.026C116.208 408.907 116.325 408.789 116.442 408.71C117.729 407.883 119.485 407.922 120.772 408.789C121.981 409.656 122.644 411.232 122.41 412.69C121.903 413.478 121.201 414.148 120.343 413.951C120.226 413.911 120.109 413.872 119.992 413.833L120.031 413.754C120.421 413.045 120.772 412.296 120.811 411.469C120.811 410.641 120.421 409.774 119.68 409.459C119.016 409.183 118.002 410.562 117.69 411.429C117.144 410.838 116.715 410.129 116.286 409.42Z" fill="#D5BF4B"/>
<path d="M119.058 413.164C118.551 412.651 118.082 412.1 117.653 411.509C117.965 410.602 118.98 409.263 119.643 409.539C120.384 409.854 120.774 410.721 120.774 411.548C120.774 412.376 120.423 413.124 119.994 413.833L119.955 413.912C119.643 413.715 119.331 413.439 119.058 413.164Z" fill="black"/>
<path d="M119.489 402.212C119.333 402.054 119.137 401.896 118.942 401.739C121.127 400.202 123.506 398.902 126.003 397.878C126.159 397.799 126.354 397.759 126.432 397.917C126.51 398.035 126.432 398.153 126.393 398.272C125.457 399.926 123.623 400.872 121.907 401.699C121.244 402.015 120.581 402.33 119.918 402.645C119.801 402.487 119.645 402.33 119.489 402.212Z" fill="black"/>
<path d="M121.28 404.375C121.124 404.139 120.968 403.863 120.773 403.627C123.348 402.681 126.546 401.184 129.082 400.869C129.472 400.829 129.94 400.79 130.291 400.987C130.33 401.184 130.096 401.341 129.901 401.42C127.248 402.642 124.089 403.666 121.28 404.375Z" fill="black"/>
<path d="M122.492 406.939C122.336 406.466 122.141 406.032 121.946 405.56C124.559 405.244 127.641 405.087 130.215 405.244C130.488 405.244 130.8 405.284 130.995 405.481C129.981 406.348 128.577 406.545 127.251 406.663C125.651 406.86 124.091 406.978 122.492 406.939Z" fill="black"/>
<path fill-rule="evenodd" clip-rule="evenodd" d="M94.301 422.487C94.8898 423.716 95.4001 424.985 95.8318 426.293L95.8324 426.295C96.9592 429.827 97.4706 433.515 97.3284 437.205C97.5024 437.297 97.7151 437.273 97.9601 437.144C98.2435 436.994 98.5245 436.722 98.727 436.444L98.7296 436.44C101.298 433.06 103.594 429.483 105.657 425.747C105.657 425.747 105.657 425.747 105.657 425.747L106.242 424.683L106.583 424.875L105.998 425.939C103.927 429.689 101.621 433.282 99.0403 436.678C98.8138 436.99 98.4908 437.308 98.1409 437.493C97.7904 437.678 97.3674 437.748 97.0085 437.464L96.9299 437.401L96.9341 437.3C97.0892 433.621 96.5854 429.941 95.4614 426.416C95.035 425.125 94.5312 423.872 93.9499 422.658L94.301 422.487Z" fill="black"/>
<path fill-rule="evenodd" clip-rule="evenodd" d="M60.4604 332.266C60.3325 332.266 60.2002 332.299 60.0396 332.339L60.0369 332.34L60.0369 332.34C56.1432 333.265 53.103 336.824 51.8301 340.759L51.8298 340.76C50.4785 344.855 50.6689 349.271 51.0588 353.604L51.0589 353.604C51.2102 355.336 51.2101 357.083 51.2101 358.818C51.2101 359.107 51.2101 359.396 51.2108 359.684C51.2157 361.707 51.2548 363.713 51.5642 365.686C51.603 365.915 51.639 366.157 51.676 366.404C51.7718 367.045 51.874 367.729 52.0474 368.37C52.2878 369.258 52.6511 370.004 53.2686 370.396C53.3292 370.434 53.4238 370.468 53.5568 370.497C53.6883 370.525 53.8458 370.545 54.0239 370.558C54.351 370.584 54.731 370.588 55.1227 370.592C55.1587 370.593 55.1947 370.593 55.2308 370.594C55.656 370.598 56.0904 370.606 56.4611 370.645C56.6469 370.665 56.8218 370.693 56.975 370.735C57.1262 370.776 57.2688 370.834 57.3803 370.92L57.3815 370.921C58.1592 371.532 58.2961 372.403 58.2612 373.3C58.2464 373.681 58.2001 374.078 58.1543 374.47C58.1462 374.54 58.1381 374.609 58.1302 374.678C58.0773 375.142 58.0325 375.598 58.0419 376.036C58.1186 378.823 59.1917 381.348 60.7303 383.699C62.2703 386.052 64.2676 388.217 66.181 390.288C75.6614 400.518 84.2498 411.497 92.8466 422.488C93.0631 422.764 93.2795 423.041 93.496 423.318C93.8861 423.81 94.2665 424.293 94.6466 424.775L94.6468 424.776C95.0271 425.258 95.4072 425.741 95.797 426.233L95.7983 426.235C96.1487 426.687 96.4991 427.129 96.8502 427.573C97.2012 428.016 97.5529 428.46 97.9047 428.914L97.5975 429.157C97.2472 428.705 96.8968 428.262 96.5456 427.819C96.1949 427.376 95.8434 426.932 95.4918 426.478C95.1018 425.986 94.7215 425.503 94.3414 425.021L94.3413 425.021C93.961 424.538 93.5809 424.056 93.191 423.563L93.1903 423.562C92.975 423.287 92.7598 423.012 92.5446 422.737C83.9447 411.743 75.3652 400.775 65.896 390.557L65.8958 390.557C63.9865 388.49 61.966 386.301 60.4049 383.916C58.8426 381.529 57.7313 378.933 57.6519 376.046L57.6519 376.045C57.6418 375.577 57.6897 375.098 57.7427 374.633C57.7509 374.562 57.7591 374.491 57.7673 374.421C57.8131 374.028 57.8573 373.649 57.8714 373.285C57.9047 372.429 57.7687 371.724 57.1427 371.232C57.0883 371.19 57.0007 371.15 56.8734 371.115C56.7476 371.081 56.5949 371.055 56.4205 371.037C56.0708 371 55.6544 370.993 55.2263 370.988C55.1897 370.987 55.1529 370.987 55.1162 370.986C54.7278 370.982 54.3348 370.978 53.994 370.951C53.807 370.937 53.6308 370.915 53.476 370.882C53.3234 370.85 53.1793 370.803 53.0643 370.732L53.0622 370.731C52.3152 370.257 51.9182 369.387 51.6712 368.474C51.4913 367.809 51.3835 367.088 51.2867 366.44C51.2505 366.198 51.2158 365.966 51.1795 365.751L51.1791 365.749H51.1791C50.8644 363.742 50.8256 361.71 50.8207 359.685C50.82 359.395 50.82 359.105 50.82 358.815C50.82 357.079 50.82 355.352 50.6704 353.639C50.2802 349.304 50.0805 344.816 51.4595 340.636C52.7611 336.613 55.8834 332.923 59.9463 331.956L59.9549 331.954C60.1042 331.917 60.2801 331.872 60.4604 331.872V332.266Z" fill="black"/>
<path fill-rule="evenodd" clip-rule="evenodd" d="M67.8464 329.627C73.0115 328.876 78.2548 328.837 83.4198 329.509C84.3161 329.627 85.253 329.788 86.0342 330.286C86.0343 330.286 86.0341 330.286 86.0342 330.286L85.9304 330.453L86.0338 330.286C86.0339 330.286 86.0341 330.286 86.0342 330.286C86.6951 330.703 87.1631 331.304 87.542 331.959C87.8237 332.446 88.0625 332.974 88.2934 333.486C88.3712 333.658 88.448 333.828 88.5253 333.994L88.5256 333.994C89.6067 336.335 91.1342 338.387 92.8303 340.346C93.6783 341.325 94.567 342.279 95.4623 343.234C95.5542 343.332 95.6461 343.43 95.738 343.528C96.5417 344.384 97.3479 345.244 98.1286 346.121C101.606 350.028 104.773 354.767 104.615 360.088C104.535 362.766 103.242 365.424 101.335 367.239C99.4899 368.997 97.0474 369.982 94.5539 369.398C94.5529 369.313 94.5519 369.228 94.5509 369.142L94.3559 369.145L94.3045 369.335C94.3877 369.358 94.4708 369.379 94.5539 369.398C94.6738 379.457 95.0291 390.008 100.332 398.392L100.334 398.395C100.838 399.218 101.4 399.965 102.169 400.372C102.169 400.372 102.168 400.372 102.168 400.372L102.079 400.547L102.17 400.373C102.17 400.373 102.169 400.373 102.169 400.372C103.062 400.832 104.039 400.775 105.073 400.504C105.589 400.369 106.113 400.183 106.642 399.986C106.746 399.947 106.851 399.908 106.956 399.868C107.378 399.709 107.803 399.55 108.221 399.414L108.281 399.602L108.222 399.414C108.222 399.414 108.221 399.414 108.221 399.414M119.092 401.498C119.092 401.497 119.092 401.497 119.091 401.497L119.092 401.498ZM119.092 401.498L119.097 401.501C119.288 401.656 119.49 401.819 119.653 401.984L120.087 402.422L120.09 402.426C120.402 402.78 120.678 403.099 120.955 403.458C121.103 403.638 121.233 403.844 121.349 404.028C121.392 404.096 121.433 404.161 121.472 404.221L121.475 404.224L121.477 404.229L121.479 404.232C121.712 404.624 121.951 405.026 122.151 405.47L122.152 405.473L122.153 405.476C122.197 405.581 122.241 405.686 122.284 405.79C122.434 406.145 122.581 406.496 122.704 406.868L122.704 406.869C123.378 408.951 123.498 411.234 122.982 413.36C122.759 414.274 122.424 415.168 122.096 416.046C121.987 416.337 121.879 416.625 121.776 416.912C121.358 418.075 121.017 419.222 120.998 420.409C120.979 421.539 121.244 422.672 121.629 423.809C121.891 424.584 122.204 425.349 122.518 426.116C122.667 426.48 122.815 426.843 122.959 427.208C123.84 429.452 124.511 431.716 123.435 433.89L123.347 434.068L123.171 433.977C121.341 433.033 120.013 431.421 118.715 429.846L118.702 429.83C117.391 428.238 116.108 426.686 114.356 425.782C111.736 424.44 108.759 424.815 105.938 425.985C104.469 426.61 103.076 427.392 101.797 428.253L101.581 427.925C102.877 427.052 104.292 426.258 105.787 425.622L105.789 425.621C108.663 424.428 111.77 424.015 114.533 425.431L114.533 425.431C116.363 426.375 117.692 427.988 118.989 429.563L119.002 429.578C120.269 431.116 121.509 432.616 123.171 433.532C124.041 431.583 123.453 429.534 122.596 427.354C122.457 427 122.311 426.642 122.163 426.281C121.847 425.508 121.526 424.723 121.26 423.937C120.868 422.779 120.588 421.597 120.608 420.402M88.1722 334.161C88.0906 333.986 88.011 333.81 87.9317 333.634C87.703 333.128 87.4761 332.626 87.2053 332.158C86.8432 331.532 86.4141 330.991 85.827 330.62L85.8262 330.619C85.1253 330.172 84.2678 330.018 83.3698 329.9C78.2385 329.232 73.0293 329.271 67.8979 330.017L67.8937 330.018L67.8895 330.018C67.7048 330.037 67.5201 330.074 67.3632 330.138C67.2095 330.201 67.095 330.285 67.0259 330.392L66.9294 330.587C66.9296 330.621 66.9435 330.651 66.9745 330.681C67.0168 330.723 67.0854 330.757 67.1598 330.771C67.2319 330.785 67.278 330.774 67.2951 330.766C67.2951 330.76 67.2943 330.751 67.2908 330.737L67.6693 330.641C67.6909 330.729 67.6923 330.819 67.6621 330.904C67.6314 330.991 67.5737 331.055 67.5061 331.098C67.3789 331.178 67.2193 331.183 67.0884 331.159C66.9531 331.133 66.8096 331.069 66.7021 330.963C66.59 330.853 66.5147 330.692 66.5465 330.499L66.5513 330.47L66.6856 330.199L66.6905 330.191C66.817 329.986 67.0129 329.856 67.2166 329.773C67.4191 329.69 67.6422 329.648 67.8464 329.627" fill="black"/>
<path fill-rule="evenodd" clip-rule="evenodd" d="M60.8959 331.161H60.5068V330.729H60.8959V331.161Z" fill="black"/>
<path fill-rule="evenodd" clip-rule="evenodd" d="M83.259 288.641C80.7365 289.354 78.2467 290.615 75.9278 291.894C73.5855 293.196 71.2325 294.562 69.4232 296.506C67.6539 298.409 66.4946 300.785 65.4823 303.224C61.7511 312.332 60.621 322.312 60.2702 332.233L59.8804 332.219C60.2317 322.282 61.364 312.246 65.122 303.073L65.1224 303.072C66.1384 300.624 67.3195 298.194 69.1388 296.236C70.996 294.24 73.4017 292.848 75.7402 291.549L75.7407 291.549C78.0635 290.267 80.5861 288.987 83.154 288.262C85.7234 287.536 88.3523 287.361 90.8802 288.306C94.5756 289.671 97.0256 293.116 99.1661 296.34C99.1662 296.34 99.1663 296.34 99.1663 296.34L99.1779 296.357C99.8323 297.329 100.518 298.347 100.68 299.576C100.68 299.576 100.68 299.575 100.68 299.576L100.487 299.602L100.68 299.575C100.68 299.575 100.68 299.575 100.68 299.576C100.763 300.181 100.68 300.847 100.437 301.423C100.193 301.998 99.7814 302.498 99.195 302.739C99.1949 302.739 99.1951 302.739 99.195 302.739C98.2471 303.131 97.3353 302.804 96.5482 302.218C95.7623 301.633 95.0653 300.765 94.5166 299.993C94.5167 299.993 94.5168 299.994 94.517 299.994L94.6746 299.878L94.5161 299.993C94.5163 299.993 94.5164 299.993 94.5166 299.993C92.8468 297.679 90.6987 295.523 87.9621 294.908L87.9608 294.908C84.8069 294.179 81.5123 295.635 78.8366 297.633L78.8363 297.633C73.9972 301.23 70.4693 306.553 68.5688 312.312C66.6681 318.072 66.2788 324.267 66.9782 330.312L66.9795 330.323V330.414H66.5895V330.346C66.5899 330.35 66.5903 330.354 66.5908 330.358L66.7845 330.335H66.5895V330.346C65.8865 324.259 66.278 318.008 68.1988 312.187C70.121 306.362 73.6922 300.968 78.6047 297.316L78.7207 297.474L78.6051 297.316C78.605 297.316 78.6049 297.316 78.6047 297.316C81.3118 295.295 84.7262 293.756 88.0473 294.524C88.0471 294.524 88.0469 294.524 88.0467 294.524L88.0044 294.716L88.0479 294.524C88.0477 294.524 88.0475 294.524 88.0473 294.524C90.9271 295.171 93.1475 297.427 94.8322 299.762L94.833 299.763C95.3764 300.527 96.0445 301.354 96.7797 301.901C97.5138 302.448 98.2791 302.692 99.0475 302.375C99.5143 302.183 99.8633 301.776 100.078 301.268C100.293 300.76 100.367 300.166 100.293 299.629L100.293 299.628C100.144 298.5 99.5112 297.553 98.8431 296.561L98.8424 296.56C96.6922 293.321 94.3055 289.99 90.7459 288.676L90.7452 288.676C88.3193 287.769 85.7798 287.929 83.259 288.641Z" fill="black"/>
<path fill-rule="evenodd" clip-rule="evenodd" d="M107.422 408.666C106.153 408.629 104.961 409.55 104.28 410.735L104.279 410.737C103.651 411.795 103.407 413.052 103.187 414.332C103.984 414.134 104.847 414.289 105.635 414.462C106.375 414.619 107.045 414.729 107.707 414.618L107.711 414.617C108.691 414.471 109.546 413.768 110.111 412.892C110.504 412.279 110.798 411.629 111.056 410.939C110.056 409.753 108.849 408.666 107.427 408.666H107.424L107.422 408.666ZM111.5 410.846C111.532 410.742 111.57 410.635 111.609 410.525L111.61 410.522C111.658 410.386 111.709 410.243 111.749 410.099L111.374 409.991C111.337 410.121 111.291 410.253 111.242 410.392L111.241 410.395C111.228 410.432 111.215 410.469 111.202 410.506C110.221 409.377 108.961 408.273 107.43 408.272C105.969 408.231 104.666 409.279 103.944 410.536C103.232 411.734 102.99 413.162 102.761 414.512C102.757 414.535 102.753 414.559 102.749 414.582L102.691 414.922L103.011 414.799C103.769 414.508 104.651 414.649 105.552 414.847L105.554 414.847C106.295 415.005 107.028 415.131 107.77 415.007C108.894 414.838 109.834 414.043 110.438 413.107L110.438 413.107C110.817 412.516 111.105 411.898 111.354 411.255L111.385 411.287L111.661 411.009L111.5 410.846Z" fill="black"/>
<path fill-rule="evenodd" clip-rule="evenodd" d="M107.658 410.593C107.757 410.661 107.814 410.757 107.851 410.844C107.887 410.927 107.909 411.019 107.928 411.093L107.931 411.104L107.931 411.109C108.049 411.701 108.169 412.364 108.194 413.017C108.219 413.668 108.15 414.325 107.877 414.897L107.526 414.727C107.76 414.235 107.828 413.651 107.804 413.032C107.78 412.415 107.666 411.78 107.55 411.191C107.53 411.111 107.514 411.05 107.493 410.999C107.472 410.949 107.452 410.928 107.437 410.918L107.433 410.915L107.428 410.911C107.344 410.848 107.227 410.834 107.072 410.897L107.068 410.899L107.064 410.9C106.478 411.109 106.045 411.675 105.861 412.341C105.713 412.944 105.673 413.944 105.712 414.643L105.712 414.649V414.851L105.322 414.851V414.66C105.283 413.942 105.321 412.899 105.484 412.243L105.485 412.238C105.691 411.487 106.193 410.794 106.93 410.53C107.163 410.437 107.432 410.424 107.658 410.593Z" fill="black"/>
<path fill-rule="evenodd" clip-rule="evenodd" d="M116.505 408.869C116.417 408.929 116.35 409.001 116.321 409.057C116.327 409.155 116.354 409.227 116.405 409.304L116.407 409.308L116.409 409.311C116.835 410.016 117.3 410.719 117.802 411.382L117.804 411.385C118.227 411.968 118.689 412.512 119.189 413.017C119.464 413.296 119.711 413.541 120.019 413.682L120.351 413.794C120.712 413.874 121.044 413.777 121.354 413.561C121.658 413.349 121.933 413.027 122.172 412.663L122.174 412.652C122.396 411.271 121.766 409.77 120.618 408.945C119.393 408.122 117.724 408.087 116.505 408.869ZM122.6 411.841C122.523 410.586 121.871 409.36 120.841 408.623L120.839 408.621L120.836 408.619C119.487 407.711 117.648 407.667 116.294 408.538L116.29 408.54C116.159 408.629 116 408.778 115.94 408.957L115.93 408.988V409.02C115.93 409.216 115.981 409.371 116.078 409.519C116.509 410.231 116.98 410.945 117.491 411.62C117.925 412.218 118.399 412.777 118.913 413.296L118.924 413.307C119.19 413.575 119.485 413.873 119.869 414.046L119.878 414.05L120.247 414.174L120.256 414.176C120.75 414.29 121.196 414.15 121.575 413.885C121.925 413.642 122.225 413.289 122.474 412.916L122.502 412.93C122.525 412.882 122.541 412.839 122.551 412.797C122.743 412.482 122.899 412.165 123.017 411.847L122.652 411.708C122.636 411.753 122.618 411.797 122.6 411.841Z" fill="black"/>
<path fill-rule="evenodd" clip-rule="evenodd" d="M118.995 409.387C119.214 409.269 119.466 409.209 119.707 409.309L119.709 409.31L119.709 409.31C120.548 409.666 120.959 410.626 120.959 411.501V411.505L120.959 411.51C120.918 412.386 120.547 413.169 120.155 413.882L119.814 413.69C120.201 412.986 120.531 412.273 120.569 411.496C120.568 410.718 120.2 409.947 119.558 409.673C119.468 409.636 119.344 409.645 119.178 409.735C119.012 409.824 118.831 409.98 118.651 410.18C118.292 410.58 117.975 411.119 117.828 411.526C117.787 411.65 117.761 411.736 117.761 411.816H117.371C117.371 411.665 117.418 411.521 117.455 411.411C117.456 411.407 117.457 411.403 117.459 411.399L117.46 411.394L117.46 411.394C117.626 410.935 117.971 410.352 118.362 409.916C118.558 409.697 118.774 409.506 118.995 409.387Z" fill="black"/>
<path fill-rule="evenodd" clip-rule="evenodd" d="M130.172 405.079C130.447 405.08 130.829 405.117 131.082 405.373L131.232 405.524L131.07 405.663C130.004 406.574 128.539 406.773 127.218 406.89C125.655 407.048 124.047 407.167 122.475 407.128L122.485 406.734C124.033 406.773 125.623 406.656 127.18 406.498L127.183 406.498L127.183 406.498C128.417 406.388 129.662 406.212 130.603 405.531C130.479 405.489 130.328 405.473 130.164 405.473H130.157L130.15 405.472C127.593 405.277 124.525 405.472 121.918 405.787L121.906 405.788H121.895C121.822 405.788 121.77 405.788 121.683 405.817L121.56 405.444C121.701 405.396 121.801 405.394 121.883 405.394C124.498 405.079 127.585 404.882 130.172 405.079Z" fill="black"/>
<path fill-rule="evenodd" clip-rule="evenodd" d="M129.048 400.703C129.455 400.666 129.937 400.621 130.341 400.848L130.42 400.892L130.438 400.982C130.476 401.177 130.373 401.33 130.273 401.425C130.172 401.521 130.042 401.591 129.933 401.635C127.308 402.822 124.103 403.848 121.29 404.559C121.219 404.582 121.151 404.593 121.097 404.602L121.092 404.603C121.032 404.613 120.988 404.621 120.946 404.635L120.823 404.261C120.896 404.237 120.968 404.225 121.023 404.215L121.028 404.215C121.089 404.204 121.132 404.197 121.174 404.183L121.181 404.18L121.189 404.178C123.99 403.471 127.177 402.45 129.777 401.274L129.78 401.272L129.784 401.271C129.869 401.237 129.952 401.189 130.006 401.138C130.008 401.135 130.011 401.133 130.013 401.131C129.75 401.039 129.433 401.064 129.058 401.098C127.794 401.253 126.379 401.69 124.95 402.215C124.111 402.523 123.281 402.857 122.476 403.181C121.902 403.411 121.342 403.636 120.802 403.843C120.519 403.965 120.237 404.046 119.969 404.124L119.963 404.126L119.856 403.747C120.131 403.667 120.392 403.592 120.652 403.479L120.656 403.478L120.66 403.476C121.187 403.274 121.744 403.05 122.319 402.82C123.132 402.493 123.978 402.153 124.816 401.845C126.253 401.317 127.704 400.867 129.014 400.707L129.017 400.706L129.02 400.706C129.029 400.705 129.038 400.704 129.048 400.703Z" fill="black"/>
<path fill-rule="evenodd" clip-rule="evenodd" d="M126.592 397.808C126.665 397.925 126.66 398.042 126.637 398.132C126.627 398.175 126.611 398.215 126.6 398.245C126.597 398.253 126.594 398.26 126.591 398.267C126.582 398.289 126.576 398.306 126.57 398.324L126.563 398.344L126.552 398.362C125.543 400.075 123.693 401.043 121.983 401.867L121.982 401.868L119.987 402.816L119.982 402.818C119.889 402.855 119.786 402.903 119.678 402.952L119.676 402.953C119.57 403.002 119.459 403.053 119.358 403.094L119.213 402.728C119.305 402.691 119.408 402.643 119.517 402.594L119.519 402.592C119.623 402.545 119.731 402.495 119.832 402.454L121.815 401.512C121.815 401.512 121.815 401.511 121.815 401.511C123.531 400.684 125.264 399.764 126.207 398.178C126.215 398.155 126.224 398.133 126.231 398.115C126.233 398.11 126.235 398.105 126.237 398.1C126.248 398.072 126.255 398.052 126.259 398.036C126.262 398.025 126.262 398.019 126.262 398.017C126.262 398.017 126.262 398.017 126.261 398.016L126.255 398.006L126.251 397.999C126.247 397.998 126.238 397.996 126.224 397.996C126.204 397.996 126.181 397.999 126.157 398.007C126.133 398.014 126.114 398.024 126.103 398.031L126.087 398.042L126.069 398.05C123.624 399.069 121.257 400.362 119.044 401.891L119.042 401.893C118.987 401.93 118.922 401.977 118.853 402.027L118.851 402.028C118.784 402.077 118.714 402.127 118.652 402.169L118.436 401.841C118.491 401.803 118.557 401.756 118.626 401.706L118.628 401.705C118.694 401.657 118.764 401.607 118.825 401.566C121.055 400.025 123.44 398.72 125.905 397.692C125.992 397.638 126.109 397.602 126.224 397.602C126.346 397.602 126.507 397.647 126.592 397.808Z" fill="black"/>
<path d="M152.661 231.679V222.836H128.039L146.187 199.531C149.834 194.833 151.476 189.859 151.476 184.792C151.476 173.278 143.724 166.461 132.963 166.461C122.567 166.461 115.089 173.831 114.36 183.411L123.479 185.161C124.209 179.265 127.401 175.304 132.963 175.304C138.8 175.304 141.718 179.265 141.718 185.161C141.718 188.937 140.806 191.885 136.611 197.136L113.083 227.626V231.679H152.661Z" fill="black"/>
<path d="M175.353 181.016V231.679H185.019V167.198H181.098L163.406 177.884V188.201L175.353 181.016Z" fill="black"/>
<path d="M200.84 225.323C200.84 229.284 203.849 232.139 207.588 232.139C211.327 232.139 214.337 229.284 214.337 225.323C214.337 221.362 211.327 218.506 207.588 218.506C203.849 218.506 200.84 221.362 200.84 225.323Z" fill="black"/>
<path d="M112.718 291.637C112.718 311.902 120.652 324.614 135.699 324.614C150.746 324.614 158.68 311.902 158.68 291.637C158.68 271.372 150.746 258.66 135.699 258.66C120.652 258.66 112.718 271.372 112.718 291.637ZM122.385 291.637C122.385 276.53 126.671 267.503 135.699 267.503C144.727 267.503 149.014 276.53 149.014 291.637C149.014 306.744 144.727 315.771 135.699 315.771C126.671 315.771 122.385 306.744 122.385 291.637Z" fill="black"/>
<path d="M194.577 310.981V323.877H204.243V310.981H211.721V302.138H204.243V259.397H194.03L167.036 306.56V310.981H194.577ZM194.577 274.135V302.138H179.074L194.577 274.135Z" fill="black"/>
<path d="M224.796 317.521C224.796 321.482 227.806 324.338 231.545 324.338C235.283 324.338 238.293 321.482 238.293 317.521C238.293 313.56 235.283 310.705 231.545 310.705C227.806 310.705 224.796 313.56 224.796 317.521Z" fill="black"/>
<path d="M66.8219 67.0229C57.8893 67.0229 50.634 74.588 50.634 83.926C50.634 93.2641 57.8893 100.829 66.8219 100.829C75.7545 100.829 83.0099 93.2641 83.0099 83.926C82.9709 74.588 75.7545 67.0229 66.8219 67.0229ZM61.1659 96.4162H58.7865V75.8882H56.6801V73.5241H61.1269V96.4162H61.1659ZM70.3716 96.889C66.9389 96.889 64.0134 94.5643 62.9992 91.294L65.1836 90.506C65.8857 92.8307 67.9141 94.5249 70.3326 94.5249C73.3751 94.5249 75.7545 91.9638 75.7545 88.7724C75.7545 85.6203 73.3361 83.0198 70.3326 83.0198C68.9283 83.0198 68.2262 83.2168 67.524 83.532L66.3538 81.3255L71.9318 75.8882H64.8716V73.5241H75.8326V75.4154L69.8645 81.0103L70.4496 80.9315C74.7404 80.9315 78.134 84.2806 78.134 88.7724C78.173 93.2641 74.6623 96.889 70.3716 96.889Z" fill="#0E0F0F"/>
<path d="M264.979 434.24C273.912 434.24 281.167 426.675 281.167 417.337C281.167 407.999 273.912 400.434 264.979 400.434C256.046 400.434 248.791 407.999 248.791 417.337C248.83 426.635 256.046 434.24 264.979 434.24ZM270.635 404.847H273.014V425.374H275.121V427.739H270.674V404.847H270.635ZM261.39 404.374C264.823 404.374 267.749 406.698 268.763 409.969L266.578 410.757C265.876 408.432 263.848 406.738 261.429 406.738C258.387 406.738 256.007 409.299 256.007 412.49C256.007 415.642 258.426 418.243 261.429 418.243C262.834 418.243 263.536 418.046 264.238 417.731L265.408 419.937L259.83 425.374H266.89V427.739H255.929V425.847L261.897 420.252L261.312 420.331C257.022 420.331 253.628 416.982 253.628 412.49C253.628 407.999 257.139 404.374 261.39 404.374Z" fill="#0E0F0F"/>
</svg>
