<svg width="330" height="500" viewBox="0 0 330 500" fill="none" xmlns="http://www.w3.org/2000/svg">
<path d="M330 60C330 26.8629 303.137 0 270 0L60 0C26.8629 0 0 26.8629 0 60L0 440C0 473.137 26.8629 500 60 500H270C303.137 500 330 473.137 330 440V60Z" fill="white"/>
<path d="M244.27 454.771H85.7342C54.8706 454.771 29.8801 429.488 29.8801 398.353L29.8801 101.729C29.8801 70.5539 54.91 45.311 85.7342 45.311L244.27 45.311C275.133 45.311 300.124 70.5937 300.124 101.729V398.353C300.124 429.488 275.133 454.771 244.27 454.771Z" fill="#0D0E0F"/>
<path d="M73.3066 77.4801V72.543H74.1738L75.2775 75.0911L76.3812 72.543H77.2484V77.4801H76.4206V73.9763L75.514 76.1263H75.041L74.1344 73.9763V77.4801H73.3066Z" fill="white"/>
<path d="M78.9846 72.543H79.8912L81.5467 76.1662L83.0052 72.543H83.8723L80.9555 79.4708H80.1277L81.0737 77.1217L78.9846 72.543Z" fill="white"/>
<path d="M86.3572 76.0467C86.4754 76.5245 86.7908 76.843 87.2244 76.843C87.7368 76.843 88.0915 76.5245 88.0915 75.9671C88.0915 75.3699 87.7762 75.0513 87.2638 75.0513C87.1455 75.0513 86.9879 75.0911 86.8696 75.131L86.4754 74.6134L87.382 73.2995H85.8053V72.543H88.604V72.8217L87.382 74.4541C87.4609 74.4541 87.5003 74.4541 87.5791 74.4541C88.4069 74.4541 88.8799 75.0115 88.8799 75.9671C88.8799 76.9226 88.1704 77.5995 87.2244 77.5995C86.3178 77.5995 85.6871 77.0819 85.5688 76.1662L86.3572 76.0467Z" fill="white"/>
<path d="M93.371 72.4639C94.8689 72.4639 95.6966 73.5389 95.6966 74.8528V75.2111H91.8732C91.9126 76.2065 92.5038 76.8435 93.371 76.8435C94.1199 76.8435 94.5929 76.4852 94.9477 75.8482L95.5784 76.2065C95.0265 77.2417 94.2776 77.6 93.371 77.6C91.952 77.6 91.0454 76.4852 91.0454 75.0519C91.0454 73.6185 91.9126 72.4639 93.371 72.4639ZM94.8295 74.4546C94.6718 73.6583 94.1988 73.2204 93.371 73.2204C92.5827 73.2204 92.1097 73.6981 91.9126 74.4546H94.8295Z" fill="white"/>
<path d="M97.241 77.4796V72.5425H98.0687V76.2453L100.591 72.5425H101.459V77.4796H100.631V73.7768L98.1081 77.4796H97.241ZM98.9359 70.6313C98.9359 70.9101 99.0936 71.0693 99.3695 71.0693C99.6454 71.0693 99.8031 70.9101 99.8031 70.6313H100.434C100.434 71.2286 100 71.7064 99.3695 71.7064C98.7388 71.7064 98.3052 71.2286 98.3052 70.6313H98.9359Z" fill="white"/>
<path d="M54.6301 84.5682V83.971L57.4682 82.02V82.896L55.4579 84.2497L57.4682 85.6034V86.4793L54.6301 84.5682ZM56.9952 84.5682V83.971L59.8332 82.02V82.896L57.8229 84.2497L59.8332 85.6034V86.4793L56.9952 84.5682Z" fill="white"/>
<path d="M61.3687 87.2733V86.5168H63.103V81.6195L61.4081 82.6547V81.739L63.6154 80.3853H63.9308V86.5168H65.6651V87.2733H61.3687V87.2733Z" fill="white"/>
<path d="M67.8341 85.326C67.9524 86.1621 68.3859 86.6001 69.1743 86.6001C69.9626 86.6001 70.5145 86.0825 70.5145 85.1667C70.5145 84.251 69.9626 83.7334 69.1743 83.7334C68.9772 83.7334 68.7801 83.7334 68.583 83.8528L68.2283 83.375L69.7655 81.225H67.3217V80.4287H71.0269V80.7074L69.2925 83.0565C69.3714 83.0167 69.4896 83.0167 69.5685 83.0167C70.5933 83.0167 71.3816 83.8528 71.3816 85.1269C71.3816 86.4408 70.4751 87.3566 69.1743 87.3566C68.0312 87.3566 67.1246 86.6001 67.0063 85.4056L67.8341 85.326Z" fill="white"/>
<path d="M79.3008 87.2764V82.3394H83.2425V87.2764H82.4147V83.0958H80.0891V87.2764H79.3008Z" fill="white"/>
<path d="M85.293 89.3034V82.3755H86.1207V83.0126C86.3967 82.6144 86.9485 82.2959 87.6186 82.2959C89.0376 82.2959 89.8654 83.3311 89.8654 84.8441C89.8654 86.3571 89.077 87.3923 87.6186 87.3923C86.9485 87.3923 86.3967 87.0737 86.1207 86.6756V89.3034H85.293V89.3034ZM87.5397 86.6358C88.4858 86.6358 89.0376 85.8793 89.0376 84.8441C89.0376 83.7691 88.4858 83.0524 87.5397 83.0524C86.5937 83.0524 86.0419 83.8089 86.0419 84.8441C86.0419 85.8793 86.5937 86.6358 87.5397 86.6358Z" fill="white"/>
<path d="M91.2045 87.2764V82.3394H92.0322V86.0422L94.5549 82.3394H95.4221V87.2764H94.5943V83.5736L92.0716 87.2764H91.2045Z" fill="white"/>
<path d="M97.3538 87.2764V82.3394H98.2209L99.3246 84.8875L100.428 82.3394H101.295V87.2764H100.468V83.7727L99.5611 85.9227H99.0881L98.1815 83.7727V87.2764H97.3538Z" fill="white"/>
<path d="M105.439 82.2603C106.937 82.2603 107.765 83.3353 107.765 84.6492V85.0075H103.941C103.981 86.0029 104.572 86.6399 105.439 86.6399C106.188 86.6399 106.661 86.2816 107.016 85.6446L107.646 86.0029C107.095 87.0381 106.346 87.3964 105.439 87.3964C104.02 87.3964 103.113 86.2816 103.113 84.8482C103.074 83.4547 103.981 82.2603 105.439 82.2603ZM106.897 84.251C106.74 83.4547 106.267 83.0167 105.439 83.0167C104.651 83.0167 104.178 83.4945 103.981 84.251H106.897Z" fill="white"/>
<path d="M109.177 83.0958V82.3394H113.591V83.0958H111.778V87.2764H110.951V83.0958H109.177Z" fill="white"/>
<path d="M114.78 86.5191V85.6432L116.791 84.2895L114.78 82.9358V82.02L117.618 83.971V84.5682L114.78 86.5191ZM117.106 86.5191V85.6432L119.116 84.2895L117.106 82.9358V82.02L119.944 83.971V84.5682L117.106 86.5191Z" fill="white"/>
<path d="M247.304 424.626V429.524H246.437L245.372 426.976L244.308 429.524H243.441V424.626H244.229V428.09L245.136 425.98H245.609L246.515 428.09V424.626H247.304Z" fill="white"/>
<path d="M241.7 429.525H240.793L239.177 425.942L237.758 429.525H236.891L239.768 422.677H240.557L239.611 424.986L241.7 429.525Z" fill="white"/>
<path d="M234.402 426.06C234.284 425.582 234.008 425.303 233.535 425.303C233.062 425.303 232.707 425.622 232.707 426.179C232.707 426.776 233.023 427.095 233.535 427.095C233.653 427.095 233.811 427.055 233.89 427.015L234.284 427.533L233.377 428.847H234.915V429.603H232.156V429.325L233.377 427.732C233.299 427.732 233.259 427.732 233.18 427.732C232.353 427.732 231.88 427.175 231.88 426.219C231.88 425.303 232.589 424.626 233.496 424.626C234.363 424.626 235.033 425.144 235.151 426.06H234.402Z" fill="white"/>
<path d="M227.433 429.565C225.935 429.565 225.146 428.49 225.146 427.216V426.858H228.93C228.891 425.902 228.3 425.265 227.433 425.265C226.684 425.265 226.211 425.624 225.895 426.221L225.265 425.863C225.816 424.827 226.565 424.509 227.472 424.509C228.891 424.509 229.798 425.624 229.798 427.017C229.758 428.451 228.891 429.565 227.433 429.565ZM226.014 427.614C226.171 428.371 226.644 428.849 227.472 428.849C228.26 428.849 228.733 428.371 228.891 427.614H226.014Z" fill="white"/>
<path d="M223.647 424.626V429.524H222.858V425.861L220.336 429.524H219.469V424.626H220.257V428.289L222.78 424.626H223.647ZM221.991 431.395C221.991 431.116 221.834 430.957 221.558 430.957C221.282 430.957 221.124 431.116 221.124 431.395H220.493C220.493 430.798 220.927 430.32 221.558 430.32C222.149 430.32 222.622 430.798 222.622 431.395H221.991Z" fill="white"/>
<path d="M265.785 417.62V418.217L262.947 420.128V419.252L264.958 417.899L262.947 416.545V415.669L265.785 417.62ZM263.46 417.62V418.217L260.622 420.128V419.252L262.632 417.899L260.622 416.545V415.669L263.46 417.62Z" fill="white"/>
<path d="M259.12 414.917V415.673H257.386V420.491L259.081 419.496V420.372L256.913 421.725H256.598V415.673H254.863V414.917H259.12Z" fill="white"/>
<path d="M252.701 416.905C252.582 416.109 252.149 415.631 251.36 415.631C250.572 415.631 250.02 416.149 250.02 417.064C250.02 417.98 250.572 418.498 251.36 418.498C251.558 418.498 251.755 418.498 251.952 418.378L252.306 418.816L250.769 420.926H253.174V421.683H249.508V421.404L251.203 419.055C251.124 419.095 251.006 419.095 250.927 419.095C249.902 419.095 249.153 418.259 249.153 417.025C249.153 415.75 250.06 414.795 251.321 414.795C252.425 414.795 253.371 415.551 253.45 416.746L252.701 416.905Z" fill="white"/>
<path d="M241.385 414.917V419.814H237.483V414.917H238.271V419.058H240.558V414.917H241.385Z" fill="white"/>
<path d="M235.436 412.962V419.811H234.647V419.174C234.371 419.532 233.819 419.89 233.189 419.89C231.77 419.89 230.981 418.855 230.981 417.382C230.981 415.909 231.77 414.874 233.189 414.874C233.859 414.874 234.411 415.192 234.647 415.59V413.002H235.436V412.962ZM233.228 415.59C232.322 415.59 231.77 416.307 231.77 417.382C231.77 418.457 232.322 419.174 233.228 419.174C234.135 419.174 234.687 418.417 234.687 417.382C234.687 416.347 234.135 415.59 233.228 415.59Z" fill="white"/>
<path d="M229.601 414.917V419.814H228.812V416.151L226.29 419.814H225.422V414.917H226.211V418.58L228.733 414.917H229.601Z" fill="white"/>
<path d="M223.527 414.917V419.814H222.66L221.595 417.266L220.531 419.814H219.664V414.917H220.452V418.381L221.359 416.271H221.832L222.738 418.381V414.917H223.527Z" fill="white"/>
<path d="M215.525 419.891C214.027 419.891 213.239 418.816 213.239 417.542V417.184H217.023C216.983 416.228 216.392 415.591 215.525 415.591C214.776 415.591 214.303 415.949 213.988 416.546L213.357 416.188C213.909 415.153 214.658 414.834 215.564 414.834C216.983 414.834 217.89 415.949 217.89 417.343C217.85 418.736 216.983 419.891 215.525 419.891ZM214.106 417.94C214.263 418.697 214.737 419.174 215.564 419.174C216.353 419.174 216.826 418.697 216.983 417.94H214.106Z" fill="white"/>
<path d="M211.861 419.097V419.853H207.486V419.097H209.26V414.956H210.048V419.097H211.861Z" fill="white"/>
<path d="M206.264 415.709V416.585L204.254 417.939L206.264 419.292V420.168L203.426 418.257V417.66L206.264 415.709ZM203.978 415.709V416.585L201.968 417.939L203.978 419.292V420.168L201.14 418.257V417.66L203.978 415.709Z" fill="white"/>
<path d="M101.356 183.707V171.936H107.656V183.707C107.656 185.955 108.114 187.662 109.03 188.826C109.961 189.991 111.233 190.573 112.843 190.573C114.485 190.573 115.772 190.342 116.704 189.879C117.651 189.417 118.646 188.651 119.688 187.582V171.936H125.989V206.244H119.688V194.544C117.715 195.948 115.062 196.65 111.73 196.65C108.525 196.65 105.99 195.589 104.127 193.468C102.279 191.331 101.356 188.077 101.356 183.707Z" fill="white"/>
<path d="M130.75 186.745V181.553H149.864V186.745H143.327V206.244H137.31V186.745H130.75Z" fill="white"/>
<path d="M156.046 203.038C153.819 200.629 152.706 197.583 152.706 193.899C152.706 190.198 153.819 187.152 156.046 184.759C158.288 182.351 161.312 181.147 165.117 181.147C168.939 181.147 171.962 182.351 174.189 184.759C176.431 187.152 177.552 190.198 177.552 193.899C177.552 197.583 176.431 200.629 174.189 203.038C171.962 205.43 168.939 206.627 165.117 206.627C161.312 206.627 158.288 205.43 156.046 203.038ZM160.664 188.539C159.559 189.991 159.006 191.777 159.006 193.899C159.006 196.02 159.559 197.806 160.664 199.258C161.77 200.709 163.254 201.435 165.117 201.435C166.996 201.435 168.481 200.709 169.57 199.258C170.675 197.806 171.228 196.02 171.228 193.899C171.228 191.777 170.675 189.991 169.57 188.539C168.481 187.088 166.996 186.362 165.117 186.362C163.254 186.362 161.77 187.088 160.664 188.539Z" fill="white"/>
<path d="M99.8398 251.969C99.8398 245.11 100.945 240.214 103.156 237.279C105.382 234.328 108.517 232.853 112.559 232.853H114.288C116.104 232.853 117.32 232.087 117.936 230.556H121.678C121.678 235.612 119.333 238.148 114.643 238.164H112.748C108.611 238.164 106.409 240.333 106.14 244.672C107.988 242.933 110.301 242.064 113.08 242.064C116.664 242.064 119.491 243.252 121.56 245.629C123.644 247.989 124.686 251.052 124.686 254.816C124.686 258.532 123.533 261.587 121.228 263.979C118.938 266.356 115.914 267.544 112.156 267.544C108.414 267.544 105.422 266.14 103.18 263.333C100.953 260.526 99.8398 256.738 99.8398 251.969ZM107.798 249.457C106.693 250.908 106.14 252.695 106.14 254.816C106.14 256.937 106.693 258.724 107.798 260.175C108.904 261.626 110.388 262.352 112.251 262.352C114.13 262.352 115.614 261.626 116.704 260.175C117.809 258.724 118.362 256.937 118.362 254.816C118.362 252.695 117.809 250.908 116.704 249.457C115.614 248.005 114.13 247.28 112.251 247.28C110.388 247.28 108.904 248.005 107.798 249.457Z" fill="white"/>
<path d="M129.873 267.161V242.471H135.889V251.873H140.342C142.932 251.873 144.985 252.567 146.5 253.955C148.032 255.342 148.798 257.2 148.798 259.529C148.798 261.842 148.032 263.692 146.5 265.08C144.985 266.467 142.932 267.161 140.342 267.161H129.873ZM135.889 261.969H139.276C141.534 261.969 142.663 261.156 142.663 259.529C142.679 257.886 141.55 257.065 139.276 257.065H135.889V261.969ZM153.89 267.161V242.471H159.906V267.161H153.89Z" fill="white"/>
<path d="M164.572 267.161V261.969C165.994 261.969 167.044 261.706 167.723 261.18C168.417 260.654 168.828 259.76 168.954 258.5L170.541 242.471H188.353V267.161H182.337V247.662H176.131L174.663 260.701C174.505 262.137 174.157 263.301 173.62 264.194C173.099 265.088 172.341 265.749 171.347 266.18C170.368 266.611 169.389 266.882 168.41 266.994C167.431 267.105 166.152 267.161 164.572 267.161Z" fill="white"/>
<path d="M197.259 263.955C195.032 261.547 193.919 258.5 193.919 254.816C193.919 251.115 195.032 248.069 197.259 245.677C199.501 243.268 202.525 242.064 206.33 242.064C210.151 242.064 213.175 243.268 215.402 245.677C217.644 248.069 218.765 251.115 218.765 254.816C218.765 258.5 217.644 261.547 215.402 263.955C213.175 266.348 210.151 267.544 206.33 267.544C202.525 267.544 199.501 266.348 197.259 263.955ZM201.877 249.457C200.772 250.908 200.219 252.695 200.219 254.816C200.219 256.937 200.772 258.724 201.877 260.175C202.983 261.626 204.467 262.352 206.33 262.352C208.209 262.352 209.693 261.626 210.783 260.175C211.888 258.724 212.441 256.937 212.441 254.816C212.441 252.695 211.888 250.908 210.783 249.457C209.693 248.005 208.209 247.28 206.33 247.28C204.467 247.28 202.983 248.005 201.877 249.457Z" fill="white"/>
<path d="M101.64 328.078V303.388H121.678V328.078H115.662L115.662 308.58H107.656V328.078H101.64Z" fill="white"/>
<path d="M130.702 324.872C128.476 322.464 127.362 319.418 127.362 315.733C127.362 312.033 128.476 308.986 130.702 306.594C132.944 304.185 135.968 302.981 139.774 302.981C143.595 302.981 146.619 304.185 148.845 306.594C151.088 308.986 152.209 312.033 152.209 315.733C152.209 319.418 151.088 322.464 148.845 324.872C146.619 327.265 143.595 328.461 139.774 328.461C135.968 328.461 132.944 327.265 130.702 324.872ZM135.321 310.374C134.215 311.825 133.663 313.612 133.663 315.733C133.663 317.855 134.215 319.641 135.321 321.092C136.426 322.544 137.91 323.27 139.774 323.27C141.653 323.27 143.137 322.544 144.227 321.092C145.332 319.641 145.885 317.855 145.885 315.733C145.885 313.612 145.332 311.825 144.227 310.374C143.137 308.923 141.653 308.197 139.774 308.197C137.91 308.197 136.426 308.923 135.321 310.374Z" fill="white"/>
<path d="M159.456 324.849C157.388 322.424 156.354 319.386 156.354 315.733C156.354 312.081 157.388 309.042 159.456 306.618C161.525 304.193 164.47 302.981 168.291 302.981C173.818 302.981 177.521 305.334 179.4 310.039L174.023 312.24C172.697 309.529 170.786 308.181 168.291 308.197C166.444 308.197 165.038 308.891 164.075 310.278C163.128 311.666 162.654 313.484 162.654 315.733C162.654 317.982 163.128 319.8 164.075 321.188C165.038 322.576 166.444 323.27 168.291 323.27C170.786 323.27 172.697 321.914 174.023 319.202L179.4 321.403C177.521 326.109 173.818 328.461 168.291 328.461C164.47 328.461 161.525 327.257 159.456 324.849Z" fill="white"/>
<path d="M182.431 328.078V322.887C183.853 322.887 184.903 322.624 185.582 322.097C186.276 321.571 186.687 320.678 186.813 319.418L188.4 303.388H206.212V328.078H200.196V308.58H193.99L192.521 321.619C192.364 323.054 192.016 324.219 191.479 325.112C190.958 326.005 190.2 326.667 189.205 327.097C188.226 327.528 187.247 327.799 186.268 327.911C185.289 328.023 184.01 328.078 182.431 328.078Z" fill="white"/>
<path d="M212.441 320.207C211.999 318.756 211.778 317.264 211.778 315.733C211.778 314.202 211.999 312.711 212.441 311.259C212.899 309.792 213.57 308.436 214.454 307.192C215.354 305.932 216.586 304.919 218.149 304.154C219.728 303.372 221.52 302.981 223.526 302.981C225.468 302.981 227.197 303.364 228.713 304.13C230.229 304.879 231.421 305.868 232.29 307.096C233.174 308.309 233.829 309.608 234.255 310.996C234.698 312.384 234.919 313.779 234.919 315.183V317.695H218.078C218.141 319.194 218.678 320.502 219.689 321.619C220.715 322.719 222.105 323.27 223.857 323.27C226.352 323.27 228.326 322.001 229.779 319.465L234.634 321.26C232.566 326.061 228.863 328.461 223.526 328.461C221.52 328.461 219.728 328.078 218.149 327.313C216.586 326.547 215.354 325.534 214.454 324.274C213.57 323.014 212.899 321.659 212.441 320.207ZM218.22 312.886H228.76C228.081 309.744 226.337 308.181 223.526 308.197C222.105 308.197 220.92 308.651 219.973 309.561C219.026 310.47 218.441 311.578 218.22 312.886Z" fill="white"/>
<path d="M238.685 300.876C239.079 298.723 240.09 296.936 241.716 295.517C243.343 294.097 245.419 293.387 247.946 293.387C250.662 293.387 252.833 294.089 254.459 295.493C256.101 296.896 256.922 298.778 256.922 301.139C256.922 302.973 256.394 304.393 255.336 305.398C254.293 306.403 252.588 307.367 250.219 308.293C248.609 308.947 247.519 309.489 246.951 309.919C246.382 310.334 246.098 310.868 246.098 311.522C246.098 312.049 246.264 312.463 246.596 312.767C246.943 313.07 247.361 313.221 247.851 313.221C249.177 313.221 250.101 312.471 250.622 310.972L254.886 312.599C254.333 314.162 253.449 315.398 252.233 316.307C251.033 317.201 249.572 317.647 247.851 317.647C245.877 317.647 244.267 317.065 243.019 315.901C241.772 314.736 241.148 313.229 241.148 311.379C241.148 308.476 242.901 306.347 246.406 304.991C248.285 304.273 249.556 303.627 250.219 303.053C250.898 302.463 251.238 301.761 251.238 300.948C251.238 300.118 250.946 299.504 250.362 299.105C249.793 298.691 249.035 298.483 248.088 298.483C245.988 298.483 244.614 299.576 243.966 301.761L238.685 300.876ZM243.824 324.346C243.824 323.198 244.219 322.225 245.009 321.427C245.798 320.63 246.746 320.231 247.851 320.231C248.956 320.231 249.904 320.638 250.693 321.451C251.483 322.249 251.877 323.214 251.877 324.346C251.877 325.463 251.491 326.412 250.717 327.193C249.943 327.975 248.988 328.365 247.851 328.365C246.714 328.365 245.759 327.975 244.985 327.193C244.211 326.412 243.824 325.463 243.824 324.346Z" fill="white"/>
<path d="M270.64 81.5469C275.133 87.7581 276.158 95.8406 274.345 103.366C273.36 102.848 272.256 102.45 271.192 102.052C267.329 100.579 263.584 98.6276 260.155 96.2785C259.248 95.6415 258.263 94.9646 257.159 94.9248C257.002 94.9248 256.844 94.9248 256.686 94.9646C256.607 93.1729 256.253 91.3813 255.78 89.6294C255.07 86.922 254.006 84.2543 252.153 82.1441C251.798 81.746 251.404 81.3478 250.971 81.0293C253.257 77.8839 255.543 74.6987 257.75 71.4736C262.875 73.8227 267.408 77.0478 270.64 81.5469Z" fill="#F8EED1"/>
<path d="M271.191 102.01C272.255 102.408 273.319 102.807 274.344 103.324C273.556 106.509 272.294 109.615 270.521 112.402C266.579 108.022 262.44 103.842 258.104 99.8602C257.198 100.696 256.331 101.572 255.424 102.408C255.976 100.856 256.409 99.263 256.606 97.6306C256.725 96.7148 256.725 95.799 256.685 94.9231C256.843 94.8833 257.001 94.8833 257.158 94.8833C258.262 94.9231 259.247 95.6 260.154 96.237C263.623 98.5861 267.328 100.537 271.191 102.01Z" fill="#0D0E0F"/>
<path d="M270.517 112.399C269.926 113.315 269.295 114.231 268.625 115.067C265.787 118.571 262.279 121.397 258.337 123.508C258.928 120.92 259.638 118.332 260.466 115.823C257.076 115.823 253.725 115.823 250.335 115.823C249.823 115.823 249.31 115.823 248.837 115.624C248.443 115.465 248.128 115.226 247.813 114.947C247.418 114.589 246.985 114.191 246.63 113.793C247.221 113.554 247.813 113.235 248.364 112.917C251.715 110.807 253.686 107.064 255.065 103.361C255.184 103.082 255.302 102.764 255.381 102.485C256.287 101.649 257.154 100.773 258.061 99.937C262.436 103.879 266.575 108.059 270.517 112.399Z" fill="#F8EED1"/>
<path d="M250.379 115.825C253.769 115.825 257.119 115.825 260.509 115.825C259.642 118.333 258.933 120.921 258.381 123.509C257.041 124.226 255.622 124.903 254.203 125.46C254.991 123.27 256.016 121.16 257.238 119.209C254.952 118.254 252.586 117.617 250.143 117.258C249.433 117.179 248.724 117.099 248.054 116.9C246.635 116.502 245.373 115.626 244.545 114.471C245.294 114.312 246.004 114.073 246.713 113.794C247.108 114.193 247.502 114.591 247.896 114.949C248.211 115.228 248.527 115.467 248.921 115.626C249.315 115.785 249.867 115.825 250.379 115.825Z" fill="#0D0E0F"/>
<path d="M252.511 69.2793C254.324 69.9163 256.098 70.633 257.832 71.4293C255.625 74.6544 253.339 77.8396 251.052 80.985C250.106 80.1887 249.042 79.5914 247.899 79.2331C249.279 75.8488 250.816 72.5441 252.511 69.2793Z" fill="#0D0E0F"/>
<path d="M256.724 94.9619C256.764 95.8777 256.764 96.7934 256.645 97.6694C256.448 99.3018 256.015 100.894 255.463 102.447C255.423 102.487 255.345 102.527 255.305 102.606C253.334 101.213 251.6 99.461 250.22 97.4305C249.669 98.2268 249.196 99.1425 248.88 100.098C248.88 99.6203 248.88 99.1425 248.88 98.6647C248.88 97.749 248.841 96.8332 248.801 95.9175C248.959 95.8777 249.077 95.8379 249.235 95.798C251.206 95.2804 253.413 95.7184 255.069 96.9129C254.911 95.9573 255.778 95.1212 256.724 94.9619Z" fill="#0D0E0F"/>
<path d="M251.052 81.0262C251.486 81.3845 251.841 81.7428 252.235 82.141C254.088 84.2114 255.152 86.9188 255.861 89.6263C256.334 91.3781 256.689 93.1698 256.768 94.9615C255.822 95.1606 254.955 95.9569 255.112 96.9124C253.457 95.718 251.25 95.28 249.279 95.7976C249.121 95.8374 249.003 95.8773 248.845 95.9171C248.687 92.7717 248.175 89.6661 246.244 87.2772C244.312 84.8484 240.449 84.0521 236.902 84.0123C235.995 83.853 235.089 83.853 234.143 84.0123C233.827 84.0521 233.512 84.1318 233.236 84.2512C233.354 82.6188 233.788 80.9864 234.458 79.4734C234.576 79.2345 234.694 78.9558 234.655 78.6771C234.616 78.5178 234.576 78.3585 234.458 78.2391C237.217 77.7613 240.095 77.7613 242.854 78.3187C243.524 78.4382 244.233 78.6372 244.864 78.916C245.889 78.8363 246.914 78.9558 247.899 79.2743C249.042 79.6326 250.106 80.2299 251.052 81.0262Z" fill="#B2AC9D"/>
<path d="M246.667 113.796C245.958 114.074 245.248 114.313 244.499 114.473C242.331 114.95 240.006 114.99 237.759 114.871C237.483 114.871 237.168 114.831 236.892 114.831C237.128 114.114 238.508 113.796 238.429 112.96C237.68 112.243 237.246 111.248 237.128 110.212C237.168 110.013 237.168 109.814 237.168 109.615C237.522 109.695 237.916 109.735 238.271 109.774C241.346 110.133 244.775 109.695 246.825 107.346C248.52 105.435 248.835 102.727 248.874 100.099C249.19 99.1437 249.623 98.2678 250.215 97.4316C251.594 99.4224 253.329 101.174 255.299 102.608C255.339 102.568 255.418 102.528 255.457 102.448C255.339 102.767 255.26 103.046 255.142 103.324C253.723 107.027 251.791 110.77 248.441 112.88C247.85 113.238 247.258 113.517 246.667 113.796Z" fill="#B2AC9D"/>
<path d="M257.202 119.171C255.98 121.122 254.955 123.232 254.167 125.422C248.924 127.492 243.169 128.487 237.493 128.368C237.769 126.258 238.282 124.148 239.031 122.157C239.188 121.719 239.385 121.281 239.385 120.803C239.385 120.445 239.307 120.126 239.188 119.808C238.715 118.335 238.006 116.901 237.099 115.627C236.981 115.468 236.863 115.309 236.823 115.109C236.823 114.99 236.823 114.91 236.863 114.791C237.139 114.831 237.454 114.831 237.73 114.831C239.977 114.95 242.302 114.91 244.47 114.433C245.337 115.627 246.599 116.503 247.978 116.861C248.648 117.06 249.358 117.1 250.067 117.22C252.551 117.578 254.916 118.255 257.202 119.171Z" fill="#F8EED1"/>
<path d="M252.508 69.2816C250.813 72.5066 249.276 75.8511 247.897 79.2354C246.911 78.9169 245.886 78.7576 244.861 78.877C244.231 78.5983 243.521 78.3993 242.851 78.2798C240.092 77.7224 237.215 77.7224 234.455 78.2002C234.376 78.0807 234.298 78.0011 234.179 77.8817C232.603 76.2492 231.026 74.6168 229.449 72.9446C230.829 70.7945 232.051 68.6047 233.115 66.2954C236.269 65.7778 239.501 65.8575 242.654 66.5343V66.4945C245.965 67.2908 249.276 68.1667 252.508 69.2816Z" fill="#F8EED1"/>
<path d="M248.877 98.6232C248.877 99.101 248.877 99.5788 248.877 100.057C248.798 100.256 248.758 100.455 248.719 100.654C245.92 100.933 243.122 101.092 240.284 101.012C239.85 100.694 239.456 100.335 239.101 99.9371C242.649 100.335 245.408 96.951 248.837 95.876C248.837 96.7917 248.877 97.7473 248.877 98.6232Z" fill="#0D0E0F"/>
<path d="M236.898 83.9722C240.445 84.012 244.308 84.8481 246.24 87.237C248.171 89.6259 248.683 92.7315 248.841 95.8769C245.451 96.9519 242.653 100.336 239.105 99.9381C239.46 100.336 239.854 100.695 240.288 101.013C243.086 101.053 245.924 100.933 248.723 100.655C248.762 100.456 248.841 100.257 248.881 100.058C248.841 102.685 248.526 105.353 246.831 107.304C244.781 109.653 241.312 110.091 238.277 109.733C237.923 109.693 237.528 109.653 237.174 109.573C237.174 109.454 237.174 109.295 237.134 109.175C237.134 109.295 237.095 109.414 237.095 109.573C233.744 109.016 230.552 107.662 227.792 105.632C227.004 105.074 226.295 104.437 225.743 103.641C225.112 102.725 224.757 101.65 224.56 100.535C226.413 101.531 228.384 102.287 230.433 102.845C231.616 101.093 232.838 99.301 234.02 97.5492C232.917 98.4649 231.774 99.3807 230.394 99.7788C229.014 100.177 227.359 99.8983 226.492 98.7436C225.861 97.9075 225.664 96.6334 224.678 96.2751C224.639 96.2353 224.56 96.2353 224.521 96.2353C224.994 92.6121 226.649 89.1482 229.29 86.6398C230.079 85.8833 230.985 85.2064 231.971 84.6888C232.247 86.0027 232.641 87.237 233.508 88.2324C233.232 86.8787 233.153 85.525 233.271 84.1712C234.336 84.0518 235.597 83.9722 236.898 83.9722Z" fill="#797873"/>
<path d="M239.185 119.808C239.303 120.126 239.382 120.445 239.382 120.803C239.382 121.281 239.185 121.719 239.027 122.157C238.239 124.148 237.727 126.218 237.49 128.368C237.214 128.368 236.978 128.368 236.702 128.328C236.032 128.289 235.362 128.249 234.692 128.209C234.692 123.789 234.494 119.33 234.061 114.911C234.061 114.751 234.021 114.632 234.021 114.473C234.967 114.592 235.914 114.712 236.86 114.791C236.82 114.871 236.82 114.99 236.82 115.11C236.86 115.309 236.978 115.468 237.096 115.627C238.003 116.901 238.712 118.335 239.185 119.808Z" fill="#0D0E0F"/>
<path d="M238.397 112.917C238.436 113.754 237.057 114.112 236.86 114.789C235.914 114.709 234.967 114.629 234.021 114.47C234.021 114.112 234.061 113.754 234.297 113.475C234.534 113.196 234.889 113.077 235.204 112.917C236.229 112.4 236.938 111.325 237.135 110.21C237.214 111.205 237.648 112.201 238.397 112.917Z" fill="#0D0E0F"/>
<path d="M237.132 109.572C237.132 109.771 237.132 109.97 237.092 110.169C237.053 109.97 237.053 109.771 237.092 109.572H237.132Z" fill="#0D0E0F"/>
<path d="M237.132 109.572C237.092 109.572 237.092 109.572 237.053 109.572C237.053 109.453 237.053 109.333 237.092 109.174C237.132 109.333 237.132 109.453 237.132 109.572Z" fill="#0D0E0F"/>
<path d="M237.096 109.576C237.096 109.775 237.096 109.974 237.096 110.173C236.899 111.328 236.189 112.363 235.164 112.88C234.849 113.04 234.494 113.159 234.258 113.438C234.021 113.716 233.982 114.075 233.982 114.433C230.158 113.876 226.414 112.761 223.181 110.651C220.501 108.899 218.254 106.39 216.953 103.484C217.86 103.922 218.688 104.479 219.397 105.196C219.594 105.395 219.792 105.634 220.067 105.634C220.462 105.674 220.738 105.276 220.935 104.917C221.841 103.285 222.748 101.652 223.615 100.02C223.93 100.179 224.206 100.378 224.522 100.538C224.719 101.652 225.073 102.727 225.704 103.643C226.256 104.44 227.005 105.037 227.754 105.634C230.552 107.665 233.745 109.018 237.096 109.576Z" fill="#B2AC9D"/>
<path d="M236.902 83.9738C235.601 83.9738 234.34 84.0534 233.236 84.1728C233.551 84.0932 233.827 84.0136 234.143 83.9339C235.049 83.8145 235.995 83.8543 236.902 83.9738Z" fill="#797873"/>
<path d="M234.651 78.6357C234.69 78.9144 234.572 79.1931 234.454 79.432C233.784 80.945 233.35 82.5376 233.232 84.2099C232.798 84.3293 232.365 84.5284 231.931 84.7275C231.655 83.2941 231.498 81.7413 231.025 80.3478C230.906 80.0293 230.788 79.6709 230.473 79.5117C230.355 79.432 230.236 79.3922 230.118 79.3922C231.537 78.8348 232.995 78.4366 234.454 78.1978C234.572 78.3172 234.651 78.4765 234.651 78.6357Z" fill="#0D0E0F"/>
<path d="M234.222 77.8805C234.301 77.9601 234.419 78.0795 234.498 78.199C233 78.4777 231.542 78.8758 230.162 79.3934C230.005 79.3536 229.847 79.3536 229.689 79.3536C226.969 79.3536 224.25 79.3138 221.53 79.3138C220.702 76.8453 221.609 74.1776 222.2 71.6693C222.318 71.2313 222.397 70.7933 222.436 70.3156C225.708 68.3248 229.334 66.9313 233.079 66.2942C233.118 66.2942 233.158 66.2942 233.197 66.2544C232.133 68.5637 230.911 70.7535 229.532 72.9035C231.069 74.6156 232.645 76.248 234.222 77.8805Z" fill="#0D0E0F"/>
<path d="M234.017 114.949C234.45 119.369 234.647 123.788 234.647 128.248C227.789 127.65 220.93 125.381 216.121 120.484C213.204 117.498 211.155 113.715 209.815 109.773C209.145 107.822 208.632 105.792 208.317 103.761C210.958 102.368 214.269 102.288 216.989 103.562C218.289 106.469 220.536 108.977 223.216 110.729C226.449 112.839 230.193 113.954 234.017 114.511C234.017 114.631 234.017 114.79 234.017 114.949Z" fill="#F8EED1"/>
<path d="M234.021 97.5912C232.838 99.3431 231.616 101.135 230.434 102.887C228.384 102.329 226.413 101.573 224.561 100.577C224.521 100.259 224.482 99.9403 224.442 99.6218C224.324 98.507 224.364 97.3922 224.521 96.2773C224.561 96.2773 224.639 96.3172 224.679 96.3172C225.664 96.6755 225.861 97.9496 226.492 98.7857C227.359 99.9403 229.015 100.219 230.394 99.8209C231.774 99.4227 232.917 98.507 234.021 97.5912Z" fill="#0D0E0F"/>
<path d="M233.232 84.2124C233.113 85.5661 233.192 86.9597 233.468 88.2736C232.561 87.2782 232.167 86.0439 231.931 84.73C232.325 84.5309 232.759 84.3318 233.232 84.2124Z" fill="#0D0E0F"/>
<path d="M231.025 80.3894C231.498 81.7829 231.617 83.2959 231.932 84.7691C230.947 85.2867 230.079 85.9635 229.252 86.72C226.611 89.2284 224.916 92.6923 224.482 96.3155C224.167 96.2359 223.851 96.2757 223.536 96.2757C220.974 96.4747 218.412 96.634 215.85 96.9127C216.047 95.0812 216.599 93.2895 217.348 91.6173C217.781 90.6617 218.294 89.7062 218.845 88.8302C219.082 88.7108 219.318 88.6311 219.555 88.5913C219.476 88.4321 219.397 88.2728 219.318 88.1135C221.486 84.9283 224.443 82.2607 227.833 80.5088C228.581 80.1107 229.33 79.7922 230.119 79.4736C230.237 79.5134 230.355 79.5533 230.473 79.5931C230.789 79.7125 230.907 80.0709 231.025 80.3894Z" fill="#B2AC9D"/>
<path d="M229.646 79.3969C229.804 79.3969 229.961 79.397 230.119 79.4368C229.331 79.7553 228.582 80.0738 227.833 80.472C224.443 82.2637 221.487 84.8915 219.319 88.0767C217.545 84.4933 216.086 80.7109 214.943 76.8886C217.032 74.3006 219.595 72.1108 222.393 70.3589C222.314 70.8367 222.236 71.2746 222.157 71.7126C221.565 74.2608 220.659 76.8886 221.487 79.3571C224.206 79.3571 226.926 79.3571 229.646 79.3969Z" fill="#F8EED1"/>
<path d="M224.436 99.6206C224.476 99.9392 224.515 100.258 224.554 100.576C224.239 100.417 223.963 100.258 223.648 100.059C222.741 101.691 221.835 103.323 220.967 104.956C220.77 105.314 220.495 105.712 220.1 105.673C219.824 105.673 219.588 105.434 219.43 105.235C218.721 104.518 217.893 103.96 216.986 103.523C216.198 101.771 215.764 99.8993 215.804 97.9484C215.804 97.5901 215.843 97.2317 215.883 96.9132C218.445 96.6345 221.007 96.4354 223.569 96.2762C223.884 96.2363 224.2 96.2363 224.515 96.316C224.357 97.391 224.318 98.5058 224.436 99.6206Z" fill="#0D0E0F"/>
<path d="M219.324 88.0728C219.403 88.232 219.481 88.3913 219.56 88.5505C219.324 88.5904 219.087 88.67 218.851 88.7894C219.008 88.5505 219.166 88.3116 219.324 88.0728Z" fill="#B2AC9D"/>
<path d="M219.315 88.0746C219.158 88.3135 219 88.5524 218.842 88.7913C218.29 89.0301 217.778 89.4283 217.384 89.8663C215.61 86.8005 213.955 83.6551 212.496 80.3902C212.93 79.6337 213.442 78.8773 213.955 78.1606C214.27 77.7226 214.625 77.2846 214.94 76.8467C216.083 80.7088 217.542 84.4514 219.315 88.0746Z" fill="#0D0E0F"/>
<path d="M217.385 89.8632C217.779 89.3855 218.292 89.0271 218.844 88.7882C218.292 89.704 217.779 90.6197 217.346 91.5753C216.597 93.2475 216.045 95.0392 215.848 96.8707C213.168 97.1494 210.487 97.5476 207.846 98.105C207.807 91.8938 209.344 85.6826 212.458 80.3872C213.956 83.6521 215.572 86.7975 217.385 89.8632Z" fill="#F8EED1"/>
<path d="M215.848 96.9116C215.809 97.27 215.809 97.6283 215.769 97.9468C215.73 99.8978 216.163 101.769 216.952 103.521C214.271 102.247 210.921 102.326 208.28 103.72C208.004 101.889 207.846 100.017 207.807 98.1459C210.487 97.5487 213.168 97.1903 215.848 96.9116Z" fill="#0D0E0F"/>
<path d="M57.3117 415.716C53.0941 409.902 52.1481 402.298 53.843 395.29C54.789 395.768 55.7744 396.126 56.7993 396.525C60.4257 397.918 63.8944 399.75 67.1266 401.939C67.9937 402.537 68.9003 403.174 69.9252 403.214C70.0828 403.214 70.2011 403.214 70.3588 403.174C70.4376 404.846 70.7529 406.518 71.1865 408.151C71.8566 410.699 72.8815 413.167 74.5764 415.158C74.8917 415.556 75.2859 415.875 75.6801 416.233C73.5121 419.179 71.3836 422.166 69.3339 425.192C64.6039 422.962 60.3862 419.936 57.3117 415.716Z" fill="#F8EED1"/>
<path d="M56.8008 396.564C55.8153 396.165 54.7905 395.807 53.8445 395.329C54.554 392.343 55.7759 389.437 57.4314 386.849C61.1366 390.95 64.9995 394.851 69.0595 398.594C69.8872 397.798 70.715 397.002 71.5428 396.205C71.0303 397.639 70.5967 399.152 70.4391 400.665C70.3208 401.501 70.3208 402.377 70.3602 403.213C70.2026 403.253 70.0843 403.253 69.9267 403.253C68.9018 403.213 67.9952 402.576 67.128 401.978C63.8958 399.749 60.4271 397.957 56.8008 396.564Z" fill="#0D0E0F"/>
<path d="M57.4297 386.849C57.9815 385.973 58.5728 385.137 59.2035 384.341C61.8444 381.076 65.1554 378.448 68.8212 376.458C68.2694 378.886 67.5993 381.315 66.811 383.664C69.9643 383.664 73.1177 383.664 76.2711 383.664C76.7441 383.664 77.2565 383.664 77.6901 383.863C78.0448 384.022 78.3602 384.261 78.6361 384.5C79.0303 384.859 79.385 385.217 79.7398 385.575C79.1879 385.814 78.6361 386.093 78.1237 386.411C74.9703 388.362 73.1571 391.866 71.8169 395.37C71.6987 395.648 71.6198 395.927 71.5016 396.206C70.6738 397.002 69.8461 397.798 69.0183 398.595C64.9978 394.852 61.1349 390.91 57.4297 386.849Z" fill="#F8EED1"/>
<path d="M76.3122 383.665C73.1588 383.665 70.0054 383.665 66.8521 383.665C67.6404 381.315 68.3105 378.887 68.8623 376.458C70.1237 375.781 71.4244 375.184 72.7646 374.626C72.0157 376.657 71.0697 378.648 69.9266 380.479C72.0551 381.355 74.3019 381.992 76.5487 382.271C77.2187 382.351 77.8494 382.43 78.5195 382.59C79.8203 382.948 81.0028 383.784 81.8306 384.859C81.121 385.018 80.4509 385.217 79.7809 385.496C79.4261 385.138 79.0714 384.779 78.6772 384.421C78.4013 384.182 78.0859 383.903 77.7312 383.784C77.2976 383.665 76.7852 383.665 76.3122 383.665Z" fill="#0D0E0F"/>
<path d="M74.304 427.18C72.609 426.583 70.9535 425.906 69.3374 425.149C71.4265 422.123 73.5156 419.177 75.6836 416.191C76.5507 416.908 77.5756 417.505 78.6004 417.863C77.3391 421.048 75.9201 424.154 74.304 427.18Z" fill="#0D0E0F"/>
<path d="M70.3561 403.174C70.3167 402.338 70.3167 401.462 70.4349 400.626C70.5926 399.113 71.0262 397.6 71.5386 396.166C71.578 396.127 71.6174 396.087 71.6963 396.047C73.5489 397.361 75.165 398.993 76.4657 400.865C77.0176 400.108 77.4118 399.272 77.7271 398.356C77.7271 398.794 77.7271 399.272 77.7271 399.71C77.7271 400.546 77.7271 401.422 77.8059 402.258C77.6877 402.298 77.53 402.338 77.4118 402.377C75.5591 402.855 73.5095 402.457 71.9328 401.302C72.051 402.218 71.2233 403.015 70.3561 403.174Z" fill="#0D0E0F"/>
<path d="M75.6819 416.232C75.2877 415.913 74.933 415.555 74.5782 415.157C72.8439 413.206 71.8584 410.697 71.1884 408.149C70.7548 406.517 70.4394 404.845 70.3606 403.172C71.2672 403.013 72.0555 402.217 71.8979 401.341C73.4745 402.456 75.5242 402.854 77.3768 402.416C77.4951 402.376 77.6528 402.336 77.771 402.296C77.9287 405.243 78.4017 408.149 80.2149 410.379C82.0281 412.648 85.615 413.405 88.9655 413.445C89.8326 413.564 90.6604 413.604 91.5276 413.445C91.8035 413.405 92.1188 413.325 92.3948 413.246C92.2765 414.798 91.8823 416.311 91.2517 417.705C91.1334 417.944 91.0152 418.183 91.0546 418.461C91.094 418.621 91.1334 418.74 91.2517 418.86C88.6501 419.337 85.9698 419.298 83.3682 418.78C82.7376 418.66 82.1069 418.501 81.5156 418.222C80.5696 418.302 79.5842 418.183 78.6776 417.864C77.5739 417.546 76.5491 416.948 75.6819 416.232Z" fill="#B2AC9D"/>
<path d="M79.7783 385.535C80.4484 385.257 81.1185 385.058 81.828 384.898C83.8777 384.421 86.0456 384.421 88.1348 384.54C88.4107 384.54 88.6866 384.58 88.9625 384.58C88.7654 385.257 87.4647 385.575 87.5041 386.332C88.2136 387.009 88.6078 387.924 88.726 388.88C88.6866 389.079 88.6866 389.238 88.6866 389.437C88.3318 389.397 88.0165 389.318 87.6617 389.278C84.7843 388.959 81.5521 389.358 79.6207 391.547C78.044 393.339 77.7286 395.848 77.6892 398.316C77.4133 399.192 76.9797 400.028 76.4279 400.824C75.1271 398.953 73.511 397.321 71.6584 396.007C71.619 396.047 71.5796 396.086 71.5007 396.126C71.619 395.848 71.6978 395.569 71.8161 395.29C73.1168 391.826 74.9694 388.283 78.1228 386.332C78.6746 386.053 79.2265 385.774 79.7783 385.535Z" fill="#B2AC9D"/>
<path d="M69.9276 380.479C71.0707 378.648 72.0561 376.657 72.7656 374.626C77.6928 372.675 83.0535 371.76 88.3748 371.879C88.1383 373.87 87.6653 375.821 86.9164 377.692C86.7587 378.09 86.6011 378.528 86.5616 378.966C86.5616 379.285 86.6405 379.603 86.7587 379.882C87.1923 381.275 87.8624 382.589 88.7296 383.784C88.8478 383.943 88.9661 384.102 89.0055 384.262C89.0055 384.381 89.0055 384.461 89.0055 384.54C88.7296 384.5 88.4537 384.5 88.1777 384.5C86.0886 384.381 83.9207 384.421 81.871 384.859C81.0827 383.744 79.9001 382.908 78.56 382.589C77.9293 382.43 77.2592 382.35 76.5891 382.271C74.3029 381.992 72.0561 381.395 69.9276 380.479Z" fill="#F8EED1"/>
<path d="M74.3003 427.182C75.9164 424.156 77.3354 421.05 78.6362 417.865C79.5428 418.184 80.4888 418.303 81.4742 418.224C82.0655 418.502 82.6961 418.662 83.3268 418.781C85.9283 419.299 88.6087 419.299 91.2102 418.861C91.2891 418.98 91.3679 419.06 91.4467 419.139C92.9052 420.692 94.403 422.205 95.8614 423.758C94.6001 425.749 93.457 427.819 92.4322 429.969C89.4759 430.447 86.4408 430.407 83.5239 429.73V429.77C80.4099 429.093 77.296 428.257 74.3003 427.182Z" fill="#F8EED1"/>
<path d="M77.6841 399.75C77.6841 399.312 77.6841 398.834 77.6841 398.396C77.7629 398.197 77.8023 398.038 77.8417 397.839C80.4433 397.56 83.0842 397.441 85.7252 397.52C86.1193 397.799 86.5135 398.157 86.8683 398.516C83.5572 398.157 80.9557 401.303 77.7629 402.298C77.7235 401.422 77.6841 400.586 77.6841 399.75Z" fill="#0D0E0F"/>
<path d="M85.7252 397.483C83.0842 397.444 80.4433 397.523 77.8417 397.802C77.8023 398.001 77.7235 398.16 77.6841 398.359C77.7235 395.891 78.0388 393.382 79.6155 391.591C81.547 389.401 84.7792 389.003 87.6566 389.321C88.0114 389.361 88.3267 389.401 88.6815 389.48C88.6815 389.6 88.6815 389.719 88.7209 389.839C88.7209 389.719 88.7603 389.6 88.7603 389.48C91.8742 390.038 94.8699 391.272 97.4715 393.183C98.181 393.701 98.8905 394.298 99.4029 395.015C99.9942 395.851 100.31 396.886 100.507 397.921C98.7722 397.006 96.9196 396.249 95.0276 395.771C93.8845 397.444 92.7808 399.076 91.6377 400.748C92.6626 399.912 93.7663 399.036 95.0276 398.638C96.3284 398.28 97.8656 398.519 98.6934 399.594C99.2847 400.39 99.4817 401.584 100.388 401.903C100.428 401.943 100.507 401.943 100.546 401.943C100.112 405.327 98.5357 408.552 96.0919 410.901C95.3429 411.618 94.5152 412.255 93.6086 412.733C93.3721 411.498 92.9779 410.344 92.1502 409.428C92.4261 410.662 92.5049 411.976 92.3867 413.25C91.3618 413.37 90.1793 413.489 88.9574 413.449C85.6463 413.409 82.02 412.653 80.2068 410.383C78.3936 408.154 77.9206 405.247 77.7629 402.301C80.9557 401.306 83.5572 398.12 86.8683 398.519C86.5135 398.12 86.1588 397.762 85.7252 397.483Z" fill="#797873"/>
<path d="M86.7557 379.922C86.6768 379.604 86.5586 379.325 86.5586 379.007C86.5586 378.569 86.7163 378.131 86.9133 377.732C87.6229 375.861 88.1353 373.91 88.3718 371.919C88.6083 371.919 88.8842 371.919 89.1207 371.959C89.7514 371.999 90.382 372.039 91.0127 372.079C91.0127 376.219 91.2098 380.4 91.604 384.541C91.604 384.66 91.6434 384.82 91.6434 384.939C90.7368 384.82 89.8696 384.74 88.963 384.66C89.0025 384.581 89.0025 384.461 88.963 384.382C88.9236 384.183 88.8054 384.023 88.6871 383.904C87.8594 382.63 87.1893 381.316 86.7557 379.922Z" fill="#0D0E0F"/>
<path d="M87.5 386.371C87.4606 385.575 88.722 385.256 88.9585 384.619C89.8651 384.699 90.7323 384.778 91.6388 384.898C91.6388 385.256 91.5994 385.575 91.4023 385.853C91.2053 386.132 90.8505 386.252 90.5352 386.411C89.5892 386.889 88.9191 387.884 88.722 388.959C88.6431 387.964 88.2096 387.008 87.5 386.371Z" fill="#0D0E0F"/>
<path d="M88.6895 389.478C88.6895 389.279 88.6895 389.12 88.7283 388.921C88.7283 389.12 88.7671 389.279 88.7283 389.478H88.6895Z" fill="#0D0E0F"/>
<path d="M88.6895 389.476H88.7283C88.7283 389.596 88.7283 389.715 88.6895 389.834C88.6895 389.715 88.6895 389.596 88.6895 389.476Z" fill="#0D0E0F"/>
<path d="M88.7278 389.478C88.7278 389.279 88.7278 389.08 88.7278 388.921C88.8855 387.846 89.5555 386.851 90.541 386.373C90.8563 386.214 91.1716 386.094 91.4081 385.815C91.6052 385.537 91.6446 385.218 91.6446 384.86C95.2316 385.377 98.7397 386.413 101.775 388.403C104.258 390.036 106.387 392.425 107.609 395.132C106.781 394.734 105.992 394.216 105.322 393.54C105.125 393.341 104.928 393.141 104.692 393.141C104.337 393.141 104.061 393.5 103.903 393.818C103.076 395.331 102.208 396.884 101.381 398.397C101.105 398.238 100.829 398.079 100.553 397.919C100.395 396.884 100.04 395.889 99.4492 395.013C98.9368 394.296 98.2273 393.699 97.5178 393.181C94.8768 391.31 91.8812 390.036 88.7278 389.478Z" fill="#B2AC9D"/>
<path d="M88.9231 413.448C90.145 413.448 91.3275 413.368 92.3524 413.249C92.0765 413.328 91.8005 413.408 91.4852 413.448C90.6574 413.607 89.7903 413.567 88.9231 413.448Z" fill="#797873"/>
<path d="M91.0115 418.462C90.9721 418.183 91.0904 417.944 91.2086 417.705C91.8393 416.312 92.2334 414.799 92.3517 413.246C92.7853 413.127 93.1795 412.928 93.5736 412.729C93.8495 414.082 93.9678 415.516 94.4014 416.83C94.5196 417.148 94.6379 417.467 94.9138 417.626C95.0321 417.705 95.1503 417.745 95.2686 417.745C93.9678 418.263 92.5882 418.621 91.2086 418.86C91.0904 418.741 91.0115 418.581 91.0115 418.462Z" fill="#0D0E0F"/>
<path d="M91.4498 419.14C91.3709 419.06 91.2527 418.941 91.2133 418.861C92.5929 418.623 93.9725 418.224 95.2732 417.747C95.4309 417.786 95.5886 417.786 95.7462 417.786C98.2689 417.786 100.831 417.786 103.354 417.826C104.142 420.136 103.275 422.604 102.723 424.993C102.644 425.391 102.565 425.829 102.487 426.267C99.4514 428.138 96.0221 429.452 92.5534 430.01C92.514 430.01 92.4746 430.01 92.4352 430.05C93.46 427.899 94.6031 425.829 95.8645 423.838C94.3666 422.206 92.9082 420.693 91.4498 419.14Z" fill="#0D0E0F"/>
<path d="M91.5991 384.46C91.2049 380.319 91.0078 376.178 91.0078 371.998C97.4328 372.555 103.858 374.665 108.351 379.244C111.111 382.031 113.003 385.575 114.264 389.277C114.895 391.109 115.368 392.98 115.644 394.931C113.2 396.245 110.046 396.285 107.524 395.09C106.302 392.383 104.213 389.994 101.69 388.362C98.6547 386.371 95.1466 385.336 91.5597 384.818C91.6385 384.738 91.5991 384.619 91.5991 384.46Z" fill="#F8EED1"/>
<path d="M91.6021 400.705C92.7451 399.033 93.8488 397.4 94.9919 395.728C96.8839 396.246 98.7365 396.962 100.471 397.878C100.51 398.157 100.55 398.475 100.589 398.754C100.668 399.789 100.668 400.864 100.55 401.899C100.51 401.899 100.431 401.86 100.392 401.86C99.4855 401.541 99.2884 400.347 98.6971 399.55C97.9088 398.475 96.3321 398.197 95.0313 398.595C93.7306 398.993 92.6269 399.869 91.6021 400.705Z" fill="#0D0E0F"/>
<path d="M92.3521 413.25C92.4704 411.976 92.3915 410.702 92.1156 409.428C92.9434 410.343 93.2981 411.498 93.574 412.732C93.1799 412.931 92.7857 413.091 92.3521 413.25Z" fill="#0D0E0F"/>
<path d="M94.4056 416.829C93.9721 415.515 93.8538 414.081 93.5779 412.728C94.4845 412.25 95.3122 411.613 96.0612 410.896C98.505 408.547 100.121 405.322 100.515 401.938C100.791 402.017 101.107 401.978 101.382 401.978C103.787 401.818 106.191 401.619 108.596 401.38C108.438 403.092 107.886 404.765 107.177 406.357C106.783 407.273 106.31 408.149 105.758 408.985C105.561 409.065 105.324 409.144 105.088 409.224C105.167 409.383 105.245 409.503 105.324 409.662C103.314 412.648 100.555 415.117 97.3619 416.789C96.6524 417.147 95.9429 417.466 95.194 417.744C95.0757 417.705 94.9575 417.705 94.8392 417.625C94.6421 417.426 94.5239 417.107 94.4056 416.829Z" fill="#B2AC9D"/>
<path d="M95.7044 417.747C95.5468 417.747 95.3891 417.747 95.2314 417.707C95.9804 417.428 96.6899 417.11 97.3994 416.751C100.592 415.079 103.351 412.611 105.362 409.625C107.017 413.009 108.397 416.513 109.461 420.096C107.49 422.525 105.125 424.595 102.484 426.188C102.524 425.75 102.602 425.351 102.721 424.914C103.273 422.525 104.1 420.056 103.351 417.747C100.789 417.787 98.2666 417.747 95.7044 417.747Z" fill="#F8EED1"/>
<path d="M100.591 398.793C100.551 398.515 100.512 398.196 100.472 397.917C100.748 398.077 101.024 398.236 101.3 398.395C102.128 396.882 102.995 395.329 103.823 393.816C104.02 393.498 104.256 393.14 104.611 393.14C104.887 393.14 105.084 393.379 105.242 393.538C105.912 394.215 106.661 394.732 107.528 395.13C108.277 396.763 108.671 398.555 108.632 400.346C108.632 400.665 108.592 400.983 108.592 401.342C106.188 401.58 103.783 401.78 101.379 401.939C101.103 401.979 100.788 401.979 100.512 401.899C100.67 400.904 100.669 399.868 100.591 398.793Z" fill="#0D0E0F"/>
<path d="M105.366 409.624C105.287 409.464 105.208 409.345 105.129 409.186C105.366 409.146 105.563 409.066 105.799 408.947C105.681 409.186 105.523 409.385 105.366 409.624Z" fill="#B2AC9D"/>
<path d="M105.361 409.623C105.518 409.384 105.637 409.185 105.794 408.946C106.307 408.707 106.78 408.349 107.174 407.911C108.869 410.778 110.367 413.724 111.746 416.79C111.313 417.507 110.879 418.183 110.367 418.86C110.051 419.258 109.736 419.696 109.421 420.095C108.396 416.511 107.016 413.008 105.361 409.623Z" fill="#0D0E0F"/>
<path d="M107.173 407.911C106.779 408.349 106.306 408.707 105.794 408.946C106.306 408.11 106.779 407.234 107.213 406.318C107.922 404.725 108.435 403.053 108.632 401.341C111.154 401.062 113.638 400.704 116.121 400.187C116.16 406 114.741 411.813 111.785 416.79C110.406 413.764 108.868 410.817 107.173 407.911Z" fill="#F8EED1"/>
<path d="M108.635 401.342C108.674 401.023 108.674 400.705 108.674 400.346C108.713 398.515 108.28 396.763 107.57 395.13C110.093 396.325 113.207 396.245 115.69 394.971C115.966 396.683 116.124 398.435 116.124 400.187C113.641 400.744 111.118 401.103 108.635 401.342Z" fill="#0D0E0F"/>
</svg>
