<svg width="330" height="500" viewBox="0 0 330 500" fill="none" xmlns="http://www.w3.org/2000/svg">
<path d="M330 60C330 26.8629 303.137 0 270 0H60C26.8629 0 0 26.8629 0 60V440C0 473.137 26.8629 500 60 500H270C303.137 500 330 473.137 330 440V60Z" fill="white"/>
<path d="M244.556 457.889H85.4452C54.7746 457.889 29.9404 432.908 29.9404 402.145V104.581C29.9012 73.7784 54.7746 48.7979 85.4452 48.7979H244.556C275.227 48.7979 300.061 73.7784 300.061 104.542V402.105C300.061 432.948 275.188 457.889 244.556 457.889Z" fill="#D34D4B"/>
<path d="M69.1839 202.439V253.273H78.8661V188.575H74.9384L57.2183 199.297V209.648L69.1839 202.439Z" fill="black"/>
<path d="M93.1746 236.359C94.5447 247.727 102.4 254.012 113.087 254.012C125.692 254.012 133.456 244.862 133.456 232.2C133.456 219.723 126.514 210.388 113.635 210.388C110.073 210.388 106.51 211.774 104.318 213.623L106.236 197.448H129.894V188.575H98.107L94.5447 224.621L100.847 225.915C103.861 221.848 108.246 219.261 113.087 219.261C120.394 219.261 123.774 224.529 123.774 232.2C123.774 239.964 120.029 245.14 113.087 245.14C107.972 245.14 103.679 242.274 102.583 234.603L93.1746 236.359Z" fill="black"/>
<path d="M146.984 246.896C146.984 250.87 149.998 253.735 153.743 253.735C157.488 253.735 160.502 250.87 160.502 246.896C160.502 242.921 157.488 240.056 153.743 240.056C149.998 240.056 146.984 242.921 146.984 246.896ZM146.984 217.042C146.984 221.017 149.998 223.882 153.743 223.882C157.488 223.882 160.502 221.017 160.502 217.042C160.502 213.068 157.488 210.203 153.743 210.203C149.998 210.203 146.984 213.068 146.984 217.042Z" fill="black"/>
<path d="M174.145 220.924C174.145 241.258 182.092 254.012 197.163 254.012C212.234 254.012 220.181 241.258 220.181 220.924C220.181 200.591 212.234 187.836 197.163 187.836C182.092 187.836 174.145 200.591 174.145 220.924ZM183.827 220.924C183.827 205.766 188.12 196.709 197.163 196.709C206.206 196.709 210.499 205.766 210.499 220.924C210.499 236.082 206.206 245.14 197.163 245.14C188.12 245.14 183.827 236.082 183.827 220.924Z" fill="black"/>
<path d="M230.073 220.924C230.073 241.258 238.02 254.012 253.091 254.012C268.163 254.012 276.109 241.258 276.109 220.924C276.109 200.591 268.163 187.836 253.091 187.836C238.02 187.836 230.073 200.591 230.073 220.924ZM239.756 220.924C239.756 205.766 244.049 196.709 253.091 196.709C262.134 196.709 266.427 205.766 266.427 220.924C266.427 236.082 262.134 245.14 253.091 245.14C244.049 245.14 239.756 236.082 239.756 220.924Z" fill="black"/>
<path d="M66.8657 66.8467C57.8669 66.8467 50.5653 74.4754 50.5653 83.8921C50.5653 93.3089 57.8669 100.938 66.8657 100.938C75.8645 100.938 83.1661 93.3089 83.1661 83.8921C83.1661 74.4754 75.8645 66.8467 66.8657 66.8467ZM61.1823 96.5272H58.7747V75.8263H56.6829V73.4424H61.1823V96.5272ZM70.4573 96.9643C66.9841 96.9643 64.0635 94.62 63.0373 91.3222L65.2475 90.5275C65.9579 92.8718 67.9708 94.5803 70.4573 94.5803C73.4964 94.5803 75.9434 91.9579 75.9434 88.7793C75.9434 85.6007 73.5359 82.9783 70.4573 82.9783C69.0365 82.9783 68.3655 83.1769 67.6156 83.4948L66.4316 81.2698L72.0755 75.7469H64.9712V73.3629H76.0224V75.2701L70.0232 80.9122L70.6152 80.8327C74.9172 80.8327 78.351 84.21 78.351 88.7396C78.3115 93.3089 74.7594 96.9643 70.4573 96.9643Z" fill="#0E0F0F"/>
<path d="M265.131 433.826C274.129 433.826 281.431 426.347 281.431 417.115C281.431 407.883 274.129 400.404 265.131 400.404C256.132 400.404 248.83 407.883 248.83 417.115C248.83 426.347 256.132 433.826 265.131 433.826ZM270.814 404.767H273.222V425.062H275.313V427.399H270.814V404.767ZM261.539 404.299C265.012 404.299 267.933 406.597 268.959 409.831L266.749 410.61C266.038 408.311 264.025 406.636 261.539 406.636C258.5 406.636 256.053 409.207 256.053 412.324C256.053 415.44 258.46 418.011 261.539 418.011C262.96 418.011 263.631 417.816 264.381 417.505L265.565 419.686L259.921 425.101H267.025V427.438H255.974V425.568L261.973 420.037L261.381 420.114C257.079 420.114 253.645 416.803 253.645 412.363C253.685 407.883 257.237 404.299 261.539 404.299Z" fill="#0E0F0F"/>
<path d="M269.756 80.2545C269.523 81.1456 269.212 82.0368 268.902 82.8874C269.018 80.0925 267.582 77.7431 265.447 76.1228C265.02 73.0443 264.593 70.0063 264.166 66.9278C264.127 66.7658 264.088 66.5633 263.972 66.4823C263.7 66.3202 263.428 66.6038 263.273 66.8873C261.915 69.1152 260.634 71.3836 259.43 73.7329C257.217 73.4899 255.044 73.9355 253.491 75.1912C255.82 69.9253 258.77 64.9835 262.225 60.4468C262.497 60.1228 262.769 59.7582 263.118 59.5962C263.894 59.2721 264.748 59.7582 265.408 60.2848C268.475 62.8367 270.222 66.8063 270.688 70.8975C270.998 74.057 270.571 77.2165 269.756 80.2545Z" fill="black"/>
<path d="M260.871 89.6012C260.202 89.1334 259.375 88.6656 258.627 88.2758C257.367 87.6911 256.029 87.3403 254.651 87.2233C252.8 87.0674 250.91 87.3013 249.139 87.964C247.8 88.4707 246.54 89.3283 245.438 90.3418C244.021 91.6671 242.879 93.3433 242.131 95.0584C242.367 95.5652 242.682 96.0719 242.761 96.1889C243.391 97.1634 244.296 97.904 245.32 98.4108C246.422 98.9565 247.722 99.2294 248.942 99.2294C251.344 99.1904 253.666 98.1379 255.556 96.6566C256.343 96.0719 257.052 95.3703 257.721 94.6686C259.06 93.1874 260.123 91.4722 260.871 89.6012ZM238.43 107.337C239.493 106.129 240.399 104.804 241.186 103.439C239.257 103.244 237.367 103.673 235.477 104.141C236.383 105.31 237.367 106.402 238.43 107.337ZM208.037 87.1064C207.879 86.1709 207.761 85.2353 207.643 84.2608C207.682 84.3778 207.722 84.4947 207.761 84.6116C208.509 87.7301 209.572 90.8096 210.871 93.7331C210.005 90.6536 208.706 87.6911 207.761 84.6116C207.722 84.4167 207.682 84.2218 207.604 84.0269C207.328 82.8185 207.092 81.6101 206.895 80.4017C206.777 77.5951 207.131 74.7885 207.919 72.1379C206.934 73.9699 206.541 76.0359 206.58 78.1409C206.186 74.5157 206.147 70.8905 206.462 67.2653C206.501 66.8365 206.58 66.3298 206.974 66.1738C207.249 66.2128 207.486 66.2128 207.761 66.2518C207.84 66.2908 207.958 66.3298 208.037 66.4077C212.407 68.8635 216.974 71.4362 220.202 75.1783C220.832 76.0359 221.501 76.9325 222.131 77.79C221.541 76.8545 220.911 75.9969 220.202 75.1783C219.218 73.853 218.233 72.5277 217.289 71.2413C216.698 70.4617 216.108 69.6431 215.478 68.9025C215.793 69.1364 216.108 69.3702 216.423 69.6041C219.021 71.7091 221.186 74.2818 223.312 76.8935C223.548 77.1664 223.745 77.4392 223.981 77.7121L224.06 77.907C227.879 76.2698 232.328 75.958 236.54 75.919C238.509 75.88 240.438 75.919 242.407 75.9969C242.407 75.9969 242.407 75.9969 242.446 75.9969C245.792 76.1139 249.099 76.3478 252.407 76.6986C252.603 76.6986 252.8 76.7376 252.997 76.7765C253.273 76.8155 253.548 76.8155 253.824 76.8545C253.548 76.8155 253.273 76.7765 252.997 76.7765C253.194 76.3088 253.391 75.88 253.627 75.4122C255.202 74.1648 257.406 73.775 259.651 74.0089C258.981 75.2563 258.312 76.5427 257.682 77.829C259.926 79.1154 262.013 80.7526 263.784 82.6236C264.414 83.2863 265.32 83.988 266.068 83.5202C266.658 83.1304 266.658 82.2728 266.54 81.5322C266.265 79.778 266.028 78.0629 265.753 76.3088C267.918 77.868 269.375 80.1289 269.257 82.8185C269.572 81.9999 269.847 81.1424 270.123 80.2848C269.493 87.6911 268.627 95.1754 266.068 102.153C264.729 105.778 262.918 109.247 260.674 112.405C256.225 118.603 249.729 123.748 242.131 124.801C232.013 126.204 222.013 119.928 216.383 111.469C211.541 104.141 209.336 95.6431 208.037 87.1064ZM218.588 80.1289L218.43 80.0119C216.698 77.7511 214.887 75.5681 213.076 73.3852C212.446 72.6446 211.737 71.826 210.793 71.6701C210.556 71.6311 210.32 71.6311 210.123 71.7481C209.69 71.9819 209.69 72.5666 209.73 73.0344C210.163 78.1019 210.871 83.1304 211.816 88.1589C211.816 88.2368 211.856 88.3148 211.895 88.3928C212.131 88.7046 212.564 88.3538 212.761 88.0419C214.493 85.2353 216.462 82.5847 218.588 80.1289ZM216.068 93.3043C216.186 93.1484 216.304 92.9925 216.462 92.8365C216.501 92.8755 216.501 92.9145 216.501 92.9535C217.525 94.9805 218.942 96.8905 220.753 98.2938C221.462 98.8396 222.21 99.3463 223.037 99.7361C225.911 101.1 229.493 101.217 232.21 99.5802C232.879 99.1904 233.47 98.7226 234.021 98.2159C234.651 97.6701 235.241 97.1244 235.911 96.6177C235.399 95.1754 234.848 93.7331 234.06 92.4078C233.903 92.1739 233.785 91.94 233.627 91.7061C232.643 90.2638 231.344 88.9775 229.769 88.2368C228.352 87.5742 226.698 87.3013 225.123 87.4182C223.903 87.4962 222.604 88.003 221.344 88.7436C219.533 89.835 217.761 91.3553 216.501 92.8365C216.422 92.6806 216.304 92.5637 216.147 92.5637C215.95 92.5637 215.871 92.9535 216.068 92.9145H216.147C216.147 93.0314 216.108 93.1484 216.068 93.2653V93.3043Z" fill="black"/>
<path d="M266.067 81.3427C266.181 82.0711 266.181 83.0018 265.609 83.4065C264.883 83.8921 264.005 83.1232 263.395 82.4757C261.677 80.5334 259.654 78.8338 257.478 77.4984C258.088 76.163 258.737 74.8276 259.386 73.5327C261.486 73.7755 263.624 74.6253 265.342 75.9607C265.571 77.7007 265.8 79.5217 266.067 81.3427Z" fill="#A2A1A2"/>
<path d="M264.195 67.3564C264.617 70.3189 265.039 73.2425 265.462 76.205C263.734 74.9186 261.585 74.1 259.474 73.8661C260.664 71.6443 261.93 69.4224 263.274 67.2785C263.427 67.0446 263.734 66.7327 263.965 66.8886C264.118 67.0056 264.157 67.2005 264.195 67.3564Z" fill="#A2A1A2"/>
<path d="M258.645 88.0734C259.365 88.4933 260.123 89.0393 260.805 89.5013C260.123 91.4751 259.1 93.365 257.811 94.9189C257.925 92.567 257.356 90.1732 256.181 88.1994C255.84 87.6534 255.386 87.0654 254.817 87.0235V86.8975C256.144 87.0654 257.432 87.4434 258.645 88.0734Z" fill="white"/>
<path d="M254.366 87.0605C254.956 87.0995 255.467 87.6052 255.782 88.1498C256.962 89.9783 257.552 92.1957 257.473 94.3743C256.804 95.1134 256.096 95.7748 255.31 96.3583C253.422 97.7977 251.102 98.8481 248.703 98.9259C247.444 98.9648 246.186 98.6925 245.084 98.1089C243.826 95.6192 243.865 92.5069 245.242 90.095L245.202 90.0561C246.304 89.0057 247.562 88.1887 248.899 87.683C250.63 87.0216 252.557 86.7882 254.405 86.9438L254.366 87.0605ZM246.343 97.4087C246.972 95.1134 246.775 92.6626 246.972 90.2895C245.596 92.3902 245.36 95.1523 246.343 97.4087Z" fill="#C1B665"/>
<path d="M253.487 74.8662C253.273 75.3248 253.015 75.7451 252.801 76.2036C252.586 76.1654 252.371 76.1654 252.157 76.1272C252.543 75.6687 252.972 75.2483 253.487 74.8662Z" fill="black"/>
<path d="M246.833 90.2407C246.727 92.6917 246.833 95.223 246.493 97.5937C245.96 95.2632 246.088 92.4104 246.833 90.2407Z" fill="black"/>
<path d="M245.504 90.2407C244.157 92.682 244.118 95.7821 245.385 98.2621C244.355 97.7584 243.445 96.9833 242.811 96.0533C242.732 95.9371 242.454 95.4333 242.177 94.9296C242.93 93.2245 244.078 91.5582 245.504 90.2407Z" fill="white"/>
<path d="M235.524 104.371C237.286 103.896 239.048 103.46 240.847 103.658C240.113 105.085 239.232 106.392 238.277 107.62C237.25 106.669 236.332 105.56 235.524 104.371Z" fill="#D76460"/>
<path d="M242.177 75.6617C240.295 75.585 238.375 75.585 236.454 75.585C232.344 75.6234 228.004 75.9302 224.278 77.5408L224.201 77.3491C223.971 77.0806 223.779 76.8122 223.548 76.5438C226.084 75.7768 228.811 75.6234 231.461 75.585C235.072 75.5084 238.644 75.5083 242.177 75.6617Z" fill="black"/>
<path d="M233.934 92.2622C234.611 93.6313 235.118 95.081 235.524 96.6111C234.949 97.1346 234.441 97.6984 233.9 98.2621C234.035 96.9736 234.103 95.685 234.002 94.3964C233.934 93.43 233.799 92.4635 233.528 91.5776C233.697 91.779 233.832 92.0206 233.934 92.2622Z" fill="white"/>
<path d="M223.278 91.4076H223C222.006 93.3897 221.648 95.7216 222.006 97.898C223 95.9159 223.438 93.6618 223.278 91.4076ZM234.134 94.6334C234.254 95.877 234.174 97.1207 234.015 98.3644C233.419 98.8696 232.822 99.336 232.186 99.7246C229.442 101.357 225.823 101.279 222.921 99.8801C222.086 99.4914 221.33 99.025 220.614 98.4421C219.938 95.2941 220.137 91.9906 221.171 88.9203C222.483 88.1819 223.795 87.6378 224.988 87.5989C226.579 87.4823 228.209 87.7155 229.681 88.4151C231.271 89.1535 232.584 90.436 233.578 91.874C233.896 92.7679 234.055 93.7006 234.134 94.6334Z" fill="#C1B665"/>
<path d="M223.521 90.9092C223.671 93.1771 223.257 95.5247 222.354 97.5937C222.015 95.3257 222.316 92.9782 223.295 90.949L223.521 90.9092Z" fill="black"/>
<path d="M222.216 77.54C221.564 76.662 220.872 75.7442 220.22 74.8662C220.953 75.7043 221.605 76.5822 222.216 77.54Z" fill="black"/>
<path d="M221.55 88.9033C220.382 91.8827 220.209 95.1676 220.944 98.2616C218.997 96.8865 217.396 95.0149 216.271 93.0286C216.271 92.9904 216.228 92.9522 216.228 92.914C217.612 91.5007 219.56 89.9728 221.55 88.9033Z" fill="white"/>
<path d="M217.261 71.031C218.261 72.3212 219.261 73.6114 220.221 74.8637C216.901 71.2587 212.301 68.7163 207.86 66.3256C207.78 66.2877 207.66 66.2118 207.58 66.1738C210.58 66.4774 213.021 67.0846 215.421 68.6783C216.061 69.4752 216.661 70.2341 217.261 71.031Z" fill="black"/>
<path d="M218.724 79.8922L218.889 80.0081C216.616 82.4411 214.591 85.0286 212.773 87.7706C212.567 88.0796 212.071 88.4271 211.864 88.1182C211.823 88.0409 211.781 87.9637 211.781 87.8865C210.748 82.9432 210.005 77.9226 209.591 72.9021C209.55 72.4387 209.55 71.8594 210.005 71.6277C210.211 71.5118 210.5 71.5118 210.707 71.5504C211.699 71.7435 212.484 72.5159 213.104 73.2497C215.005 75.4896 216.864 77.6909 218.724 79.8922Z" fill="#A2A1A2"/>
<path d="M212.774 65.8249C213.825 66.6504 214.715 67.7051 215.563 68.8515C213.138 66.9255 210.673 66.1918 207.642 65.8249C207.399 65.6874 207.157 65.6415 206.914 65.6874C209.056 64.7702 210.915 64.3117 212.774 65.8249Z" fill="black"/>
<path d="M207.58 84.2227C208.591 87.3821 210.023 90.4215 210.907 93.5809C209.517 90.5815 208.38 87.4221 207.58 84.2227Z" fill="black"/>
<path d="M207.752 84.0914C207.9 85.0147 208.097 85.938 208.245 86.8998C207.555 85.1686 207.111 83.3604 206.914 81.5522C207.013 82.0139 207.16 82.4756 207.308 82.9372C207.505 83.322 207.604 83.7067 207.752 84.0914Z" fill="black"/>
<path d="M207.542 83.9791C207.542 84.0601 207.579 84.1411 207.579 84.2221C207.468 83.817 207.358 83.4119 207.284 83.0068C207.173 82.5206 207.062 82.0345 206.988 81.5483C206.951 81.1027 206.914 80.6571 206.914 80.2114C207.062 81.4673 207.284 82.7232 207.542 83.9791Z" fill="black"/>
<path d="M207.579 66.178C207.347 65.9799 207.147 65.9799 206.914 65.7817C206.947 65.7817 206.947 65.7817 206.981 65.5836C207.18 65.3854 207.38 65.5836 207.579 66.178Z" fill="black"/>
<path d="M208.245 72.1919C207.464 74.8026 207.112 77.5269 207.229 80.2133C207.112 79.4944 206.995 78.7377 206.917 78.0188C206.878 75.9756 207.268 73.9702 208.245 72.1919Z" fill="black"/>
<path d="M56.9651 414.489C57.2325 413.58 57.5 412.671 57.8439 411.762C57.691 414.607 59.2194 417.018 61.4356 418.717C61.8941 421.839 62.3144 425 62.7729 428.122C62.8111 428.319 62.8493 428.517 63.0022 428.596C63.2697 428.754 63.5753 428.477 63.7282 428.201C65.1419 425.909 66.4793 423.577 67.702 421.207C69.9946 421.444 72.2489 421.009 73.8537 419.705C71.4465 425.079 68.3897 430.177 64.798 434.84C64.5306 435.195 64.2631 435.551 63.8428 435.709C63.0404 436.064 62.1616 435.551 61.4738 434.998C58.3024 432.39 56.4683 428.28 56.0098 424.131C55.6659 420.89 56.0862 417.611 56.9651 414.489Z" fill="black"/>
<path d="M89.8165 385.561C88.713 386.817 87.7278 388.231 86.9002 389.683C88.9101 389.88 90.92 389.448 92.8905 388.937C91.9841 387.72 90.9594 386.582 89.8165 385.561ZM69.5202 398.989C68.1014 400.559 66.9979 402.365 66.2097 404.328C66.9191 404.799 67.7861 405.349 68.5744 405.742C69.8749 406.37 71.3331 406.723 72.7518 406.88C74.7224 407.077 76.6929 406.802 78.5452 406.095C79.9639 405.545 81.2645 404.642 82.4468 403.543C83.9444 402.13 85.1661 400.363 85.9149 398.557C85.639 398.046 85.3237 397.457 85.2843 397.379C84.6144 396.358 83.6685 395.533 82.6044 395.023C81.4221 394.434 80.0822 394.159 78.7816 394.159C76.2594 394.198 73.8159 395.337 71.806 396.868C70.9784 397.536 70.1902 398.243 69.5202 398.989ZM110.704 414.38L110.862 414.497C112.714 416.892 114.606 419.209 116.497 421.525C117.167 422.311 117.916 423.174 118.901 423.371C119.138 423.41 119.414 423.41 119.611 423.292C120.044 423.057 120.044 422.428 120.005 421.918C119.571 416.539 118.823 411.199 117.798 405.899C117.798 405.82 117.758 405.702 117.719 405.663C117.483 405.349 117.01 405.702 116.813 406.056C115 409.001 112.95 411.788 110.704 414.38ZM107.827 405.271C109.758 404.132 111.61 402.483 112.95 400.952C113.029 401.109 113.147 401.266 113.345 401.266C113.542 401.266 113.66 400.873 113.423 400.873H113.305C113.305 400.755 113.344 400.598 113.423 400.52L113.345 400.481C113.226 400.638 113.069 400.795 112.95 400.952C112.911 400.912 112.911 400.873 112.872 400.834C111.807 398.674 110.31 396.672 108.418 395.18C107.669 394.591 106.881 394.081 106.014 393.688C102.98 392.235 99.2356 392.118 96.3586 393.884C95.6887 394.316 95.0581 394.787 94.4275 395.337C93.7576 395.926 93.127 396.515 92.457 397.025C92.9694 398.557 93.5999 400.088 94.4275 401.462C94.5852 401.698 94.7428 401.933 94.9005 402.208C95.9251 403.739 97.3045 405.074 98.9597 405.899C100.457 406.606 102.191 406.88 103.847 406.763C105.108 406.606 106.487 406.056 107.827 405.271ZM122.291 410.257C122.567 411.513 122.842 412.809 123.039 414.105C123.158 417.049 122.803 420.033 121.975 422.86C123 420.897 123.394 418.738 123.394 416.5C123.828 420.308 123.867 424.195 123.512 428.004C123.473 428.436 123.355 428.985 122.961 429.142C122.685 429.103 122.409 429.103 122.133 429.064C122.015 429.025 121.936 428.985 121.857 428.907C117.246 426.315 112.477 423.567 109.049 419.641C108.379 418.698 107.669 417.795 106.999 416.853C107.591 417.835 108.3 418.777 109.049 419.641C110.073 421.054 111.098 422.428 112.123 423.803C112.753 424.627 113.384 425.491 114.054 426.276C113.739 426.041 113.384 425.805 113.069 425.53C110.349 423.292 108.064 420.583 105.817 417.835C105.581 417.56 105.344 417.246 105.108 416.971L105.029 416.735C101.009 418.463 96.3586 418.777 91.9053 418.856C89.8165 418.895 87.6884 418.856 85.5996 418.777C82.1315 418.62 78.6634 418.384 75.2347 418.031C75.0376 418.031 74.8406 417.992 74.6041 417.952C74.3283 417.913 74.013 417.874 73.7371 417.874C74.013 417.913 74.3283 417.952 74.6041 417.992C74.4071 418.463 74.1706 418.973 73.9342 419.444C72.2789 420.74 69.9537 421.211 67.5891 420.936C68.2985 419.602 69.0079 418.267 69.6778 416.892C67.3132 415.518 65.1062 413.83 63.254 411.827C62.6234 411.16 61.6381 410.375 60.8499 410.885C60.2194 411.278 60.2588 412.22 60.3376 412.966C60.6135 414.811 60.8893 416.657 61.1652 418.502C58.8794 416.853 57.3424 414.458 57.4606 411.592C57.1453 412.495 56.8301 413.398 56.5542 414.301C57.2242 406.448 58.1306 398.517 60.8499 391.136C62.2687 387.288 64.1604 383.637 66.525 380.299C71.1754 373.703 78.0722 368.285 86.0331 367.186C96.6739 365.694 107.196 372.368 113.147 381.32C118.192 388.937 120.517 397.928 121.897 406.998C122.054 407.98 122.212 409.001 122.33 409.982C122.291 409.864 122.251 409.747 122.212 409.59C121.424 406.291 120.32 403.033 118.901 399.931C119.808 403.229 121.187 406.331 122.212 409.59C122.172 409.864 122.251 410.061 122.291 410.257Z" fill="black"/>
<path d="M60.6089 412.779C60.4918 411.998 60.4528 411.012 61.1161 410.601C61.8964 410.066 62.8327 410.888 63.496 411.587C65.3687 413.684 67.5145 415.451 69.8554 416.89C69.1922 418.329 68.5289 419.727 67.7876 421.124C65.5247 420.878 63.2229 419.973 61.3892 418.535C61.1551 416.644 60.882 414.712 60.6089 412.779Z" fill="#A2A1A2"/>
<path d="M62.6308 427.95C62.144 424.796 61.6978 421.602 61.2109 418.449C63.1177 419.846 65.5112 420.724 67.8642 420.964C66.566 423.359 65.1461 425.754 63.645 428.03C63.4828 428.309 63.1582 428.589 62.8742 428.429C62.712 428.349 62.6308 428.149 62.6308 427.95Z" fill="#A2A1A2"/>
<path d="M68.9241 405.927C68.1273 405.527 67.2906 404.969 66.5337 404.49C67.2906 402.495 68.446 400.659 69.8802 399.062C69.7607 401.417 70.3981 403.811 71.673 405.767C72.0316 406.326 72.5495 406.884 73.1869 406.924V407.084C71.673 406.964 70.2388 406.565 68.9241 405.927Z" fill="white"/>
<path d="M73.1203 406.831C72.4942 406.792 71.9854 406.248 71.6332 405.704C70.3809 403.799 69.7547 401.466 69.8721 399.172C70.5765 398.394 71.3201 397.694 72.1419 397.072C74.1378 395.556 76.5251 394.428 79.0688 394.389C80.3603 394.351 81.6909 394.662 82.8649 395.245C84.1955 397.85 84.1564 401.116 82.7084 403.682L82.7475 403.721C81.5735 404.809 80.282 405.704 78.8732 406.248C77.0338 406.948 75.0771 407.22 73.1203 407.026V406.831ZM81.5735 395.984C80.9082 398.394 81.1039 400.96 80.9082 403.488C82.317 401.271 82.591 398.394 81.5735 395.984Z" fill="#C1B665"/>
<path d="M73.8507 419.786C74.0926 419.136 74.2943 418.431 74.5362 417.78C74.7378 417.834 74.9394 417.834 75.1814 417.889C74.7781 418.648 74.3346 419.298 73.8507 419.786Z" fill="black"/>
<path d="M80.5017 403.076C80.7057 400.6 80.5017 398.123 81.1952 395.723C82.2559 398.123 81.9704 400.943 80.5017 403.076Z" fill="black"/>
<path d="M82.5 403.741C83.8765 401.11 83.9148 397.761 82.6147 395.051C83.6853 395.609 84.603 396.406 85.2148 397.442C85.2913 397.562 85.5972 398.12 85.8266 398.638C85.1383 400.512 83.953 402.306 82.5 403.741Z" fill="white"/>
<path d="M93.1466 388.941C91.1769 389.432 89.1678 389.847 87.1587 389.658C87.986 388.223 88.9708 386.902 90.0739 385.694C91.2163 386.675 92.2405 387.77 93.1466 388.941Z" fill="#D76460"/>
<path d="M85.8265 418.974C87.8886 419.046 89.9897 419.046 92.0518 419.046C96.4484 419.01 101.039 418.688 105.008 417.111L105.086 417.326C105.319 417.577 105.553 417.864 105.786 418.114C103.063 418.867 100.184 419.01 97.3432 419.082C93.5303 419.153 89.6784 419.117 85.8265 418.974Z" fill="black"/>
<path d="M94.6609 401.605C93.7447 400.093 93.0903 398.496 92.4795 396.857C93.2212 396.269 93.9628 395.639 94.6609 395.051C94.4864 396.479 94.3991 397.866 94.53 399.294C94.6172 400.345 94.8354 401.395 95.1408 402.404C95.0099 402.11 94.8354 401.857 94.6609 401.605Z" fill="white"/>
<path d="M105.847 402.487H106.124C107.192 400.379 107.548 397.92 107.152 395.616C106.163 397.724 105.728 400.106 105.847 402.487ZM94.5328 399.052C94.4142 397.724 94.4933 396.436 94.6515 395.109C95.2449 394.601 95.8778 394.094 96.5899 393.664C99.4777 391.946 103.275 392.025 106.282 393.469C107.152 393.898 107.943 394.367 108.695 394.953C109.407 398.271 109.209 401.785 108.101 404.986C106.756 405.767 105.372 406.314 104.106 406.392C102.445 406.509 100.704 406.235 99.2008 405.533C97.5393 404.752 96.1548 403.424 95.1262 401.863C94.7702 401.004 94.612 400.028 94.5328 399.052Z" fill="#C1B665"/>
<path d="M105.814 402.408C105.673 400.129 106.096 397.774 106.978 395.723C107.331 397.964 107.013 400.357 106.061 402.408H105.814Z" fill="black"/>
<path d="M107.116 417.111C107.768 418.015 108.459 418.881 109.112 419.785C108.382 418.957 107.73 418.053 107.116 417.111Z" fill="black"/>
<path d="M107.784 405.078C108.93 401.878 109.135 398.367 108.398 395.051C110.363 396.533 111.919 398.523 113.024 400.669C113.024 400.708 113.065 400.747 113.106 400.786C111.714 402.307 109.79 403.946 107.784 405.078Z" fill="white"/>
<path d="M112.082 423.919C111.092 422.554 110.102 421.15 109.112 419.786C112.425 423.685 117.032 426.414 121.487 428.988C121.563 429.027 121.677 429.105 121.753 429.144C118.783 428.793 116.308 428.13 113.909 426.414C113.3 425.596 112.691 424.777 112.082 423.919Z" fill="black"/>
<path d="M110.601 414.467L110.444 414.352C112.72 411.83 114.76 409.116 116.565 406.249C116.761 405.905 117.232 405.561 117.467 405.867C117.506 405.943 117.545 406.02 117.545 406.096C118.566 411.256 119.311 416.455 119.743 421.691C119.782 422.188 119.782 422.761 119.35 423.029C119.154 423.144 118.879 423.144 118.644 423.105C117.624 422.914 116.878 422.112 116.251 421.309C114.289 419.092 112.406 416.799 110.601 414.467Z" fill="#A2A1A2"/>
<path d="M113.508 400.738H113.642C113.866 400.738 113.776 401.073 113.553 401.073C113.374 401.073 113.24 400.939 113.106 400.805C113.285 400.671 113.419 400.538 113.553 400.404L113.642 400.437C113.508 400.504 113.464 400.604 113.508 400.738Z" fill="black"/>
<path d="M116.753 428.998C115.635 428.302 114.642 427.424 113.772 426.472C116.381 428.083 119.071 428.705 122.3 429.034C122.549 429.144 122.839 429.217 123.087 429.144C120.769 429.876 118.782 430.242 116.753 428.998Z" fill="black"/>
<path d="M121.755 409.758C120.931 406.375 119.822 403.155 119.093 399.731C120.234 402.951 121.121 406.334 121.755 409.758Z" fill="black"/>
<path d="M121.752 409.757C121.918 409.875 122.084 409.993 122.251 410.15C122.251 410.229 122.417 410.308 122.417 410.426C122.251 410.19 121.918 409.993 121.752 409.757Z" fill="black"/>
<path d="M122.274 409.866C122.132 408.95 121.942 407.998 121.752 407.082C122.465 408.84 122.892 410.635 123.082 412.43C122.94 411.953 122.845 411.514 122.655 411.038C122.56 410.635 122.417 410.232 122.274 409.866Z" fill="black"/>
<path d="M122.453 410.027C122.453 409.95 122.42 409.873 122.42 409.757C122.52 410.181 122.619 410.567 122.719 410.991C122.819 411.492 122.919 411.955 123.019 412.456C123.052 412.881 123.085 413.343 123.085 413.768C122.919 412.533 122.686 411.299 122.453 410.027Z" fill="black"/>
<path d="M121.752 423.127C122.544 420.105 122.884 416.916 122.771 413.769C122.884 414.608 122.998 415.489 123.073 416.328C123.149 418.72 122.771 421.071 121.752 423.127Z" fill="black"/>
</svg>
