<svg width="330" height="500" viewBox="0 0 330 500" fill="none" xmlns="http://www.w3.org/2000/svg">
<rect width="330" height="500" rx="60" fill="white"/>
<path d="M245.068 454.526L84.6149 454.182C54.436 454.117 30.0515 429.317 30.1149 398.84L30.7363 100.225C30.7998 69.7091 55.3258 45.0525 85.4661 45.1171L245.919 45.461C276.098 45.5257 300.482 70.3262 300.419 100.803L299.797 399.418C299.734 429.895 275.247 454.591 245.068 454.526Z" fill="#0D0E0F"/>
<path d="M52.0331 327.756L51.9961 327.611C53.2642 327.324 54.5321 327.073 55.8001 326.786C56.7636 329.578 57.4659 332.407 57.9072 335.307C56.8631 335.486 55.8189 335.664 54.7749 335.807C53.8858 333.124 52.9595 330.44 52.0331 327.756Z" fill="#D9D9D9"/>
<path d="M55.9534 339.822C55.6265 338.681 55.263 337.54 54.9362 336.36C55.961 336.165 56.9858 336.01 58.0106 335.816C58.0467 336.052 58.0829 336.248 58.0824 336.484C58.1905 337.271 58.2986 338.097 58.7731 338.648L58.8818 339.16C57.93 339.393 56.9417 339.627 55.9534 339.822Z" fill="black"/>
<path d="M55.9445 327.085C56.4971 326.976 57.0497 326.866 57.6022 326.793C58.3609 329.716 59.1196 332.639 59.8783 335.562C59.3683 335.635 58.8583 335.708 58.3482 335.818C57.8445 332.822 57.0434 329.898 55.9445 327.085Z" fill="black"/>
<path d="M59.5348 336.029C59.9438 335.947 60.3072 335.906 60.7161 335.823C61.1226 336.952 61.4836 338.08 61.8446 339.209C60.8903 339.416 59.9361 339.623 58.9819 339.83L58.8468 339.286C58.2121 338.7 58.0777 337.823 57.9886 336.987C57.9437 336.736 57.8987 336.527 57.8993 336.276C58.4444 336.236 58.9896 336.153 59.5348 336.029Z" fill="black"/>
<path d="M58.481 346.847C57.6562 344.554 56.7878 342.26 55.9193 339.967C57.0985 339.79 58.2779 339.578 59.4572 339.366C60.3744 339.188 61.2917 339.011 62.209 338.834C62.7735 340.339 63.2942 341.88 63.815 343.385C61.9817 343.167 60.276 344.524 59.2254 345.846C58.9191 346.168 58.7 346.525 58.481 346.847Z" fill="#D9D9D9"/>
<path d="M60.6276 335.626C60.2098 335.703 59.8384 335.741 59.4206 335.818C58.5916 332.746 57.7626 329.674 56.9337 326.603C58.5121 326.334 60.0442 326.065 61.6227 325.797C62.5909 328.869 63.2341 331.979 63.8309 335.128C62.7632 335.281 61.6954 335.434 60.6276 335.626Z" fill="#D9D9D9"/>
<path d="M57.8813 347.297C58.083 346.979 58.3249 346.624 58.5668 346.306C59.5344 344.995 61.1051 343.65 62.7932 343.867C63.5122 346.139 64.1909 348.411 64.7892 350.682C64.6689 350.54 64.5084 350.398 64.388 350.291C63.8262 349.758 63.0636 349.153 62.2993 349.4C61.7763 349.576 61.4937 350.108 61.2918 350.568C60.8472 351.667 60.4027 352.766 60.0788 353.865C59.3194 351.699 58.6004 349.498 57.8813 347.297Z" fill="black"/>
<path d="M68.5194 391.162C65.9854 378.974 63.0802 366.862 59.841 354.828C60.1774 353.622 60.5508 352.416 60.9614 351.21C61.1479 350.705 61.4087 350.121 61.8914 349.928C62.5967 349.657 63.3002 350.281 63.8182 350.905C63.9291 351.061 64.0773 351.178 64.1882 351.334C65.181 355.54 66.0254 359.745 66.7955 363.99C68.2059 363.604 69.6162 363.217 71.0636 362.831C74.116 375.527 76.6116 388.338 78.5136 401.265C76.6567 402.351 74.8365 403.593 73.1643 405.029C70.8363 400.782 69.4374 395.68 68.5194 391.162Z" fill="#D9D9D9"/>
<path d="M61.0522 338.831C60.6783 337.691 60.2573 336.55 59.8834 335.409C60.9656 335.243 62.048 335.034 63.1774 334.825C63.1773 334.868 63.1772 334.91 63.1771 334.952C63.3633 335.923 63.5494 336.895 63.7356 337.866L63.8289 338.246C62.9347 338.413 61.9935 338.622 61.0522 338.831Z" fill="black"/>
<path d="M60.888 326.015C61.3424 325.943 61.7513 325.87 62.2056 325.798C63.0625 328.697 63.9194 331.634 64.8217 334.533C64.231 334.642 63.6859 334.714 63.0952 334.823C62.4655 331.887 61.8358 328.915 60.888 326.015Z" fill="black"/>
<path d="M90.3121 330.675C91.0139 330.516 91.7156 330.357 92.4173 330.238C93.8597 329.96 95.3021 329.682 96.7445 329.444C98.0698 329.246 99.4341 329.048 100.759 328.89C100.911 330.738 101.102 332.586 101.371 334.434C101.293 334.474 101.215 334.514 101.098 334.554C99.5376 335.514 99.4161 337.723 99.4512 339.571C99.5205 343.708 99.5899 347.845 99.6982 351.982C99.1612 347.844 98.2345 343.745 96.9178 339.766C96.5307 338.56 96.0266 337.354 95.1711 336.469C94.2767 335.583 92.8357 335.179 91.7822 335.819C90.4166 336.66 90.3345 338.627 90.4091 340.234C90.5958 344.171 90.8213 348.147 91.0469 352.084C90.1205 347.824 88.2195 343.764 85.5378 340.344C84.8771 339.499 84.0217 338.614 82.9307 338.531C81.8008 338.448 80.7857 339.37 80.3158 340.453C79.8459 341.537 79.8434 342.742 79.841 343.906C79.8372 345.714 79.8336 347.481 79.8298 349.288C78.9775 346.877 77.8912 344.545 76.5708 342.373C75.4835 340.564 73.8898 338.632 71.8243 338.708C69.8367 338.784 68.313 340.709 67.997 342.757C67.681 344.764 68.2223 346.814 68.7638 348.783C69.4213 351.154 70.0399 353.525 70.6584 355.896C69.1842 352.76 67.7488 349.664 66.2745 346.528C65.6926 345.242 64.9162 343.834 63.5921 343.43C63.4753 343.389 63.3974 343.389 63.2805 343.349C62.8165 341.621 62.3524 339.933 61.8493 338.245C62.6291 338.046 63.3699 337.847 64.1497 337.647C66.2941 337.09 68.4776 336.492 70.6221 335.894C73.3905 335.137 76.1589 334.34 78.9273 333.542C81.1498 332.945 83.3722 332.347 85.5946 331.789C87.1542 331.391 88.7136 331.033 90.3121 330.675Z" fill="#6C6B6C"/>
<path d="M65.0024 333.824C64.3022 330.867 63.6021 327.873 62.8647 324.916C64.7243 324.546 66.6211 324.175 68.4807 323.805C68.9212 326.537 69.36 330.055 69.7632 332.824C68.201 333.157 66.6017 333.491 65.0024 333.824Z" fill="#D9D9D9"/>
<path d="M63.8123 343.849C63.9241 343.849 63.9986 343.888 64.1104 343.926C65.3771 344.27 66.1198 345.639 66.6764 346.856C68.0868 349.821 69.46 352.748 70.8703 355.713C71.1664 356.777 71.4251 357.841 71.6838 358.905C69.7882 356.243 67.7806 353.656 65.6609 351.183C65.1069 348.713 64.4783 346.281 63.8123 343.849Z" fill="black"/>
<path d="M65.2936 334.768C66.9462 334.458 68.5987 334.147 70.2513 333.837C70.4031 334.709 70.5552 335.477 70.7075 336.14L70.7455 336.314C68.6316 336.833 66.5176 337.351 64.3652 337.835L64.2891 337.521C64.1371 336.718 63.9851 335.916 63.8331 335.114C63.8331 335.079 63.8332 335.044 63.8333 335.009C64.2944 334.94 64.794 334.872 65.2936 334.768Z" fill="black"/>
<path d="M67.3974 363.911C66.6258 359.538 65.7426 355.205 64.785 350.872C66.8986 353.483 68.9005 356.214 70.7907 359.026C71.0855 360.27 71.3804 361.514 71.6753 362.717C70.2245 363.115 68.811 363.513 67.3974 363.911Z" fill="#6C6B6C"/>
<path d="M70.27 356.22C69.7097 353.963 69.1494 351.706 68.5538 349.449C68.0634 347.574 67.5377 345.623 67.8595 343.711C68.146 341.8 69.5271 339.929 71.3281 339.857C73.1998 339.784 74.6437 341.623 75.6289 343.346C76.8252 345.413 77.8093 347.633 78.5814 349.929C78.5784 351.382 78.5753 352.873 78.6075 354.326C77.7665 351.227 76.3601 348.318 74.5292 345.752C74.0011 345.025 73.1905 344.258 72.4128 344.639C72.0947 344.791 71.8823 345.058 71.7403 345.402C70.925 346.93 71.2741 348.843 71.6236 350.564C72.4276 354.504 73.1963 358.444 73.8942 362.423C73.223 362.574 72.587 362.764 71.9157 362.916C71.6357 361.73 71.3557 360.544 71.0756 359.396C70.8306 358.325 70.5504 357.253 70.27 356.22Z" fill="black"/>
<path d="M68.7962 324.052C69.1939 323.972 69.5555 323.892 69.9532 323.811C70.5609 327.019 71.1686 330.227 71.7402 333.435C71.1617 333.556 70.6193 333.717 70.0408 333.838C69.6133 330.833 69.1876 327.016 68.7962 324.052Z" fill="black"/>
<path d="M71.5894 333.84C70.9742 330.575 70.359 327.311 69.7804 324.046C71.757 323.637 73.697 323.228 75.6735 322.82C76.3255 326.002 77.014 329.184 77.6659 332.407C75.616 332.857 73.6027 333.348 71.5894 333.84Z" fill="#D9D9D9"/>
<path d="M71.6079 333.068C73.7724 332.661 75.9369 332.255 78.1014 331.848C78.2968 332.5 78.4527 333.186 78.648 333.837C75.8536 334.482 73.0591 335.162 70.2646 335.842L70.2256 335.67C70.0696 335.019 69.9138 334.264 69.7583 333.407C70.3486 333.305 70.9782 333.204 71.6079 333.068Z" fill="black"/>
<path d="M72.0577 349.976C71.7382 348.232 71.4191 346.293 72.1655 344.745C72.3277 344.435 72.5222 344.125 72.781 343.971C73.4927 343.585 74.2342 344.362 74.7174 345.099C76.3922 347.66 77.6785 350.647 78.4474 353.788C78.4749 356.113 78.5024 358.439 78.5945 360.764C77.1074 361.11 75.588 361.494 74.1008 361.917C73.4628 357.963 72.7925 353.97 72.0577 349.976Z" fill="#6C6B6C"/>
<path d="M71.6804 362.408C72.425 362.219 73.1303 362.068 73.8747 361.917C74.9987 367.596 76.0444 373.275 77.0509 378.954C78.1347 385.129 79.1792 391.341 80.1847 397.515C80.3008 398.201 80.4169 398.849 80.4938 399.535C80.1802 399.687 79.8666 399.838 79.5528 400.028C77.5034 387.337 74.8663 374.797 71.6804 362.408Z" fill="black"/>
<path d="M76.8325 379.242C75.8258 373.517 74.7799 367.791 73.6556 362.066C75.4587 361.647 77.2617 361.267 79.1038 360.925C79.516 369.914 80.712 378.828 83.8679 387.246C85.1148 390.514 86.6361 393.744 87.4126 397.125C84.9428 397.888 82.5509 398.843 80.2761 400.029C80.16 399.338 80.083 398.684 79.9669 397.993C78.9613 391.73 77.9165 385.467 76.8325 379.242Z" fill="#D9D9D9"/>
<path d="M73.9904 406.032C73.8351 405.72 73.6799 405.357 73.5636 405.046C75.3222 403.182 77.1973 401.527 79.1892 400.027C79.3043 400.909 79.3805 401.791 79.4956 402.673C77.6215 403.81 75.8253 404.999 73.9904 406.032Z" fill="black"/>
<path d="M81.1747 418.944C81.1748 418.905 81.1748 418.905 81.1749 418.866C89.5986 418.536 97.946 417.935 106.181 416.096C106.411 416.058 106.604 416.02 106.835 415.943C106.873 415.943 106.873 415.943 106.912 415.943C108.682 415.522 110.414 414.906 112.069 414.136C111.555 420.904 108.31 428.052 102.15 430.824C100.225 431.671 98.1473 432.092 96.0697 432.435C91.8758 433.2 87.2592 433.809 83.5714 431.635C81.4971 430.393 79.9627 428.417 78.4667 426.519C77.1625 424.814 75.82 423.071 74.5159 421.366C76.557 420.094 78.8279 419.287 81.1747 418.944ZM100.969 425.136C101.047 424.865 101.124 424.595 101.125 424.324C101.164 423.898 101.05 423.395 100.666 423.24C100.358 423.123 100.05 423.2 99.7424 423.354C99.242 423.585 98.7027 423.971 98.6246 424.512C98.5853 424.937 98.892 425.402 99.2763 425.558C99.6991 425.675 100.546 425.406 100.969 425.136ZM95.7818 422.92C96.0135 422.495 96.053 421.992 95.9 421.567C95.8234 421.412 95.7469 421.218 95.5933 421.102C95.3245 420.869 94.9014 420.907 94.6318 421.1C94.3237 421.292 94.1692 421.602 94.0915 421.949C94.0136 422.413 94.1279 422.955 94.4734 423.265C94.7804 423.614 95.3966 423.229 95.7818 422.92ZM95.4994 429.263C95.6924 428.915 95.9239 428.567 96.0016 428.181C96.0794 427.794 95.9649 427.368 95.6192 427.136C95.3504 426.942 94.9657 426.979 94.696 427.172C94.4264 427.365 94.3103 427.713 94.3096 428.061C94.3082 428.718 94.8841 429.223 95.4994 429.263ZM88.9689 425.458C88.8142 425.845 88.9285 426.386 89.3126 426.619C89.6967 426.852 90.1584 426.776 90.5818 426.622L90.62 426.738C91.1586 426.662 91.5062 425.966 91.315 425.463C91.1237 424.96 90.509 424.649 89.9704 424.725C89.5471 424.802 89.1235 425.072 88.9689 425.458Z" fill="#ECD648"/>
<path d="M77.4791 331.85C76.8997 328.577 76.2877 325.305 75.7084 321.99C75.9691 321.948 76.2298 321.863 76.4904 321.821C77.1023 325.094 77.8121 328.324 78.6522 331.512C78.2611 331.639 77.8701 331.765 77.4791 331.85Z" fill="black"/>
<path d="M80.2909 403.445C80.576 403.298 80.9016 403.189 81.1867 403.042C81.3064 404.148 81.3854 405.254 81.3424 406.396L81.4637 406.728C79.7544 407.167 78.0451 407.606 76.2951 408.044C75.6457 407.343 75.0778 406.604 74.5506 405.829C76.5046 405.096 78.3775 404.252 80.2909 403.445Z" fill="#D9D9D9"/>
<path d="M77.6872 322.81C79.3311 322.457 80.9407 322.144 82.5845 321.83C83.2287 324.804 83.9072 327.777 84.5857 330.751C83.0445 331.104 81.4689 331.497 79.9277 331.851C79.0781 328.877 78.3313 325.863 77.6872 322.81Z" fill="#D9D9D9"/>
<path d="M78.4054 409.052C78.0832 408.702 77.7969 408.351 77.5106 407.961C79.0186 407.498 80.5625 407.035 82.0704 406.571C91.0106 403.79 99.9154 400.814 109.138 400.095C109.03 400.522 108.921 400.989 108.813 401.417C100.773 402.372 92.8746 404.688 85.0835 407.044C82.8574 407.74 80.6314 408.396 78.4054 409.052Z" fill="#0D0E0F"/>
<path d="M104.002 409.526C99.293 409.799 94.5102 409.829 89.9498 410.708C87.0341 411.267 84.0812 411.746 81.1287 412.062C79.7852 411.252 78.5543 410.199 77.5106 408.984C79.8287 408.303 82.1094 407.621 84.4275 406.939C92.5782 404.533 100.766 402.086 109.138 401.094C108.235 404.243 106.659 407.31 104.562 409.487C104.375 409.527 104.188 409.526 104.002 409.526Z" fill="#D9D9D9"/>
<path d="M78.9794 331.042C80.6623 330.619 82.3825 330.238 84.0653 329.858C84.2134 330.541 84.3988 331.267 84.5841 331.992C82.4524 332.585 80.3205 333.22 78.1886 333.856C78.0034 333.045 77.8557 332.191 77.6704 331.38C78.0819 331.253 78.5307 331.126 78.9794 331.042Z" fill="black"/>
<path d="M78.6481 353.847C78.6143 352.361 78.6175 350.836 78.6206 349.35C78.6242 347.59 78.6279 345.83 78.6315 344.11C78.6338 342.976 78.6363 341.802 79.0805 340.748C79.5247 339.693 80.4842 338.834 81.5524 338.876C82.5467 338.956 83.3553 339.818 84.0166 340.641C86.5513 343.97 88.3113 347.885 89.2234 352.071C89.294 353.557 89.4015 355.004 89.4721 356.491C88.2287 352.147 86.1377 348.036 83.3823 344.55C81.9383 348.145 82.1508 352.212 82.4374 356.084C82.5451 357.453 82.6528 358.783 82.7605 360.152C81.4339 360.384 80.1073 360.655 78.8175 360.926C78.7488 358.54 78.68 356.194 78.6481 353.847Z" fill="black"/>
<path d="M79.0209 404.039C78.8319 402.973 78.7066 401.907 78.5177 400.842C79.028 400.592 79.5385 400.28 80.0489 400.03C80.2378 401.159 80.363 402.224 80.4881 403.352C79.9778 403.602 79.4675 403.789 79.0209 404.039Z" fill="black"/>
<path d="M80.7336 403.04C80.6633 402.2 80.5929 401.407 80.4866 400.568C82.5785 399.127 84.7778 397.965 87.0487 397.038C87.191 397.924 87.2973 398.764 87.4035 399.65L87.4033 399.743C85.0966 400.531 82.9332 401.739 80.7336 403.04Z" fill="#0D0E0F"/>
<path d="M104.14 409.482C104.139 409.55 104.178 409.584 104.178 409.653C96.287 410.012 88.4338 410.815 80.6567 412.063C80.6188 411.79 80.5424 411.516 80.466 411.243C83.5071 410.976 86.5484 410.606 89.5515 410.1C94.2871 409.324 99.2135 409.334 104.025 409.105C104.063 409.242 104.101 409.345 104.14 409.482Z" fill="#0D0E0F"/>
<path d="M95.5624 398.257C97.5718 398.142 99.6198 398.067 101.629 398.071C102.054 398.072 102.44 398.073 102.865 398.074C105.3 398.079 107.695 398.203 110.129 398.368C110.051 398.725 109.973 399.082 109.895 399.439C100.002 400.133 90.4133 403.17 80.7477 406.047L80.6326 405.69C80.6737 404.499 80.5989 403.307 80.4855 402.076C82.8061 400.969 85.1653 399.902 87.6394 399.312L87.678 399.312C88.1419 399.194 88.6057 399.116 89.0696 398.997C90.6545 398.683 92.2776 398.528 93.9006 398.412C93.9779 398.412 94.0552 398.412 94.1325 398.413C94.6349 398.334 95.0987 398.296 95.5624 398.257Z" fill="#D9D9D9"/>
<path d="M81.7154 415.074C81.6786 414.283 81.6034 413.491 81.4512 412.775C89.216 411.397 97.0566 410.509 104.935 410.111C105.011 410.375 105.087 410.639 105.164 410.903C102.05 411.575 98.9743 412.209 95.8606 412.843C92.8236 413.477 89.7867 414.112 86.7118 414.557C85.0206 414.78 83.3679 414.965 81.7154 415.074Z" fill="#ECD648"/>
<path d="M81.4791 417.079C81.4799 416.702 81.4422 416.29 81.443 415.912C83.1009 415.812 84.7974 415.644 86.4555 415.442C89.5404 415.036 92.5871 414.459 95.6337 413.882C98.7575 413.305 101.843 412.694 104.967 412.117C105.043 412.323 105.081 412.563 105.158 412.769C102.034 413.484 98.9099 414.198 95.7858 414.912C93.3174 415.491 90.849 416.035 88.3038 416.442C86.0672 416.78 83.7538 416.981 81.4791 417.079Z" fill="#0D0E0F"/>
<path d="M81.4784 418.082C81.4792 417.704 81.4801 417.287 81.4409 416.909C83.7978 416.838 86.195 416.579 88.5126 416.167C91.1099 415.719 93.7075 415.119 96.2653 414.482C99.5024 413.694 102.74 412.906 105.977 412.119C106.334 413.292 106.691 414.428 107.128 415.526C104.29 416.542 101.173 416.913 98.1371 417.172C92.5837 417.69 87.0309 417.98 81.4784 418.082Z" fill="#ECD648"/>
<path d="M81.4783 419.085C81.479 418.744 81.4798 418.36 81.441 417.976C86.9337 417.902 92.4664 417.53 97.9205 416.987C100.924 416.652 104.007 416.275 106.815 415.129C106.933 415.428 107.011 415.727 107.129 416.068C98.7481 418.055 90.1327 418.677 81.4783 419.085Z" fill="#0D0E0F"/>
<path d="M82.632 321.137C83.1161 321.022 83.6303 320.946 84.1144 320.832C84.5922 323.725 85.0701 326.618 85.578 329.55C85.1848 329.626 84.7914 329.741 84.4283 329.856C83.7993 326.924 83.2005 324.03 82.632 321.137Z" fill="black"/>
<path d="M78.5977 359.733C80.1757 359.452 81.7098 359.171 83.2877 358.93C84.5751 371.94 86.6076 384.87 89.3852 397.638C88.903 397.759 88.377 397.88 87.8946 398.042C87.0258 394.463 85.3241 391.045 83.9291 387.587C80.3986 378.678 79.0599 369.245 78.5977 359.733Z" fill="#0D0E0F"/>
<path d="M83.7496 355.274C83.4814 351.791 83.2825 348.131 84.6317 344.898C87.2067 348.034 89.1609 351.732 90.3231 355.64C90.3559 356.414 90.4232 357.153 90.456 357.927C88.3213 358.239 86.1866 358.551 84.0517 358.933C83.951 357.702 83.8503 356.505 83.7496 355.274Z" fill="#6C6B6C"/>
<path d="M85.617 329.86C84.9643 327.062 84.3115 324.264 83.6177 321.429C84.9764 321.245 86.3352 321.025 87.6938 320.841C88.6349 323.565 89.2464 326.363 89.5287 329.197C88.2111 329.418 86.8935 329.639 85.617 329.86Z" fill="#D9D9D9"/>
<path d="M82.5918 360.613C85.0848 360.23 87.5771 359.886 90.0681 359.62C90.7385 371.971 91.6888 384.366 92.8409 396.687C91.0722 396.927 89.3423 397.246 87.6104 397.681C85.2549 385.378 83.5823 373.009 82.5918 360.613Z" fill="#D9D9D9"/>
<path d="M85.9658 329.819C87.1286 329.501 88.2552 329.182 89.418 328.864C89.4525 329.719 89.4872 330.522 89.5217 331.377C88.0317 331.855 86.578 332.333 85.0878 332.865C84.908 332.009 84.7646 331.1 84.5849 330.19C85.021 330.084 85.4933 329.978 85.9658 329.819Z" fill="black"/>
<path d="M87.8334 399.959C87.7492 399.118 87.6221 398.278 87.4091 397.481C87.8818 397.349 88.3975 397.174 88.8703 397.042C89.0402 397.927 89.2102 398.812 89.3801 399.697C88.8646 399.784 88.3489 399.916 87.8332 400.047L87.7903 400.047L87.8334 399.959Z" fill="#0D0E0F"/>
<path d="M87.5697 321.049C87.9694 320.981 88.3691 320.912 88.7689 320.843C89.2316 322.518 89.5943 324.227 89.9903 325.937C90.1884 326.774 90.3196 327.716 90.5176 328.588C90.0179 328.657 89.5516 328.761 89.0519 328.864C88.8243 326.213 88.3303 323.597 87.5697 321.049Z" fill="black"/>
<path d="M89.8135 400.052C89.6723 399.14 89.531 398.228 89.3897 397.316C90.9299 396.773 92.4698 396.366 94.0453 396.05C94.1504 397.144 94.2196 398.284 94.3247 399.378C92.7854 399.511 91.2818 399.69 89.8135 400.052Z" fill="#0D0E0F"/>
<path d="M90.6871 426.888C90.3419 427.112 89.9654 427.28 89.6528 426.886C89.3715 426.548 89.2476 425.817 89.3743 425.2C89.5008 424.638 89.8152 424.189 90.16 424.134C90.599 424.022 91.0997 424.417 91.2547 425.204C91.4099 425.934 91.1571 426.945 90.6867 427.057L90.6871 426.888Z" fill="black"/>
<path d="M90.8485 326.317C90.426 324.672 90.039 323.027 89.5455 321.415C90.8591 321.216 92.1727 321.018 93.4863 320.853C94.191 323.304 94.8247 325.789 95.4583 328.274C94.1092 328.472 92.7602 328.67 91.4111 328.869C91.1999 328.029 91.0598 327.123 90.8485 326.317Z" fill="#D9D9D9"/>
<path d="M89.6268 331.873C89.6287 330.998 89.5957 330.178 89.5282 329.303C90.0485 329.14 90.534 329.031 91.0542 328.868C91.1571 329.416 91.2598 330.017 91.3974 330.51C91.3972 330.619 91.4317 330.674 91.4317 330.674L91.4999 331.221C90.8754 331.493 90.2512 331.656 89.6268 331.873Z" fill="black"/>
<path d="M90.1273 351.995C89.9144 348.169 89.7016 344.303 89.5255 340.476C89.4553 338.876 89.5329 336.963 90.8228 336.185C91.8179 335.562 93.179 335.994 94.0239 336.816C94.8687 337.677 95.308 338.849 95.6736 340.021C96.954 343.85 97.8291 347.834 98.2992 351.896C98.3335 353.106 98.331 354.278 98.3653 355.488C97.4907 351.269 95.769 347.244 93.4206 343.725C92.3069 348.252 92.5914 353.016 92.8761 357.702C92.9123 358.014 92.9117 358.287 92.9479 358.6C92.1379 358.715 91.3278 358.831 90.5178 358.946C90.4827 358.087 90.4108 357.267 90.3758 356.408C90.3053 354.924 90.1979 353.479 90.1273 351.995Z" fill="black"/>
<path d="M93.6052 396.051C92.3389 383.837 91.3006 371.546 90.4522 359.294C91.2883 359.18 92.1244 359.067 92.9606 358.953C93.7329 371.243 94.5432 383.533 95.3155 395.823C94.7454 395.899 94.1753 395.975 93.6052 396.051Z" fill="#0D0E0F"/>
<path d="M95.4124 330.059L95.4519 330.224C93.9777 330.418 92.5034 330.612 91.0291 330.871L90.9501 330.543C90.9501 330.543 90.9502 330.51 90.9105 330.444C90.7518 330.148 90.633 329.819 90.5142 329.457C92.0283 329.23 93.5424 329.036 95.0564 328.875C95.175 329.27 95.2937 329.664 95.4124 330.059Z" fill="black"/>
<path d="M93.6481 358.044C93.4069 353.307 93.1657 348.53 94.117 343.914C96.1187 347.47 97.5543 351.539 98.3302 355.804C98.3285 356.633 98.3581 357.462 98.3563 358.33C96.7863 358.524 95.2477 358.718 93.6776 358.952C93.6783 358.636 93.679 358.32 93.6481 358.044Z" fill="#6C6B6C"/>
<path d="M95.717 396.053C94.9638 383.56 94.1735 371.068 93.4204 358.576C95.2389 358.344 97.0944 358.153 98.9499 357.961C99.0177 361.054 99.0484 364.148 99.1161 367.241C99.2472 375.582 99.5941 387.173 101.246 395.869C99.3907 395.787 97.5355 395.822 95.717 396.053Z" fill="#D9D9D9"/>
<path d="M93.4974 320.05C93.8096 319.97 94.1216 319.931 94.4649 319.852C95.2388 322.741 95.8877 325.71 96.443 328.679C96.0373 328.758 95.6316 328.837 95.226 328.877C94.6706 325.948 94.0841 322.979 93.4974 320.05Z" fill="black"/>
<path d="M94.4766 399.06C94.4204 398.146 94.3837 397.194 94.3275 396.28C94.6182 396.205 94.9089 396.129 95.2189 396.054C95.2557 397.006 95.2731 397.958 95.3098 398.948C95.0773 398.985 94.8448 398.985 94.6123 399.022C94.5735 399.06 94.5347 399.06 94.4766 399.06Z" fill="black"/>
<path d="M94.4805 422.977C94.3036 422.545 94.2456 421.921 94.2863 421.346C94.3267 420.914 94.4065 420.531 94.5651 420.291C94.7237 420.052 94.9213 420.052 95.0591 420.292C95.1379 420.436 95.177 420.628 95.216 420.868C95.294 421.396 95.2729 422.019 95.1532 422.547C94.9747 422.882 94.6575 423.361 94.4805 422.977Z" fill="black"/>
<path d="M94.2596 428.072C94.2602 427.762 94.3279 427.487 94.4848 427.281C94.6417 427.11 94.8653 427.076 95.0214 427.248C95.1999 427.42 95.2661 427.833 95.2431 428.177C95.1976 428.521 95.0852 428.831 94.9505 429.106L94.9504 429.14C94.6152 429.07 94.2808 428.622 94.2596 428.072Z" fill="black"/>
<path d="M97.1667 328.195C98.216 328.091 99.2653 327.988 100.271 327.885L100.271 327.955C100.313 328.448 100.356 328.905 100.399 329.398C98.8687 329.535 97.3822 329.673 95.8956 329.881L95.8523 329.705C95.722 329.282 95.5918 328.86 95.4616 328.402C96.0738 328.298 96.5984 328.264 97.1667 328.195Z" fill="black"/>
<path d="M95.4928 399.06C95.4221 397.834 95.3881 396.608 95.3176 395.332C97.1109 395.091 98.9404 394.997 100.733 395.099C100.877 396.129 101.058 397.11 101.239 398.092L101.237 398.827C99.3348 398.872 97.3956 398.917 95.4928 399.06Z" fill="black"/>
<path d="M96.7862 328.882C96.1409 325.815 95.387 322.747 94.4882 319.762C96.3352 319.435 98.1822 319.149 100.065 318.863C100.494 321.805 100.993 325.452 101.386 328.229C100.697 328.31 100.046 328.392 99.3576 328.473C98.5245 328.637 97.6554 328.759 96.7862 328.882Z" fill="#D9D9D9"/>
<path d="M98.6355 351.923C98.5696 347.911 98.5036 343.899 98.4005 339.886C98.367 338.094 98.5201 335.952 99.9712 335.021C100.046 334.982 100.12 334.943 100.232 334.904C100.451 336.463 100.671 338.06 100.891 339.619C100.586 343.28 101.21 346.982 101.314 350.644C101.383 353.02 101.267 355.396 101.076 357.771C100.295 357.848 99.5149 357.885 98.6973 357.961C98.699 357.143 98.6636 356.286 98.6653 355.468C98.6677 354.338 98.6702 353.131 98.6355 351.923Z" fill="black"/>
<path d="M98.554 367.408C98.4739 364.324 98.437 361.24 98.3568 358.156C99.266 358.08 100.175 358.004 101.128 357.967C100.95 360.23 100.685 362.494 100.507 364.758C100.106 370.651 100.396 376.585 101.38 382.443C102.149 386.972 103.309 391.542 103.213 396.07C102.52 396.03 101.784 395.989 101.092 395.948C99.162 387.278 98.7531 375.723 98.554 367.408Z" fill="black"/>
<path d="M99.7254 426.084C99.3919 425.89 99.1806 425.36 99.2121 424.781C99.2439 424.107 99.6698 423.625 100.095 423.337C100.338 423.193 100.582 423.049 100.824 423.194C101.127 423.388 101.187 424.014 101.185 424.545C101.185 424.882 101.123 425.219 101.062 425.556C100.697 425.941 100.029 426.277 99.7254 426.084Z" fill="black"/>
<path d="M102.485 328.031C102.896 328.015 103.343 327.998 103.753 327.981C104.61 327.948 105.431 327.915 106.288 327.899C106.288 328.127 106.324 328.356 106.324 328.585C105.094 328.705 103.826 328.755 102.558 328.805C101.85 328.839 101.179 328.855 100.508 328.889C100.471 328.643 100.434 328.414 100.398 328.168L100.398 328.132C101.069 328.099 101.777 328.065 102.485 328.031Z" fill="black"/>
<path d="M100.966 335.482C100.752 333.537 100.538 331.593 100.397 329.649C101.051 329.566 101.742 329.483 102.397 329.442C103.634 329.318 104.87 329.236 106.071 328.901C106.103 331.056 106.171 333.211 106.203 335.366C106.236 336.887 106.269 338.409 106.302 339.93C105.869 338.661 105.362 337.393 104.491 336.461C103.621 335.403 102.131 334.85 100.966 335.482Z" fill="#D9D9D9"/>
<path d="M101.406 318.981C101.598 318.942 101.79 318.903 102.01 318.864C102.525 321.82 102.985 324.777 103.363 327.772C103.061 327.811 102.732 327.85 102.43 327.888C102.106 325.248 101.729 321.779 101.406 318.981Z" fill="black"/>
<path d="M102.775 357.457C103.33 351.414 102.562 345.37 101.76 339.325C101.76 339.286 101.76 339.247 101.761 339.208C101.83 338.389 102.002 337.454 102.647 337.065C103.259 336.716 104.005 337.029 104.581 337.42C105.157 337.811 105.665 338.28 106.139 338.788C106.449 353.059 106.894 367.368 108.833 381.448C109.501 386.284 110.34 391.159 110.092 396.071C110.091 396.422 110.057 396.734 110.022 397.085C108.496 396.418 106.834 396.025 105.206 395.749C104.663 395.669 104.12 395.59 103.544 395.55C103.621 390.989 102.714 386.464 102.113 381.94C101.344 376.09 101.119 370.163 101.437 364.277C101.543 362.016 101.752 359.755 101.926 357.494C102.198 357.494 102.469 357.456 102.775 357.457Z" fill="#D9D9D9"/>
<path d="M102.077 339.919C101.841 338.023 101.605 336.079 101.368 334.183C102.651 333.523 104.252 334.095 105.291 335.282C106.21 336.326 106.767 337.749 107.285 339.172C107.285 339.219 107.285 339.219 107.285 339.267C106.726 338.649 106.086 338.079 105.446 337.604C104.766 337.129 103.886 336.7 103.164 337.173C102.402 337.645 102.2 338.782 102.118 339.777C102.118 339.824 102.077 339.872 102.077 339.919Z" fill="black"/>
<path d="M101.703 350.855C101.634 347.222 101.204 343.55 101.418 339.918C102.022 345.909 102.601 351.9 102.177 357.889C101.971 357.927 101.766 357.927 101.534 357.965C101.668 355.569 101.75 353.212 101.703 350.855Z" fill="#6C6B6C"/>
<path d="M101.801 397.477C101.601 396.724 101.442 395.893 101.242 395.061C101.887 395.102 102.572 395.143 103.217 395.184C103.216 395.936 103.174 396.688 103.051 397.479L103.05 398.073C102.607 398.072 102.203 398.071 101.76 398.07L101.801 397.477Z" fill="black"/>
<path d="M103.482 327.89C102.903 324.714 102.198 321.579 101.409 318.445C102.958 318.239 104.465 318.033 106.014 317.87L106.096 318.622C106.174 321.63 106.251 324.679 106.329 327.687C105.366 327.769 104.445 327.809 103.482 327.89Z" fill="#D9D9D9"/>
<path d="M103.213 398.817L103.214 398.253C103.286 397.538 103.323 396.824 103.36 396.072C103.928 396.111 104.53 396.188 105.098 396.264C106.799 396.531 108.501 396.91 110.13 397.553C110.094 398.042 110.022 398.568 109.914 399.094C107.645 398.939 105.411 398.859 103.213 398.817Z" fill="black"/>
<path d="M89.7492 222.549L89.7908 202.536L97.8184 202.553C101.645 202.562 104.511 204.348 104.504 207.828C104.501 209.37 103.582 211.03 102.375 211.66C104.078 212.494 105.572 214.158 105.567 216.729C105.559 220.486 102.934 222.617 98.5254 222.607L89.7491 222.588L89.7492 222.549ZM94.1423 210.179L97.3034 210.186C99.1335 210.19 100.175 209.598 100.177 208.214C100.18 206.83 99.1417 206.234 97.3116 206.231L94.1505 206.224L94.1423 210.179ZM94.1241 218.919L97.4932 218.927C99.9472 218.932 101.155 218.262 101.159 216.403C101.163 214.544 99.9577 213.869 97.5037 213.864L94.1346 213.857L94.1241 218.919Z" fill="white"/>
<path d="M109.509 222.591L109.551 202.579L113.64 202.588L113.624 210.221L117.831 210.23C121.998 210.239 124.47 212.657 124.462 216.453C124.455 220.211 121.972 222.657 117.805 222.649L109.509 222.631L109.509 222.591ZM113.606 218.961L116.79 218.968C119.11 218.973 120.252 218.303 120.255 216.444C120.259 214.585 119.12 213.911 116.801 213.906L113.616 213.899L113.606 218.961ZM129.128 222.633L129.17 202.621L133.259 202.63L133.217 222.642L129.128 222.633Z" fill="white"/>
<path d="M147.457 201.659C151.698 201.668 154.418 203.562 155.967 207.302L152.345 208.902C151.416 206.69 149.823 205.401 147.45 205.395C144.026 205.388 142.463 208.318 142.455 212.175C142.447 215.992 143.958 218.969 147.421 218.976C149.756 218.981 151.354 217.699 152.331 215.491L155.946 217.106C154.382 220.8 151.616 222.722 147.414 222.713C141.149 222.7 138.163 217.791 138.175 212.206C138.187 206.501 141.193 201.645 147.457 201.659Z" fill="white"/>
<path d="M158.932 206.331L158.939 202.685L172.769 202.714L172.762 206.36L167.722 206.349L167.688 222.756L163.863 222.747L163.897 206.341L158.932 206.331Z" fill="white"/>
<path d="M184.099 209.924L187.444 209.931L187.446 209.044C187.452 206.502 185.723 205.49 183.685 205.486C182.108 205.483 180.722 206.367 180.065 208.181L176.413 207.366C177.228 203.94 180.001 201.727 183.77 201.735C188.308 201.745 191.534 203.809 191.521 209.819L191.495 222.484L188.111 222.476L187.732 219.814C186.459 221.707 184.495 222.791 181.688 222.785C178.458 222.778 175.693 220.836 175.702 216.561C175.672 212.366 179.1 209.913 184.099 209.924ZM182.311 219.076C184.772 219.081 187.429 217.433 187.436 213.884L187.437 213.44L183.938 213.433C181.477 213.427 179.936 214.634 179.932 216.57C179.89 218.022 180.619 219.072 182.311 219.076Z" fill="white"/>
<path d="M196.441 222.776L196.482 202.763L204.008 202.779C207.596 202.787 210.282 204.573 210.275 208.053C210.272 209.596 209.411 211.255 208.278 211.885C209.876 212.719 211.276 214.383 211.27 216.954C211.263 220.711 208.802 222.842 204.668 222.833L196.441 222.815L196.441 222.776ZM200.561 210.405L203.524 210.412C205.24 210.415 206.216 209.824 206.219 208.44C206.222 207.056 205.248 206.46 203.532 206.457L200.569 206.45L200.561 210.405ZM200.543 219.146L203.701 219.153C206.002 219.158 207.134 218.488 207.138 216.629C207.142 214.77 206.012 214.095 203.712 214.09L200.553 214.083L200.543 219.146Z" fill="white"/>
<path d="M215.21 222.858L215.252 202.806L219.285 202.815L219.269 210.82L226.383 202.83L231.541 202.841L223.3 212.057L232.003 222.894L226.845 222.883L219.264 213.277L219.244 222.867L215.21 222.858Z" fill="white"/>
<path d="M242.386 210.048L245.732 210.055L245.733 209.168C245.739 206.627 244.01 205.615 241.972 205.611C240.395 205.607 239.009 206.492 238.352 208.305L234.7 207.491C235.515 204.064 238.288 201.852 242.057 201.86C246.595 201.869 249.821 203.933 249.808 209.943L249.782 222.608L246.398 222.601L246.019 219.938C244.746 221.831 242.782 222.916 239.975 222.91C236.745 222.903 233.98 220.961 233.989 216.685C233.959 212.491 237.387 210.038 242.386 210.048ZM240.636 219.2C243.098 219.206 245.754 217.558 245.762 214.008L245.763 213.565L242.263 213.557C239.802 213.552 238.261 214.759 238.257 216.695C238.177 218.147 238.944 219.197 240.636 219.2Z" fill="white"/>
<path d="M60.0382 259.622L60.0799 239.57L64.3507 239.579L64.334 247.584L71.8656 239.596L77.3273 239.607L68.6023 248.822L77.8194 259.66L72.3578 259.649L64.3289 250.041L64.309 259.631L60.0382 259.622Z" fill="white"/>
<path d="M88.724 239.63C94.9526 239.643 98.5925 244.451 98.5806 250.179C98.5686 255.946 94.9088 260.698 88.6802 260.685C82.4516 260.671 78.8117 255.864 78.8236 250.136C78.8355 244.409 82.4954 239.617 88.724 239.63ZM88.6879 256.974C92.2981 256.982 94.2095 253.598 94.2166 250.169C94.2236 246.781 92.3662 243.349 88.7163 243.341C85.1061 243.333 83.1947 246.717 83.1876 250.146C83.1805 253.574 85.038 256.966 88.6879 256.974Z" fill="white"/>
<path d="M102.515 259.712L102.556 239.66L106.399 239.668L106.384 247.237L113.515 247.253L113.531 239.684L117.374 239.692L117.332 259.744L113.489 259.736L113.508 250.899L106.376 250.883L106.358 259.72L102.515 259.712Z" fill="white"/>
<path d="M124.247 259.759L124.289 239.707L128.085 239.715L128.068 247.72L134.765 239.729L139.62 239.74L131.862 248.957L140.053 259.793L135.198 259.783L128.063 250.177L128.043 259.767L124.247 259.759Z" fill="white"/>
<path d="M141.082 239.742L145.401 239.751L150.042 253.225L154.583 239.771L158.863 239.78L148.844 267.832L144.798 267.823L148.007 258.749L141.082 239.742Z" fill="white"/>
<path d="M161.768 267.858L161.825 240.098L165.777 240.106L165.772 242.371C166.382 241.24 168.475 239.8 171.021 239.805C176.72 239.818 179.599 243.689 179.586 250.014C179.573 256.144 176.715 260.199 170.902 260.186C168.509 260.181 166.611 258.967 165.74 257.676L165.719 267.867L161.768 267.858ZM170.454 256.554C173.303 256.56 175.398 254.066 175.407 249.966C175.415 245.906 173.369 243.363 170.481 243.357C167.632 243.351 165.537 245.845 165.528 249.945C165.52 254.045 167.604 256.548 170.454 256.554Z" fill="white"/>
<path d="M192.819 239.852C197.06 239.861 199.779 241.756 201.328 245.496L197.706 247.095C196.777 244.883 195.184 243.594 192.811 243.589C189.387 243.582 187.824 246.512 187.816 250.369C187.809 254.186 189.32 257.163 192.783 257.17C195.117 257.175 196.715 255.893 197.692 253.685L201.308 255.3C199.744 258.993 196.977 260.916 192.775 260.907C186.511 260.894 183.525 255.985 183.536 250.4C183.548 244.735 186.554 239.839 192.819 239.852Z" fill="white"/>
<path d="M205.249 259.931L205.291 239.879L209.39 239.888L209.374 247.457L216.981 247.474L216.997 239.904L221.096 239.913L221.055 259.965L216.955 259.956L216.974 251.119L209.367 251.103L209.348 259.94L205.249 259.931Z" fill="white"/>
<path d="M226.986 259.939L227.027 239.926L230.939 239.935L230.923 247.568L234.948 247.576C238.936 247.585 241.301 250.003 241.293 253.8C241.285 257.557 238.91 260.004 234.923 259.995L226.985 259.978L226.986 259.939ZM230.905 256.269L233.952 256.275C236.172 256.28 237.264 255.61 237.268 253.751C237.272 251.892 236.182 251.218 233.963 251.213L230.916 251.206L230.905 256.269ZM245.756 259.979L245.798 239.967L249.748 239.975L249.706 259.987L245.756 259.979Z" fill="white"/>
<path d="M253.655 260.037L260.335 249.471L254.415 239.987L258.92 239.997L262.575 245.909L266.256 240.012L270.761 240.022L264.801 249.48L271.437 260.075L266.932 260.066L262.521 253.042L258.081 260.047L253.655 260.037Z" fill="white"/>
<path d="M119.197 313.888L119.255 286.128L123.206 286.136L123.202 288.401C123.812 287.27 125.905 285.83 128.45 285.835C134.149 285.847 137.029 289.719 137.016 296.044C137.003 302.174 134.145 306.229 128.332 306.216C125.938 306.211 124.041 304.997 123.17 303.706L123.149 313.897L119.197 313.888ZM127.883 302.623C130.733 302.629 132.828 300.135 132.836 296.035C132.845 291.975 130.798 289.432 127.911 289.426C125.061 289.42 122.966 291.914 122.958 296.014C122.987 300.114 125.034 302.617 127.883 302.623Z" fill="white"/>
<path d="M148.367 293.675L151.713 293.682L151.715 292.837C151.72 290.417 149.991 289.453 147.953 289.448C146.376 289.445 144.99 290.287 144.333 292.014L140.681 291.238C141.496 287.975 144.269 285.868 148.037 285.876C152.575 285.886 155.801 287.852 155.789 293.576L155.764 305.637L152.38 305.63L152.001 303.094C150.728 304.897 148.765 305.93 145.957 305.924C142.727 305.917 139.962 304.067 139.971 299.995C139.941 296 143.368 293.664 148.367 293.675ZM146.619 302.391C149.08 302.396 151.736 300.827 151.743 297.447L151.744 297.024L148.245 297.017C145.784 297.011 144.243 298.16 144.239 300.004C144.159 301.387 144.888 302.387 146.619 302.391Z" fill="white"/>
<path d="M170.557 277.763L172.102 277.766C173.572 277.769 174.364 277.295 174.933 275.91L177.382 275.915C177.374 280.036 175.298 281.458 172.057 281.451L170.398 281.448C167.346 281.441 165.155 283.616 164.883 287.737C166.053 286.63 168.129 285.287 170.843 285.293C176.308 285.305 179.501 290.027 179.49 295.654C179.478 301.321 176.001 305.99 170.083 305.977C164.317 305.965 160.709 301.241 160.725 293.276C160.749 281.705 164.677 277.75 170.557 277.763ZM170.091 302.292C173.521 302.299 175.337 298.974 175.344 295.606C175.351 292.277 173.586 288.905 170.119 288.898C166.689 288.89 164.873 292.215 164.866 295.584C164.897 298.952 166.661 302.285 170.091 302.292Z" fill="white"/>
<path d="M192.847 285.973C198.764 285.985 202.222 290.564 202.211 296.019C202.2 301.512 198.723 306.037 192.806 306.025C186.888 306.012 183.43 301.433 183.442 295.979C183.453 290.524 186.968 285.96 192.847 285.973ZM192.813 302.491C196.243 302.498 198.058 299.275 198.065 296.01C198.072 292.783 196.307 289.514 192.84 289.507C189.41 289.499 187.594 292.722 187.588 295.988C187.619 299.253 189.383 302.483 192.813 302.491Z" fill="white"/>
<path d="M205.191 289.646L205.199 286L219.029 286.03L219.021 289.675L213.996 289.665L213.961 306.071L210.146 306.063L210.18 289.657L205.191 289.646Z" fill="white"/>
</svg>
