<svg width="359" height="208" viewBox="0 0 359 208" fill="none" xmlns="http://www.w3.org/2000/svg">
<path d="M313.741 179.558C312.912 173.112 310.151 166.917 305.815 162.117C307.002 162.285 308.19 162.536 309.377 162.787C309.681 162.843 309.957 162.899 310.261 162.955C310.979 163.094 311.697 163.206 312.415 163.289C312.664 163.317 312.94 163.345 313.189 163.345C324.954 164.127 336.774 163.206 348.512 162.285C352.212 166.22 356.88 171.661 358.067 176.712C358.73 179.447 358.62 182.321 358.012 185.056V185.083C356.631 191.446 355.306 193.79 352.599 197.278C351.936 198.115 351.273 198.98 350.307 199.455C349.478 199.873 348.512 199.929 347.573 199.985C334.04 200.766 320.48 200.766 306.947 200.013C306.809 200.013 306.643 199.985 306.505 199.985C306.257 199.985 306.036 199.957 305.787 199.929C311.007 197.529 313.575 191.167 313.934 185.279C314.045 183.381 313.99 181.456 313.741 179.558Z" fill="#B95447"/>
<path d="M313.742 179.558C313.99 181.455 314.045 183.381 313.935 185.306C313.604 191.194 311.008 197.557 305.788 199.957C303.937 199.845 302.115 199.733 300.264 199.594L300.209 199.65C300.181 199.622 300.181 199.622 300.154 199.594C299.601 198.924 299.436 198.031 299.242 197.194C298.773 194.906 298.331 192.59 297.944 190.273C299.16 189.381 300.292 188.376 301.369 187.343C303.855 184.971 309.268 181.707 313.742 179.558Z" fill="#F28BBB"/>
<path d="M294.327 157.764C293.498 157.876 292.67 158.071 291.869 158.378C287.671 159.885 284.578 163.624 282.81 167.726C281.043 171.856 280.463 176.377 279.91 180.814C279.303 185.92 278.944 191.697 282.23 195.632C282.341 195.771 282.451 195.911 282.589 196.022C282.562 196.05 282.562 196.078 282.534 196.078C281.153 197.557 279.082 198.059 277.093 198.227C276.569 198.282 276.016 198.283 275.492 198.31C273.696 196.552 272.426 194.208 271.708 191.781C270.686 188.265 270.769 184.525 271.238 180.898C272.343 172.107 272.426 167.894 277.701 160.806C278.17 160.192 281.043 157.178 281.595 156.648C282.506 155.811 284.412 154.388 285.351 154.36C290.488 154.164 295.652 154.304 300.789 154.778C302.502 154.946 304.269 155.141 305.843 155.867C308.688 157.178 310.732 160.499 312.444 163.234C311.726 163.15 311.008 163.038 310.29 162.899C309.489 161.503 308.025 160.415 306.561 159.857C305.236 159.355 303.827 159.02 302.419 158.741C299.74 157.848 297.006 157.373 294.327 157.764Z" fill="#5D5C5D"/>
<path d="M313.742 179.558C309.268 181.707 303.855 184.972 301.397 187.316C300.32 188.348 299.187 189.353 297.972 190.246C297.392 186.618 297.033 182.99 297.227 179.335C297.53 173.335 299.464 167.196 303.717 163.01C304.131 162.592 304.656 162.173 305.236 162.062C305.429 162.089 305.65 162.117 305.843 162.145C310.152 166.917 312.913 173.112 313.742 179.558Z" fill="#785755"/>
<path d="M306.505 199.984C306.643 199.984 306.809 200.012 306.947 200.012C306.284 200.208 305.621 200.459 304.958 200.682C304.351 200.654 303.771 200.654 303.163 200.654C303.771 200.626 304.406 200.487 304.986 200.263C305.179 200.208 305.345 200.124 305.538 200.04C305.87 200.04 306.173 200.012 306.505 199.984Z" fill="#5D5C5D"/>
<path d="M305.788 199.929C305.705 199.985 305.595 200.013 305.512 200.041C304.021 200.152 302.529 200.236 301.038 200.264C300.706 200.096 300.43 199.873 300.182 199.594L300.237 199.538C302.115 199.706 303.965 199.817 305.788 199.929Z" fill="#F28BBB"/>
<path d="M305.539 200.04C305.373 200.124 305.179 200.18 304.986 200.264C304.406 200.459 303.799 200.598 303.163 200.654C302.915 200.654 302.694 200.654 302.445 200.654C301.948 200.626 301.479 200.487 301.064 200.291C302.556 200.236 304.047 200.152 305.539 200.04Z" fill="#5D5C5D"/>
<path d="M303.164 200.654C303.771 200.654 304.351 200.682 304.959 200.682C304.462 200.877 303.964 201.045 303.467 201.24C298.082 203.054 292.255 202.607 286.621 202.161C285.709 202.077 284.798 202.021 283.914 201.91C285.709 201.714 287.477 201.491 289.272 201.296C293.663 200.849 298.054 200.626 302.473 200.654C302.694 200.654 302.915 200.654 303.164 200.654Z" fill="#5D5C5D"/>
<path d="M302.446 200.653C298.028 200.625 293.636 200.848 289.245 201.295C287.45 201.462 285.682 201.686 283.887 201.909C281.871 201.658 279.883 201.239 278.115 200.318C277.149 199.788 276.265 199.146 275.464 198.365C275.989 198.365 276.541 198.337 277.066 198.281C279.054 198.114 281.153 197.584 282.506 196.132C282.534 196.105 282.562 196.077 282.562 196.077C285.71 199.453 290.792 200.179 295.431 200.318C297.309 200.374 299.16 200.374 301.038 200.318C301.48 200.486 301.949 200.597 302.446 200.653Z" fill="#5D5C5D"/>
<path d="M300.208 199.621C300.457 199.9 300.733 200.123 301.064 200.291C299.186 200.346 297.336 200.346 295.458 200.291C290.818 200.151 285.736 199.425 282.588 196.049C283.085 195.491 283.472 194.849 284.052 194.403C285.488 193.258 287.559 193.677 289.382 193.649C292.53 193.593 295.402 192.17 297.971 190.245C298.33 192.561 298.799 194.877 299.269 197.165C299.435 198.002 299.628 198.895 300.18 199.565C300.18 199.565 300.18 199.593 300.208 199.621Z" fill="#F28BBB"/>
<path d="M278.114 200.291C279.91 201.239 281.87 201.658 283.887 201.881C282.229 202.077 280.545 202.244 278.888 202.356C265.935 203.249 252.927 200.598 240.002 201.63C234.617 202.049 228.817 203.053 224.039 200.486C229.01 199.119 233.981 197.723 238.953 196.356C242.93 195.24 246.962 194.151 251.104 194.124C259.362 194.068 267.288 198.393 275.491 198.309C276.264 199.119 277.148 199.76 278.114 200.291Z" fill="#F28BBB"/>
<path d="M216.638 197.976C217.328 198.924 216.776 200.347 215.809 200.989C214.843 201.631 213.6 201.687 212.468 201.743C204.845 202.189 197.223 203.78 189.628 203.696C193.273 203.696 196.919 203.138 200.399 202.078C205.729 200.431 210.921 197.529 216.472 197.976H216.638Z" fill="#F28BBB"/>
<path d="M170.019 191.78C171.234 192.59 172.007 194.292 171.289 195.575C170.378 197.194 168.085 197.027 166.29 196.664C156.873 194.822 147.289 194.013 137.706 194.18C134.613 194.236 130.636 194.431 128.012 196.078C124.228 195.073 120.472 193.901 116.716 192.757C112.27 191.39 107.685 189.939 104.068 186.981C102.328 185.557 100.753 183.576 100.864 181.344C100.919 180.004 101.582 178.749 102.217 177.577C103.239 175.707 104.261 173.809 105.255 171.94C104.979 175.177 106.084 178.637 108.818 180.283C109.922 180.953 111.165 181.26 112.408 181.567C119.368 183.325 126.3 185.083 133.259 186.841C137.181 187.846 141.13 188.822 145.107 189.436C151.929 190.497 158.889 190.441 165.793 190.804C167.284 190.859 168.803 190.971 170.019 191.78Z" fill="#050606"/>
<path d="M169.604 204.338C170.046 205.706 168.831 207.157 167.45 207.548C166.069 207.938 164.606 207.548 163.225 207.241C158.033 206.096 152.73 205.762 147.427 205.762C147.068 204.422 146.82 202.859 146.875 202.19C146.323 202.273 145.743 202.329 145.301 201.994C144.831 201.659 144.693 201.046 144.61 200.487C144.528 200.013 144.417 199.483 144.113 199.12C146.709 199.371 149.333 199.567 151.929 199.846C156.735 200.404 161.485 201.325 166.235 202.273C167.588 202.552 169.163 202.999 169.604 204.338Z" fill="#F28BBB"/>
<path d="M147.732 123.635C144.252 126.816 140.799 129.97 137.32 133.151C135.856 134.49 134.392 135.83 133.094 137.309C131.934 138.648 130.885 140.127 129.642 141.411C127.764 143.364 125.444 144.843 122.903 145.736C122.793 145.429 122.655 145.15 122.517 144.871C126.273 141.048 130.995 137.141 134.779 133.458C138.673 129.607 142.733 125.784 147.732 123.635Z" fill="#3B3C3B"/>
<path d="M77.6375 158.126C78.2451 158.796 78.8803 159.466 79.5155 160.136C78.8803 159.41 78.2451 158.74 77.6375 158.126ZM86.7237 153.55C86.6961 153.634 86.6685 153.689 86.6132 153.773C85.039 153.02 83.4924 152.238 81.9182 151.485C80.9792 151.038 80.0402 150.564 79.0184 150.341C77.9689 150.09 76.8918 150.118 75.8424 150.313C76.3119 151.792 77.1404 153.159 78.2175 154.248C78.8251 154.861 79.5155 155.42 80.1231 156.006C82.0287 157.875 83.2439 160.303 84.7076 162.535C84.7629 162.619 84.8181 162.703 84.9286 162.759C85.1495 162.842 85.3428 162.591 85.4257 162.396C86.7237 159.689 86.1714 156.508 86.7237 153.55ZM105.034 151.597C106.194 150.592 107.078 149.308 107.437 147.829C107.161 148.053 106.802 148.192 106.443 148.248C105.697 148.332 104.979 148.108 104.233 147.913C103.736 147.801 103.211 147.718 102.687 147.69C101.913 147.634 101.14 147.662 100.394 147.801C99.7316 147.913 99.0964 148.108 98.5165 148.415C98.1298 148.611 97.7708 148.834 97.4394 149.113C97.1632 149.336 96.9146 149.587 96.6937 149.866C95.6166 151.206 95.2576 153.048 95.3128 154.778C96.6661 154.61 98.047 154.471 99.3726 154.192C94.291 156.285 89.9826 160.275 86.4752 164.628C93.3796 159.55 100.892 155.364 108.79 152.155C108.79 152.155 108.818 152.155 108.818 152.127C109.729 151.904 110.613 151.569 111.414 151.038C113.513 150.118 115.529 148.973 116.882 147.132C117.241 147.132 117.628 147.132 117.987 147.132C116.385 150.062 114.673 152.992 112.242 155.28C111.718 155.782 111.138 156.257 110.585 156.703C110.364 156.759 110.143 156.787 109.923 156.843C106.691 157.429 103.377 157.178 100.091 157.54C99.5936 157.596 98.986 157.708 98.765 158.182C101.72 158.936 104.813 159.103 107.851 158.74C107.382 159.103 106.912 159.466 106.443 159.829C101.72 163.763 98.5717 169.595 97.826 175.763C99.0412 173.195 100.256 170.6 101.941 168.312C104.924 164.182 109.122 161.196 112.74 157.624C113.568 157.345 114.369 157.038 115.17 156.675C116.744 155.95 118.346 154.973 119.092 153.382C119.423 152.685 119.561 151.876 120.058 151.29C120.528 150.676 122.102 150.285 122.599 150.871C122.516 151.178 122.406 151.457 122.295 151.764C122.24 151.931 122.157 152.127 122.102 152.294C121.439 154.136 120.693 156.117 119.119 157.261C117.656 158.322 115.722 158.461 114.093 159.27C111.469 160.526 109.923 163.261 108.542 165.828C107.437 167.865 106.332 169.902 105.255 171.94C104.233 173.809 103.211 175.707 102.217 177.576C101.582 178.776 100.919 180.004 100.864 181.344C100.753 183.604 102.328 185.585 104.068 186.98C107.686 189.938 112.27 191.362 116.717 192.757C120.473 193.901 124.229 195.073 128.012 196.078C132.403 197.25 136.822 198.254 141.324 198.812C141.821 198.868 142.318 198.924 142.815 198.98C143.229 199.036 143.644 199.063 144.086 199.119C144.389 199.482 144.5 200.012 144.583 200.487C144.666 201.045 144.804 201.659 145.273 201.993C145.715 202.3 146.323 202.245 146.847 202.189C146.792 202.859 147.041 204.449 147.4 205.761C141.821 205.761 136.215 206.096 130.636 206.151C120.279 206.291 109.923 205.482 99.6764 203.807V203.528C95.5614 202.133 91.2806 200.654 88.3532 197.445C86.1161 195.017 84.7076 191.669 81.7802 190.162C80.2059 189.352 78.3556 189.185 76.7537 188.376C75.1519 187.566 73.8263 185.669 74.5719 184.05C74.9586 183.213 75.8976 182.516 75.7595 181.567C75.5938 180.534 74.2958 180.199 73.3291 179.893C72.3349 179.558 71.3131 178.33 72.0864 177.604C70.4845 177.437 70.0426 175.316 69.9874 173.698C69.9322 172.33 69.5179 170.628 68.4408 170.098C70.1255 170.265 71.8102 168.591 72.0864 166.805C72.3901 164.768 71.4788 162.759 70.595 160.889C69.656 158.908 68.717 156.954 67.778 154.973C66.5904 152.49 65.4305 149.504 66.8666 147.16C67.1428 146.685 67.5294 146.127 67.6951 145.597C67.8332 145.96 67.9989 146.295 68.137 146.629C70.595 152.155 73.771 154.303 77.5823 158.126C74.9034 155.085 72.8044 151.708 72.0035 147.746C76.4776 147.857 81.1449 147.997 85.1495 150.062C86.0885 150.536 87.0827 151.15 88.1046 150.955C88.2703 150.927 88.4636 150.871 88.6017 150.787C89.0436 150.592 89.4303 150.229 89.7064 149.783C90.3969 149.225 91.1149 148.722 91.8606 148.304C94.5395 146.741 97.5498 145.792 100.256 144.257C100.45 144.146 100.671 144.006 100.892 143.895C101.251 143.671 101.637 143.448 101.996 143.225C104.73 141.579 107.658 139.848 110.42 140.63C110.116 141.495 110.005 142.444 110.144 143.364C110.144 143.392 110.144 143.448 110.171 143.476C110.226 143.56 110.337 143.56 110.42 143.532C110.944 143.448 111.469 143.364 111.994 143.281C112.187 143.253 112.353 143.225 112.546 143.197C113.016 143.113 113.54 143.002 113.817 142.611C114.01 142.723 114.203 142.806 114.397 142.862C115.198 143.141 116.054 143.169 116.91 143.113C117.49 143.085 118.07 143.03 118.622 143.002C119.064 143.002 119.506 143.002 119.948 143.085C120.279 143.141 120.611 143.253 120.914 143.392C120.997 143.42 121.08 143.476 121.163 143.532C121.715 143.867 122.157 144.341 122.489 144.871C122.654 145.15 122.792 145.429 122.875 145.736C123.013 146.099 123.096 146.49 123.151 146.881C122.185 146.881 120.638 147.076 119.948 146.574L119.893 146.546C119.948 146.35 120.003 146.127 120.141 145.988C121.108 145.095 120.003 142.918 118.843 143.839C117.186 144.146 116.937 143.337 115.418 144.09C114.507 144.537 113.927 145.485 113.402 146.35C113.347 146.462 113.292 146.574 113.292 146.685C113.32 146.881 113.568 146.936 113.789 146.964C114.314 147.02 114.866 147.048 115.391 147.076C114.038 148.025 112.85 150.034 111.552 150.927C111.497 150.955 111.442 151.011 111.386 151.038C110.53 151.429 109.646 151.764 108.79 152.127C107.078 152.545 105.255 152.657 103.515 152.964C103.211 153.02 102.935 153.076 102.631 153.131C102.797 153.048 102.963 152.992 103.101 152.908C103.294 152.796 103.46 152.713 103.653 152.601C104.178 152.294 104.62 151.959 105.034 151.597Z" fill="#121313"/>
<path d="M157.895 139.876C151.267 145.066 143.009 148.108 134.641 148.471C130.802 148.638 126.908 148.247 123.125 148.833C123.207 148.387 123.235 147.94 123.207 147.494C134.199 143.169 147.235 144.954 157.895 139.876Z" fill="#3B3C3B"/>
<path d="M138.232 111.971C137.486 112.976 136.823 114.008 136.161 115.068C130.444 124.138 124.672 133.318 121.219 143.476L121.192 143.532C121.109 143.476 121.026 143.448 120.943 143.392C120.639 143.253 120.308 143.141 119.977 143.085C123.622 131.672 130.306 121.012 138.232 111.971Z" fill="#3B3C3B"/>
<path d="M135.055 159.521C136.215 161.279 137.292 163.065 138.341 164.879C135.966 160.972 131.216 159.131 128.454 155.475C127.985 154.833 127.571 154.164 127.018 153.605C125.803 152.406 124.036 151.987 122.323 151.708C122.434 151.401 122.517 151.122 122.627 150.815C122.71 150.536 122.793 150.257 122.876 149.978C126.355 151.568 129.918 153.271 132.514 156.089C133.481 157.149 134.282 158.321 135.055 159.521Z" fill="#3B3C3B"/>
<path d="M118.871 124.221C119.202 123.579 122.765 117.719 123.483 117.887C122.075 121.068 117.877 129.495 117.435 132.928C116.993 136.332 117.269 139.876 118.65 143.001C118.07 143.029 117.518 143.085 116.938 143.113C115.64 140.267 114.922 136.109 115.502 133.095C116.082 129.97 117.407 127.04 118.871 124.221Z" fill="#3B3C3B"/>
<path d="M123.124 148.834C123.069 149.224 122.986 149.615 122.876 150.006C122.793 150.285 122.71 150.564 122.627 150.843C122.13 150.257 120.556 150.675 120.086 151.261C119.617 151.875 119.451 152.657 119.12 153.354C118.374 154.945 116.772 155.922 115.198 156.647C114.397 157.01 113.596 157.317 112.768 157.596C113.209 157.177 113.624 156.731 114.038 156.284C114.507 155.782 114.949 155.224 115.336 154.61C116.413 153.829 117.324 152.852 117.904 151.652C118.623 150.229 118.843 148.638 119.12 147.076C119.341 147.048 119.534 146.992 119.7 146.852C119.81 146.769 119.865 146.657 119.893 146.518L119.948 146.545C120.639 147.048 122.185 146.852 123.152 146.852C123.179 147.048 123.207 147.243 123.207 147.466C123.235 147.941 123.179 148.387 123.124 148.834Z" fill="#994656"/>
<path d="M115.419 147.075C114.894 147.047 114.342 147.019 113.817 146.963C113.623 146.935 113.375 146.88 113.32 146.684C113.292 146.573 113.347 146.461 113.43 146.349C113.955 145.484 114.535 144.536 115.446 144.089C116.938 143.336 117.214 144.145 118.871 143.838C120.058 142.889 121.135 145.066 120.169 145.987C120.031 146.126 119.976 146.349 119.92 146.545C119.893 146.684 119.837 146.796 119.727 146.88C119.561 147.019 119.368 147.075 119.147 147.103C119.147 147.019 119.175 146.963 119.175 146.88C119.147 146.963 119.092 147.019 119.064 147.103C118.981 147.103 118.871 147.103 118.788 147.131C118.512 147.131 118.263 147.131 117.987 147.159C117.628 147.159 117.241 147.159 116.882 147.159C116.413 147.131 115.916 147.103 115.419 147.075Z" fill="#A54A5B"/>
<path d="M119.175 146.88C119.175 146.964 119.148 147.02 119.148 147.104C119.12 147.104 119.092 147.104 119.064 147.104C119.092 147.02 119.148 146.964 119.175 146.88Z" fill="#A54A5B"/>
<path d="M119.064 147.104C119.092 147.104 119.119 147.104 119.147 147.104C118.871 148.666 118.65 150.257 117.932 151.68C117.324 152.88 116.44 153.857 115.363 154.638C116.855 152.35 117.904 149.531 119.064 147.104Z" fill="#121313"/>
<path d="M118.788 147.131C118.871 147.131 118.954 147.131 119.065 147.104C117.905 149.531 116.883 152.35 115.336 154.638C113.955 155.643 112.271 156.312 110.586 156.703C111.166 156.256 111.718 155.782 112.243 155.28C114.673 152.992 116.358 150.061 117.987 147.131C118.264 147.131 118.54 147.131 118.788 147.131Z" fill="#3B3C3B"/>
<path d="M115.419 147.077C115.916 147.105 116.413 147.133 116.882 147.133C115.529 148.974 113.513 150.119 111.414 151.039C111.469 151.012 111.525 150.984 111.58 150.928C112.878 150.063 114.065 148.026 115.419 147.077Z" fill="#3B3C3B"/>
<path d="M110.586 156.703C112.271 156.312 113.955 155.643 115.336 154.638C114.95 155.224 114.508 155.782 114.038 156.312C113.624 156.759 113.182 157.205 112.768 157.624C111.166 158.154 109.536 158.517 107.879 158.712C108.763 158.042 109.702 157.401 110.586 156.703Z" fill="#3B3C3B"/>
<path d="M113.817 142.583C113.541 142.974 113.016 143.085 112.546 143.169C112.353 143.197 112.187 143.225 111.994 143.253C111.718 143.085 111.469 142.834 111.304 142.555C110.945 142.025 110.806 141.383 110.724 140.769L110.751 140.713C110.945 140.797 111.166 140.881 111.359 140.965C112.215 141.411 112.961 142.137 113.817 142.583Z" fill="#F2E03D"/>
<path d="M109.923 156.843C110.144 156.815 110.365 156.759 110.586 156.704C109.702 157.401 108.763 158.043 107.852 158.741C104.814 159.103 101.721 158.936 98.7656 158.183C98.9866 157.708 99.5665 157.597 100.091 157.541C103.35 157.178 106.692 157.401 109.923 156.843Z" fill="#994656"/>
<path d="M108.818 152.126C109.675 151.791 110.558 151.429 111.414 151.038C110.614 151.568 109.73 151.903 108.818 152.126Z" fill="#3B3C3B"/>
<path d="M101.223 153.69C101.693 153.55 102.135 153.355 102.577 153.16C102.604 153.16 102.632 153.132 102.66 153.132C102.963 153.076 103.24 153.02 103.543 152.964C105.283 152.657 107.134 152.574 108.818 152.127C108.818 152.127 108.791 152.127 108.791 152.155C100.864 155.364 93.3524 159.578 86.4756 164.629C89.983 160.276 94.2914 156.285 99.373 154.192C99.9806 154.053 100.616 153.913 101.223 153.69Z" fill="#3B3C3B"/>
<path d="M112.768 157.624C109.15 161.168 104.924 164.182 101.969 168.312C100.312 170.6 99.0968 173.195 97.854 175.762C98.5721 169.595 101.72 163.763 106.471 159.828C106.913 159.438 107.382 159.075 107.879 158.74C109.536 158.517 111.166 158.154 112.768 157.624Z" fill="#3B3C3B"/>
<path d="M103.985 149.001C104.426 149.476 104.979 150.759 105.034 151.597C104.62 151.959 104.15 152.294 103.681 152.573C103.736 152.238 103.57 151.457 103.432 151.15C103.128 150.425 102.797 149.699 102.3 149.085C101.803 148.471 101.14 147.969 100.367 147.857V147.774C101.112 147.634 101.886 147.606 102.659 147.662C103.128 148.108 103.57 148.555 103.985 149.001Z" fill="#F2E03D"/>
<path d="M100.395 147.885C101.168 147.997 101.831 148.499 102.328 149.113C102.825 149.727 103.129 150.453 103.461 151.178C103.599 151.485 103.764 152.266 103.709 152.601C103.544 152.713 103.35 152.824 103.157 152.908C102.328 153.159 100.644 151.959 99.9256 151.485C99.2075 151.011 98.7104 150.173 98.6276 149.28C98.6276 149.169 98.5723 148.75 98.5171 148.415C99.0971 148.136 99.7323 147.941 100.395 147.802V147.885Z" fill="#050606"/>
<path d="M99.8974 151.485C100.615 151.959 102.3 153.159 103.129 152.908C102.963 152.992 102.825 153.076 102.659 153.132C102.024 153.271 101.416 153.438 100.809 153.662C99.8422 153.522 98.627 152.992 98.0747 152.629C97.2738 152.099 96.8319 151.067 97.0528 150.118C97.1081 149.839 97.2738 149.42 97.4395 149.113C97.7709 148.834 98.1299 148.611 98.5166 148.416C98.5718 148.75 98.627 149.197 98.627 149.281C98.6823 150.174 99.1794 150.983 99.8974 151.485Z" fill="#F2E03D"/>
<path d="M102.025 143.226C101.638 143.449 101.279 143.673 100.92 143.896C100.368 143.868 99.1802 142.807 98.8488 142.361C97.8822 140.938 96.8327 139.459 95.3138 138.65C94.8995 138.426 94.4576 138.259 94.071 138.008C93.2701 137.45 92.7729 135.915 92.7729 134.771C94.789 135.859 96.8051 136.947 98.8212 138.036C100.202 138.789 101.611 141.301 102.025 143.226Z" fill="#F4C8D7"/>
<path d="M100.892 143.894C100.671 144.006 100.478 144.146 100.257 144.257C97.5502 145.792 94.5674 146.741 91.8609 148.303C91.1152 148.75 90.3696 149.224 89.7067 149.782C90.0105 149.336 90.1762 148.778 90.2591 148.248C90.3972 147.02 90.0658 145.792 89.8448 144.592C89.1268 140.936 89.3753 137.085 90.5353 133.542C91.281 133.932 92.0266 134.351 92.7723 134.741C92.7723 135.886 93.297 137.448 94.0703 137.978C94.457 138.258 94.8989 138.397 95.3131 138.62C96.8321 139.43 97.854 140.909 98.8482 142.332C99.152 142.806 100.34 143.866 100.892 143.894Z" fill="#050606"/>
<path d="M34.7199 95.0597C38.7245 98.213 44.1376 99.9711 48.2802 103.152C53.3342 107.031 56.3722 113.003 58.8301 118.891C60.791 123.607 62.5033 128.462 63.9394 133.374C64.2984 136.276 64.6298 139.206 64.9889 142.108C65.0717 142.834 65.2374 143.671 65.9003 143.95C66.2869 144.117 66.7564 144.061 67.1431 144.173C67.3088 144.647 67.5021 145.094 67.6678 145.54C67.5021 146.071 67.1154 146.629 66.8393 147.103C65.4031 149.419 66.5631 152.433 67.7506 154.917C68.6896 156.898 69.6286 158.851 70.5676 160.832C71.4514 162.702 72.3628 164.711 72.059 166.748C71.7828 168.534 70.0981 170.209 68.4135 170.041C68.2201 169.93 67.9716 169.874 67.723 169.874C67.944 169.958 68.1925 170.013 68.4135 170.041C69.4906 170.571 69.9048 172.302 69.9601 173.641C70.0153 175.26 70.4572 177.38 72.059 177.548C71.2857 178.273 72.3076 179.501 73.3018 179.836C74.296 180.171 75.5941 180.478 75.7322 181.51C75.8702 182.431 74.9589 183.129 74.5446 183.994C73.7989 185.612 75.1246 187.538 76.7264 188.319C78.3282 189.128 80.1786 189.268 81.7528 190.105C84.6803 191.612 86.0888 194.961 88.3258 197.388C91.2809 200.597 95.5616 202.104 99.649 203.472V203.751C94.1808 202.83 88.7401 201.686 83.3823 200.263C83.2718 200.235 83.1613 200.207 83.0232 200.179C80.0129 199.314 77.2511 196.719 74.4617 194.933C71.3686 192.924 67.7783 191.752 64.5746 189.938C60.2386 187.51 56.676 183.938 53.1409 180.394C46.8441 174.087 40.4368 167.613 35.5208 160.246C33.4495 157.149 31.6268 153.856 30.1906 150.368C29.583 148.917 29.0307 147.41 28.0088 146.238C27.1803 145.317 25.9375 144.675 24.7223 144.759C24.4185 144.787 24.1147 144.843 23.811 144.982C27.0422 137.643 25.827 134.322 25.1918 130.862C25.1366 130.165 25.0537 129.467 24.9433 128.797C24.9709 129.523 25.0814 130.192 25.1918 130.862C25.6337 137.057 23.2034 143.28 19.834 148.582C20.3035 148.136 20.6625 147.773 20.9663 147.466C16.9065 151.959 14.2829 157.791 13.5648 163.818C13.5372 163.707 13.5372 163.567 13.5096 163.456C13.4543 163.037 13.3715 162.618 13.1229 162.284C12.9296 162.032 12.681 161.893 12.4601 161.67C12.2115 161.418 12.0182 161.112 11.8525 160.777C10.9687 159.13 10.2783 157.4 9.78118 155.586C9.53262 156.061 8.84218 156.116 8.4003 155.837C7.95842 155.558 7.68224 155.056 7.4613 154.582C6.74324 153.075 6.13565 151.512 5.63853 149.894L5.36236 149.922C4.03671 139.345 -0.57544 128.434 0.805443 117.691C2.40727 105.161 13.0677 94.39 25.4404 92.6878C20.3311 84.3162 15.1666 75.8888 11.8249 66.6522C8.42792 57.3597 6.93656 47.1185 9.3393 37.519C12.4325 25.1849 21.5187 15.3623 31.0192 6.99067C31.0744 6.93486 31.1573 6.87905 31.2125 6.82324C31.2125 6.82324 31.2125 6.82324 31.2401 6.85115C31.4058 7.01858 31.4334 7.26973 31.461 7.49297C31.5715 8.63709 31.682 9.7533 31.8201 10.8974C31.8477 11.1765 31.8753 11.4555 31.7925 11.7067C31.6268 12.1532 31.1849 12.3764 30.8258 12.6834C30.4392 13.0461 30.163 13.5205 30.0802 14.0507L30.2182 14.3577C26.4899 17.7063 23.6176 22.0874 21.7672 26.7476C18.2874 35.5099 17.9008 45.2209 18.1493 54.6529C18.315 60.6804 18.7017 66.7917 20.5521 72.5123C23.3138 81.0234 29.0583 88.1671 34.7199 95.0597Z" fill="#F28BBB"/>
<path d="M86.6134 153.773C86.641 153.689 86.6686 153.633 86.7239 153.549C86.1991 156.507 86.7239 159.689 85.4535 162.423C85.343 162.619 85.1773 162.87 84.9563 162.786C84.8459 162.758 84.7906 162.647 84.7354 162.563C83.2717 160.33 82.0565 157.903 80.1509 156.033C79.5433 155.419 78.8528 154.889 78.2452 154.275C77.1681 153.159 76.3396 151.819 75.8701 150.34C76.9196 150.117 77.9967 150.117 79.0462 150.368C80.068 150.592 81.007 151.066 81.946 151.512C83.4926 152.238 85.0668 153.019 86.6134 153.773Z" fill="#F4C8D7"/>
<path d="M67.1983 144.202C66.8116 144.091 66.3421 144.146 65.9555 143.979C65.2927 143.7 65.127 142.835 65.0441 142.137C64.6851 139.207 64.326 136.305 63.9946 133.403C64.0775 133.71 64.1603 133.989 64.2432 134.296C65.1822 137.589 66.0107 140.965 67.1983 144.202Z" fill="#121313"/>
<path d="M60.1005 27.6135C59.9624 27.753 59.8243 27.8646 59.6586 27.9483C59.1062 28.2274 58.3882 28.1716 57.8911 27.7809C57.1178 27.167 56.8416 25.8834 55.875 25.7159C55.9302 24.8509 56.2064 23.9858 56.7035 23.2603C57.2835 22.5068 57.753 21.6418 58.0015 20.7209C59.1062 16.7025 56.9521 12.2377 53.4999 9.94944C50.0476 7.66121 45.6012 7.29844 41.569 8.19141C37.2883 9.11228 33.4494 11.3168 30.2182 14.3027L30.0801 13.9957C30.1629 13.4655 30.4391 12.9911 30.8258 12.6283C31.1848 12.3214 31.6267 12.0981 31.7924 11.6517C31.8752 11.4005 31.8476 11.1215 31.82 10.8424C31.7095 9.69829 31.599 8.58208 31.461 7.43796C31.4333 7.21472 31.4057 6.96357 31.24 6.79614C31.24 6.79614 31.24 6.79614 31.2124 6.76824C33.6704 4.61953 36.2664 2.49873 39.3596 1.49414C44.4413 -0.180177 49.9648 1.41042 54.9912 3.25217C59.5205 4.89858 64.4365 7.24263 66.0935 11.7912C68.0268 17.0932 64.6574 22.8696 60.7909 26.9996C60.5976 27.2228 60.4043 27.4181 60.1833 27.6414L60.1005 27.6135Z" fill="#121313"/>
<path d="M60.1003 27.6129L60.1832 27.6966C57.8909 30.0407 55.212 32.1336 52.036 32.5522C48.5562 32.9986 44.524 30.5988 44.4688 27.0548C44.4688 26.3572 44.6345 25.6037 45.2144 25.2131C46.1258 24.5991 47.3134 25.3247 48.3352 25.7991C51.2351 27.1385 54.7701 25.7991 56.731 23.2876C56.2339 24.0131 55.9577 24.8782 55.9025 25.7433C56.8691 25.8828 57.1452 27.1943 57.9185 27.8083C58.4157 28.1989 59.1337 28.2547 59.6861 27.9757C59.8242 27.8641 59.9622 27.7524 60.1003 27.6129Z" fill="#F28BBB"/>
<path d="M32.6211 193.733C33.063 193.956 33.3668 194.57 33.0906 194.961C32.8973 195.268 32.4554 195.323 32.0964 195.351C31.2678 195.435 30.4393 195.491 29.5832 195.574C29.1689 195.602 28.727 195.658 28.368 195.491C27.8985 195.295 27.5947 194.849 27.3185 194.43C26.5176 193.23 25.6891 192.03 25.1091 190.691C24.4463 189.212 24.0873 187.621 23.7282 186.031C22.5131 180.617 21.2703 175.204 20.276 169.734C19.7513 166.916 19.3094 164.014 19.8894 161.223C20.4693 158.377 22.0712 155.837 23.314 153.242C24.5844 150.619 25.551 147.633 24.7501 144.815V144.787C25.9376 144.703 27.2081 145.345 28.0366 146.266C29.0861 147.438 29.6384 148.945 30.2184 150.396C31.6545 153.884 33.4773 157.149 35.5486 160.274C29.9146 167.362 26.7938 176.431 26.849 185.529C26.849 187.147 26.9871 188.821 27.6223 190.328C28.2851 191.807 29.5556 193.119 31.1298 193.398C31.6545 193.509 32.1792 193.509 32.6211 193.733Z" fill="#AD648D"/>
<path d="M25.2467 130.919C25.8819 134.379 27.0695 137.7 23.8658 145.039C23.3135 145.29 22.844 145.709 22.4021 146.127C21.9326 146.574 21.4907 147.048 21.0488 147.523C20.745 147.83 20.386 148.192 19.9165 148.639C23.2582 143.337 25.7162 137.114 25.2467 130.919Z" fill="#AD648D"/>
<path d="M23.7002 194.654C24.8877 195.045 25.9924 196.468 25.2192 197.473C22.7059 196.803 19.5851 199.454 17.7624 197.584C17.2376 197.054 17.0443 196.328 16.851 195.631C14.6968 188.013 10.9961 180.813 6.02488 174.674C5.03064 173.446 3.95355 172.218 3.56691 170.684C2.98694 168.423 4.00879 166.107 4.69923 163.875C6.08011 159.326 6.08011 154.694 5.44491 150.006L5.72109 149.978C6.2182 151.596 6.82579 153.159 7.54385 154.666C7.76479 155.14 8.04097 155.643 8.48285 155.922C8.92473 156.201 9.61518 156.145 9.86373 155.67C10.3609 157.456 11.0513 159.214 11.9351 160.861C12.1008 161.168 12.2941 161.503 12.5426 161.754C12.7636 161.977 13.0121 162.144 13.2055 162.368C13.454 162.703 13.5369 163.121 13.5921 163.54C13.6197 163.651 13.6197 163.791 13.6474 163.903C13.5369 164.768 13.4816 165.661 13.4816 166.526C13.3712 171.018 14.3102 175.455 15.4701 179.809C16.5472 183.827 17.8176 187.817 19.2814 191.696C19.5023 192.31 19.7785 192.952 20.248 193.426C21.1317 194.236 22.5126 194.263 23.7002 194.654Z" fill="#121313"/>
<path d="M24.9985 128.855C25.109 129.552 25.2195 130.222 25.2471 130.92C25.1366 130.25 25.0262 129.552 24.9985 128.855Z" fill="#F28BBB"/>
</svg>
