<svg xmlns="http://www.w3.org/2000/svg" viewBox="0 0 328.8 260.87"><defs><style>.cls-1{fill:#fff;}</style></defs><title>Ресурс 2cats_all</title><g id="Слой_2" data-name="Слой 2"><g id="Слой_1-2" data-name="Слой 1"><g id="Слой_1-2-2" data-name="Слой 1-2"><path d="M290.2,160.27c.8-1.5,1.5-3.1,2.3-4.6a36.16,36.16,0,0,1,2-3.3,45.87,45.87,0,0,1,3.3-4.4,66.4,66.4,0,0,1,5.5-5.1,40.39,40.39,0,0,1,5.4-3.8,36.11,36.11,0,0,1,4.6-1.7c1.7-.7,3,.1,4.3,1a20.4,20.4,0,0,1,7.7,9,52.53,52.53,0,0,1,2.2,5.5,23.55,23.55,0,0,1,1,4.6,35.4,35.4,0,0,1,.2,4.6c0,1,.1,2,.1,2.9,0,1.7-.1,3.4-.1,5.2-.1,2.2-.2,4.3-.4,6.5-.2,2.6-.4,5.2-.5,7.7-.1,1.6,0,3.2-.1,4.8-.2,2.9-.4,5.8-.7,8.7-.2,2.4-.9,4.8-.8,7.2a25.92,25.92,0,0,1-1,6.3,46.21,46.21,0,0,1-1.9,6c-.9,2.5-2,5-3,7.5a22.88,22.88,0,0,1-3,5c-1.8,2.3-3.4,4.6-5.2,6.9a17,17,0,0,1-2.2,2.4c-1.4,1.3-2.9,2.6-4.4,3.9a26.22,26.22,0,0,1-2.5,2.2c-2.1,1.4-3.5,3.6-5.4,5.3a31,31,0,0,1-4.6,3.5,36.7,36.7,0,0,1-5.2,2.7c-2.2,1-4.5,1.9-6.7,2.7a8.42,8.42,0,0,1-2.7.4,37.26,37.26,0,0,1-4.7.1c-1.7-.1-3.4-.2-5.1-.4a18.4,18.4,0,0,1-9-3.7c-1.2-1-2.5-1.7-3.6-2.7q-3.6-3.15-6.9-6.6a47.16,47.16,0,0,1-4.1-4.8c-2.1-2.8-4.1-5.7-6-8.6a36.31,36.31,0,0,1-4.3-8.3c-.5-1.6-1.4-3.1-1.9-4.7a27.84,27.84,0,0,1-1.1-5c-.5-3-.7-5.9-1.2-8.9-.3-1.9-1-3.8-1.3-5.7-.5-2.4-.9-4.7-1.3-7.1a42.33,42.33,0,0,1-.5-5q-.15-3.15,0-6.3c.1-2.2.2-4.5.4-6.7a30.34,30.34,0,0,1,.6-4.2c.5-2.9,1-5.9,1.6-8.8.3-1.4.9-2.8,1.3-4.2a18.66,18.66,0,0,1,.7-2.2c.6-2,1.1-4,1.7-5.9.5-1.6,1.1-3.1,1.7-4.6a16.73,16.73,0,0,1,3.3-5c2.7-3.1,6.1-3,9.6-1.9a25,25,0,0,1,3.8,1.5,4.62,4.62,0,0,1,1.7,1.7c1.4,1.9,2.7,3.9,4,5.9,1.6,2.3,3.2,4.7,4.7,7,.7,1.2,1.4,2.4,2,3.7.5,1,1.3.7,2,.6a58.21,58.21,0,0,1,10.2-.6,50.14,50.14,0,0,1,9.5.9A14.75,14.75,0,0,0,290.2,160.27Zm-15.8,77a5.3,5.3,0,0,1,.6,1,4.27,4.27,0,0,0,4.1,3.4,27.88,27.88,0,0,1,5.8.7,4.08,4.08,0,0,0,1.9.1,10.88,10.88,0,0,0,3-.7c1-.6,2-1.2,3-1.9s1-1.3.2-2c-1.7-1.6-5.3-1.8-7.3-.6a9.49,9.49,0,0,1-2.1.9,1.31,1.31,0,0,1-1.2-.3,9,9,0,0,1-1.5-1.9,13,13,0,0,1-1.8-7.7,2.27,2.27,0,0,1,.7-1.8,3.77,3.77,0,0,0,.9-1.5,7.41,7.41,0,0,1,2.2-3.3c.4-.4.7-.8,1.1-1.2.8-1,1-1.7.4-2.7a7.73,7.73,0,0,0-4.5-3.4l-3.9-.9a8.2,8.2,0,0,0-4.4-.2c-1,.3-2,.5-2.9.8a1.53,1.53,0,0,0-1,.7,7.69,7.69,0,0,0,.9,6.9,21.16,21.16,0,0,1,1.1,2.1,6.5,6.5,0,0,0,2,2.6.81.81,0,0,1,.3,1,35.14,35.14,0,0,1-4.7,9,5.73,5.73,0,0,1-1.1,1.1,22.69,22.69,0,0,0-2.5,1.8,1.7,1.7,0,0,1-1.8.3,22,22,0,0,0-3.7-.6,2.77,2.77,0,0,0-1.3.3,9.55,9.55,0,0,0,7,3.5C268.1,242.87,271.9,241.57,274.4,237.27Zm26.1-55.9c8,5.8,10.7,9.7,13.5,19,.1-.1.1-.2.2-.3a29.34,29.34,0,0,0,3.7-7.8,13.57,13.57,0,0,0-1.4-10.4c-.5-.8-1-1.4-2-1.4-.7,0-1.5-.2-2.2-.2-2.6.1-5.2.3-7.8.5C303.2,180.87,301.8,181.17,300.5,181.37Zm-41.6,30.7,1.1-.3a29.06,29.06,0,0,1,3.5-1.8,12.67,12.67,0,0,0,4.2-2.5c.6-.6,1.4-1.3,1.5-2a10.87,10.87,0,0,0,0-3.6c0-.4-.5-.8-.9-1.2a9.38,9.38,0,0,0-1.2-.9c-1.3-1.4-2.6-2.8-4-4.1-1-.8-2-1.7-3-2.4l-.2.1A22.71,22.71,0,0,1,258.9,212.07Zm36.1-5.7a36.61,36.61,0,0,1-6-16.9c-.7.9-1.3,1.6-1.8,2.3-1.4,2.2-2.7,4.3-4,6.6a1.26,1.26,0,0,0,.2,1.3,18.39,18.39,0,0,0,2.2,1.7c1.8,1.2,3.6,2.4,5.5,3.6a7.13,7.13,0,0,0,3.9,1.4Zm-51.8-18h-.8c-2.1.6-4.2,1.1-6.3,1.8-1.9.7-2.4,1.7-1.9,3.7a1.42,1.42,0,0,0,.2.6,35.66,35.66,0,0,0,3.5,8.3,14.29,14.29,0,0,0,1.4,2l.2-.1C239.4,199,241,193.67,243.2,188.37Zm61.6,14.9a39.35,39.35,0,0,0-5.6-15.2c.2,5.7,1.7,10.9,5.6,15.2Zm-52.1-11.2a36,36,0,0,0-3.5,16.8A34.82,34.82,0,0,0,252.7,192.07Z"/><path d="M168.2,259.47a41.56,41.56,0,0,1-9.5-1.2,22,22,0,0,1-7.6-3.9c-.1-.1-.2-.2-.3-.2a7.89,7.89,0,0,1-3.1-1.7,27.25,27.25,0,0,1-2.5-2.3c-.8-.8-1.6-1.7-2.5-2.5a24.43,24.43,0,0,1-2.7-2.9c-1.4-1.9-2.6-3.8-3.9-5.7-.8-1.1-1.7-2.1-2.5-3.2s-1.2-2-1.8-3-1.2-2-1.7-3l-2.4-5.1c-.5-1.2-1-2.4-1.4-3.6-.8-1.8-1.6-3.6-2.4-5.5-.5-1.4-1-2.8-1.4-4.2-.3-.9-.7-1.8-1-2.7-.5-1.3-.9-2.7-1.4-4-.5-1.5-1.1-3-1.6-4.5-.4-1.2-.7-2.4-1-3.6-.1-.5,0-1-.1-1.5a20.48,20.48,0,0,0-1.7-5.3,13.31,13.31,0,0,1-1-3.4,56.22,56.22,0,0,1-.9-5.7c-.2-2-.2-4.1-.3-6.1-.1-1.8-.1-3.7-.1-5.5-.1-2.6-.2-5.2-.2-7.9.1-3,.3-5.9.5-8.9l.3-5.1a2,2,0,0,1,.1-.8,3.74,3.74,0,0,0,.5-1.8,1.45,1.45,0,0,1,.7-1,19.81,19.81,0,0,1,3.3-.8c3.7-.2,7.3.8,10.8,1.9a16.46,16.46,0,0,1,6.2,3.1c.5.4,1.2.6,1.7,1,1.1.8,2.1,1.7,3.2,2.6s2.2,1.7,3.3,2.6a8.64,8.64,0,0,1,1.3,1.4c.7.9,1.3,1.9,1.9,2.8a.82.82,0,0,0,1,.4c1.5-.4,3.1-.8,4.6-1.1,1.1-.2,2.2-.4,3.4-.5,3.3-.4,6.6-.8,9.9-1,1.9-.1,3.9,0,5.8,0a1,1,0,0,0,.7-.4c.9-1.2,1.7-2.5,2.6-3.7a27.31,27.31,0,0,1,4.9-5.3c2.1-1.7,4.3-3.3,6.4-4.8a58,58,0,0,1,5.2-3.4,9,9,0,0,1,3.2-.9c4-.5,6.9,1.8,9.7,4a18.78,18.78,0,0,1,4.5,5.2,10.21,10.21,0,0,1,.9,4.9c0,1.7-.1,3.4-.2,5.2-.1,1.2-.3,2.5-.4,3.7s-.1,2.2-.2,3.3l-.6,5.4a24.37,24.37,0,0,0-.1,2.7v4.1c.1,1.3.3,2.5.4,3.8.2,1.5.3,3.1.4,4.6s.3,3,.3,4.5a23.46,23.46,0,0,1-.4,5.9,29.22,29.22,0,0,0-.4,5.1,27,27,0,0,1-.7,6.3c-.9,3.3-1.8,6.6-2.6,9.9-.6,2.1-1.1,4.3-1.7,6.4-.4,1.3-.7,2.6-1.1,3.9-.8,2.3-1.8,4.6-2.7,6.9a17.55,17.55,0,0,1-1.1,2.4c-1.4,2.3-2.9,4.7-4.5,6.9-1.3,1.8-2.7,3.4-4.1,5a31.89,31.89,0,0,1-2.6,2.6c-1.3,1.2-2.6,2.4-3.9,3.7a21.47,21.47,0,0,1-4.6,3.3A25.49,25.49,0,0,1,168.2,259.47ZM146.6,188c-.4,2.5-.8,4.9-1.2,7.3-.2,1.6-.4,3.2-.5,4.8a16.26,16.26,0,0,0,.4,5.8c.1.2.4.5.6.5a26.81,26.81,0,0,0,2.7-.7,13.36,13.36,0,0,0,1.8-.7,36.82,36.82,0,0,0,4.5-2.1c2.2-1.4,2.6-3.8,2.7-6.3a1.42,1.42,0,0,0-.2-.6c-.7-.7-1.4-1.4-2.1-2.2s-1.6-1.1-2.2-2c-.4-.6-1.3-.8-2-1.2-1.5-.8-2.9-1.7-4.5-2.6Zm38.4-11.1a15.71,15.71,0,0,0,.9,2.3c.7,1.5,1.5,3,2.1,4.5.7,1.8,1.1,3.6,1.7,5.4l1.5,4.2c.3.7.7,1.4,1.1,2.2a7.7,7.7,0,0,0,.9-1.3,12.85,12.85,0,0,0,2.2-7c0-2.2-.2-4.4-.3-6.5a4.63,4.63,0,0,0-4.8-4.6,1.7,1.7,0,0,0-.7.1c-1.6.2-3.1.4-4.6.7Zm-31,36a20.84,20.84,0,0,0,3.2,1.4,1.72,1.72,0,0,1,1.2,1.5,35.77,35.77,0,0,0,.9,3.5,2,2,0,0,0,1.2,1.3,7.69,7.69,0,0,0,4.5-.2,1.89,1.89,0,0,0,1.2-1.4,11.63,11.63,0,0,1,.4-1.8,8.19,8.19,0,0,1,4.1-4.1c.4-.2.8-.5,1.2-.7v-.3a8.51,8.51,0,0,0-1.7-.6c-1.4-.1-2.9-.1-4.4-.3a27,27,0,0,0-10.2.8C155.1,212.27,154.5,212.57,154,212.87Zm33.1-14.7c-1.4-2.5-2.9-4.9-4.2-7.4a38.29,38.29,0,0,1-3.8-9.9c-.2-1.1-.4-1.2-1.5-1a3.58,3.58,0,0,0-1.1.4c-.2.1-.4.3-.4.4a35.33,35.33,0,0,0,.1,4.6c.8,4.8,3.2,8.9,5.7,13a3,3,0,0,0,.8.8.76.76,0,0,0,.5.2A11.46,11.46,0,0,0,187.1,198.17Zm-46.7-11.5a4.52,4.52,0,0,0-2.8-.7,1.34,1.34,0,0,0-.7.6c-.7,1.6-1.5,3.1-2.1,4.7a14.69,14.69,0,0,0-.8,5.5c0,2.7-.2,5.4.5,8.1a1.74,1.74,0,0,0,1.2,1.4,13.55,13.55,0,0,0,2,.2c.6,0,.8-.2.7-.9a59.33,59.33,0,0,1-.2-7.3,81.12,81.12,0,0,1,1.4-8.6c.2-1,.6-1.9.8-3Zm-7.6-.1c-.4.1-.8.3-1.2.4-1.5.5-3,.8-4.4,1.4a2.76,2.76,0,0,0-2,2.6c-.2,2.1.6,4,1.3,6a12.94,12.94,0,0,0,2.3,3.9c.5-2.4.8-4.9,1.5-7.3a49,49,0,0,1,2.5-7Zm37.1.3c-.4.8-.7,1.3-1,1.9-1.1,2.1-2.1,4.3-3.2,6.4a1.36,1.36,0,0,0,.2,1.6,7.73,7.73,0,0,0,4.7,3l3.8.4c-2.4-4.1-4.6-8.1-4.5-13.3Z"/><path d="M181.5,33.17c.5-1.1,1-2.2,1.6-3.3.8-1.6,1.6-3.2,2.5-4.8,1.4-2.5,2.9-4.9,4.4-7.3s2.9-4.6,4.4-6.9a9,9,0,0,1,7.3-4.5c.2,0,.4-.1.6-.1,2.8-1.1,5.3-.1,7.7,1.3,3.2,1.9,4.8,4.9,5.8,8.2a40,40,0,0,1,.8,4.8,34.92,34.92,0,0,1,.4,7.9,30.59,30.59,0,0,0,.7,4c.7,4.3,1.7,8.6,1.6,13a26.18,26.18,0,0,1-.9,5.6,48.48,48.48,0,0,0-1.3,8.5,16.68,16.68,0,0,1-.5,3.1c-.2,1.2-.3,2.3-.5,3.5-.1.6-.4,1.3-.5,1.9-.8,3-1.6,6.1-2.4,9.1-.6,2.1-1.3,4.3-2,6.4-.9,2.5-1.8,4.9-2.8,7.3s-2.1,4.8-3.3,7.2c-.8,1.6-1.7,3.1-2.6,4.7-.3.6-.6,1.3-.9,2a6.11,6.11,0,0,1-.7,1.4c-3.1,3.4-6.1,6.8-9.3,10a20.56,20.56,0,0,1-6.7,4.6c-3.6,1.5-7.2,3.1-10.9,4.4a32.37,32.37,0,0,1-12.7,1.8,42.4,42.4,0,0,1-8.7-1.2c-3.5-1-6.9-2.1-9.9-4.3-1.6-1.2-3.4-2.4-4.9-3.7a59.29,59.29,0,0,1-4.4-4.3c-1.2-1.2-2.3-2.5-3.4-3.8a52.87,52.87,0,0,1-3.2-5,36.23,36.23,0,0,1-2.4-4.3c-1-1.9-1.8-3.7-2.7-5.6-.5-1.1-1.1-2.3-1.6-3.4-.9-2.4-1.9-4.8-2.6-7.3-1-3.2-1.8-6.5-2.5-9.8s-1.2-6.8-1.6-10.3-.7-7-1-10.5a37,37,0,0,1,.3-9.4,43.91,43.91,0,0,1,1.3-5.2,9.74,9.74,0,0,0,.2-2.4,40.53,40.53,0,0,1,1.6-8.3c.6-2.2,1.1-4.4,1.7-6.5,1.2-4.1,2.2-8.3,4.8-11.8a30,30,0,0,1,3.8-4.2,3.78,3.78,0,0,1,3.4-.8,35.73,35.73,0,0,1,5.6,2.6c2.2,1.1,3.6,3.2,5.1,4.9a74.65,74.65,0,0,1,4.8,6.3c1.1,1.6,2.1,3.3,3.1,4.9,1.1,1.9,2.2,3.7,3.4,5.6a1.14,1.14,0,0,0,.8.3c2.3-.1,4.5-.3,6.8-.3,3.3,0,6.6,0,9.8.2a28.09,28.09,0,0,1,4.8,1.2c2.2.6,4.4,1.4,6.6,2C180.4,32.87,180.9,33,181.5,33.17ZM194,48.27c-.7.1-1.7.1-2.7.2a19,19,0,0,0-7.3,2,29,29,0,0,0-7.9,6c-1.8,2-3.9,3.9-5,6.5-.8,1.9-1.5,3.8-2.2,5.7-.5,1.6-.9,3.2-1.3,4.8a3,3,0,0,0,1.2,3.5,6.42,6.42,0,0,0,1.3,1,4.33,4.33,0,0,0,1.9.4c2-.1,3.9-.3,5.9-.5a20,20,0,0,0,2.4-.4c2.4-.5,4.7-1.1,7.1-1.7a16,16,0,0,1,2.3-.3,17.53,17.53,0,0,0,7.2-3.3,27.22,27.22,0,0,0,8.9-10.4,30.16,30.16,0,0,0,1.8-4.5c.8-2.9-.7-7.2-4.8-7.6h-.2A44.15,44.15,0,0,0,194,48.27Zm-66.7,4.4a27.78,27.78,0,0,0-7.5,1.1c-.9.3-1.1.7-1,1.4.1,1,.4,2,.6,3a31.25,31.25,0,0,0,4.3,11.7,31.85,31.85,0,0,0,6.1,7.1,20.91,20.91,0,0,0,12.7,4.5,53,53,0,0,0,8-.3,33.33,33.33,0,0,0,5.5-1c.7-.2,1.8-.8,2-1.4a11.28,11.28,0,0,0,.5-4.1,7,7,0,0,0-1.8-4,51.31,51.31,0,0,0-8.3-8.5c-3.4-2.8-6.8-5.5-10.9-7.1a29.15,29.15,0,0,0-10.2-2.4Zm35.1,35.7v.2c-1.2.1-2.3.2-3.5.4a7,7,0,0,0-3.4,1.2c-.7.6-1.2,1.6-1,2.1a4.06,4.06,0,0,0,2.7,1.6c1.2-.2,1.3-.2,1.6,1,0,.4.1.7.1,1.1a5.23,5.23,0,0,0,.3,1.8,6,6,0,0,0,3.5,2.5c1.8.6,2.5.3,3.1-1.6,0-.1.1-.3.1-.4.2-.9.4-1.7.6-2.6.3-1.4.7-1.7,2.1-1.7a4.87,4.87,0,0,0,1.2-.1c1-.2,1.4-1,.7-1.8a11.32,11.32,0,0,0-3.4-2.8c-1.4-.4-3.1-.5-4.7-.9Z"/><path d="M54.4,125.37c-5-.3-9.1-.4-13.2-.8a17.23,17.23,0,0,1-6.7-2.3c-1.6-.9-3.3-1.8-4.8-2.8a41.36,41.36,0,0,1-4.6-3.7c-2-1.9-3.9-3.9-5.8-6a51.3,51.3,0,0,1-4.4-6c-1.3-2-2.6-4-3.8-6.1a45.35,45.35,0,0,1-2.8-5.9,76.26,76.26,0,0,1-3.1-8.4c-.9-3.5-1.4-7.2-2.1-10.8-.2-1.2-.1-2.4-.3-3.6-.2-1-.5-2-.7-3.1-.5-2.4-1.2-4.8-1.6-7.2A37.68,37.68,0,0,1,.1,52c0-2,.2-3.9.3-5.9.1-1.3.2-2.6.4-3.8.5-3.5.5-7,1.8-10.4,1-2.5,1.9-5.1,2.7-7.6.4-1.3.6-2.7,1-4.1.5-2,1.1-3.9,1.7-5.9.3-1.1.6-2.3,1-3.4a17,17,0,0,1,2.7-5.8c.6-.8,1.1-1.7,1.7-2.6a2.48,2.48,0,0,1,2.2-1.3c4.6.4,8.9,1.4,12,5.2.8.9,1.6,1.7,2.4,2.6,1.5,1.6,2.9,3.3,4.4,5s3.3,3.4,4.9,5.2c1.2,1.3,2.3,2.7,3.5,4.1a2.18,2.18,0,0,0,.8.5c2.1.2,4.3.3,6.4.4l3.9.3,7,.3a.66.66,0,0,0,.5-.4,29.49,29.49,0,0,1,4-8.4c1.3-1.8,2.5-3.8,3.8-5.6a30,30,0,0,1,3-3.2,52.12,52.12,0,0,1,4.7-4.7A19.47,19.47,0,0,1,80.8.07a.8.8,0,0,1,.8.1,49.22,49.22,0,0,1,5.6,2.9c1,.7,1.4,2,2.1,3,.7,1.2,1.3,2.4,1.9,3.7.4.8.7,1.7,1.1,2.5,1.7,3.6,3.9,7,5.1,10.8,1,3.4,1.7,6.8,2.6,10.2.9,3.2.4,6.5,0,9.7-.2,2.1-.8,4.1-1.1,6.1a17.63,17.63,0,0,0,0,2.3c-.2,2-.4,3.9-.7,5.8-.1,1.1-.2,2.1-.4,3.2s-.5,2.3-.7,3.4c-.4,2.2-.8,4.5-1.3,6.7L94.9,75c-.4,1.9-.7,3.7-1.2,5.6-.4,1.6-.8,3.1-1.2,4.6-.3,1.2-.6,2.3-1,3.5s-1.1,2.6-1.7,3.9a47.39,47.39,0,0,1-2.6,5c-1,1.6-2.1,3.2-3.2,4.7s-2.2,3-3.4,4.5c-1.3,1.8-2.7,3.6-4.1,5.5-1,1.4-1.9,2.8-3,4.2a30.24,30.24,0,0,1-3.1,3.1,22.89,22.89,0,0,1-10.1,5C57.9,124.87,55.7,125.17,54.4,125.37Zm19.8-59.8h1.4a18.62,18.62,0,0,0,6.6-1.9,11.23,11.23,0,0,0,6.7-7.4,27.61,27.61,0,0,0,.6-4A3.33,3.33,0,0,0,88,49c-4.1-2.2-8.2-4.4-13-4.6a19.82,19.82,0,0,0-13.1,3.8,19.65,19.65,0,0,0-4.5,5.4,29.86,29.86,0,0,0-2,4,2,2,0,0,0,0,1.1,6.38,6.38,0,0,0,3.9,3.8l6.2,1.8A32.15,32.15,0,0,0,74.2,65.57ZM14.8,29.47c1.1-.1,2.7-.2,4.3-.5a37.65,37.65,0,0,0,4.8-1.3c1.6-.5,3.2-1.2,4.8-1.8.9-.3,1-.8.7-1.7a8.49,8.49,0,0,0-.9-2.2,22.15,22.15,0,0,0-2.5-3.5c-1.3-1.5-2.8-2.8-4.2-4.3-1.8-1.8-3.7-3.4-6.3-3.8a1.88,1.88,0,0,0-2.1,1A31.59,31.59,0,0,0,9,22.87a14.08,14.08,0,0,0-.3,5.4,1,1,0,0,0,1.1,1C11.3,29.27,12.8,29.37,14.8,29.47Zm9.8,17.9a16,16,0,0,0-14.2,8.3c-.8,1.4-1.5,2.8-2.4,4.1a1.2,1.2,0,0,0-.1,1.5,6.26,6.26,0,0,0,3.5,2.9c3.6,1.3,7.2,2.6,10.8,3.7a17.06,17.06,0,0,0,12.9-1.3,17.44,17.44,0,0,0,7.1-6.9c.7-1.1.8-1.2-.1-2.2-2.4-2.9-4.9-5.6-8.3-7.4C30.8,48.67,27.9,47.27,24.6,47.37Zm53-19.6a24.65,24.65,0,0,0,5.4-1.1c2.2-.8,2.5-1.3,2-3.6-.3-1.3-.7-2.6-1.1-3.9-.8-2.7-.7-5.7-1.9-8.3a4,4,0,0,0-1-1.5A14.65,14.65,0,0,0,78.2,8a2.2,2.2,0,0,0-1.4.2,25,25,0,0,0-3.4,3.1,36.8,36.8,0,0,0-5.6,8.5,9.17,9.17,0,0,0-.9,2.3c-.6,2.3.7,2.5,2.3,2.7h.2l.9.3a28,28,0,0,0,3.2,2C74.8,27.37,76.2,27.47,77.6,27.77ZM48.4,79.67a6.76,6.76,0,0,0,1.5-.8c1.2-1.4,2.4-2.9,3.5-4.4s.6-2.5-.9-3.3a7.67,7.67,0,0,0-4.9-1c-1,.2-1.9.1-2.9.3a13.79,13.79,0,0,0-2.9.8,1.07,1.07,0,0,0-.8,1.3v.1a15.05,15.05,0,0,0,1.1,2.2c1.2,1.9,2.3,3.7,4.6,4.5a1,1,0,0,1,.4.7,18.84,18.84,0,0,1-.9,7.4,22.85,22.85,0,0,1-7.7,11.8,7.6,7.6,0,0,1-2.9,1.6,20.15,20.15,0,0,1-5.5.2,4.83,4.83,0,0,0-3.1.8,14.17,14.17,0,0,0,1.8.8,34,34,0,0,0,3.4.7,9.08,9.08,0,0,0,4.9-.2,14.93,14.93,0,0,0,6.5-4.6c2.7-3.1,4-6.9,4.9-10.9.2-1,.2-1.9.4-3.1.2.4.3.7.4.9,1.9,3.3,3.6,6.8,7.2,8.9,1.9,1.1,3.8,2.3,6,2.4a44.42,44.42,0,0,0,6.3-.4A12.81,12.81,0,0,0,72.5,95a1.46,1.46,0,0,0,.4-2.4c-.8-1-1.8-.6-2.7-.3a33.92,33.92,0,0,1-4.3,1.1,15.36,15.36,0,0,1-6.4-.2,16.05,16.05,0,0,1-6-3.6,11.15,11.15,0,0,1-3.4-4.4c-.4-1-.8-2-1.1-3S48.6,80.37,48.4,79.67Z"/><path d="M50.2,260.87c-1.8-.3-3.6-.5-5.4-.8-1-.1-1.9-.3-2.9-.4a26.85,26.85,0,0,1-8.5-2.4c-1.5-.8-2.9-1.7-4.4-2.6a10.93,10.93,0,0,0-1.5-.8,14.79,14.79,0,0,1-6.1-4.7c-1.4-1.7-2.7-3.6-3.9-5.4a44.75,44.75,0,0,1-3.5-6c-1.2-2.6-2-5.3-3-8-.7-1.9-1.4-3.8-2-5.7s-1.1-3.8-1.6-5.8l-1.2-4.2c-.5-1.7-.9-3.4-1.3-5.1-.3-1.2-.6-2.3-.9-3.5-.4-1.7-.8-3.3-1.1-5l-.9-5.4c-.2-1.3-.3-2.6-.5-3.8-.3-1.7-.6-3.4-.8-5.1-.2-1.4-.3-2.9-.4-4.3-.1-2.6-.2-5.1-.3-7.7,0-1.3.1-2.6.2-3.9s.1-2.8.3-4.2c.2-1.6.5-3.1.7-4.7.3-1.9.6-3.9.9-5.8.2-1.3.4-2.5.6-3.8.1-.8.3-1.6.5-2.5.3-1.6.6-3.2,1-4.7a19.06,19.06,0,0,1,1-3.4,13.92,13.92,0,0,1,4.4-6.3,8.49,8.49,0,0,1,3.8-1.2,22.68,22.68,0,0,1,5.8.4,22.06,22.06,0,0,1,8.6,3.7c3.7,2.6,7.2,5.5,9.5,9.4.9,1.5,1.9,2.9,2.9,4.3a1.35,1.35,0,0,0,.9.5c2.6-.1,5.2-.3,7.9-.4,1.5-.1,3,0,4.4-.1,1.2,0,2.5-.1,3.7-.1,1.6,0,3.3,0,4.9.1,1,.1,1.3-.6,1.8-1.1.9-1.1,1.8-2.1,2.6-3.2s1.6-1.9,2.4-2.9a49.68,49.68,0,0,1,3.8-4.2c1.9-1.8,3.9-3.4,5.8-5.1a15.12,15.12,0,0,1,4.5-2.9c1.4-.6,3-.3,4.5-.2,3.6.3,6.4,2.2,8.9,4.6a25.05,25.05,0,0,1,4.9,6.8,36.52,36.52,0,0,1,1.8,3.4,17.88,17.88,0,0,1,2.1,6.4c.1,1.5.4,3,.5,4.6.1,2,0,4.1,0,6.2,0,1.9.1,3.8.1,5.6v7.3a46.23,46.23,0,0,1-.5,6.5c-.4,2.6-1,5.2-1.4,7.8l-.9,5.1-1.2,6c-.4,2.1-.8,4.2-1.2,6.2l-.6,3.3a15.94,15.94,0,0,1-.6,3c-.9,2.5-1.9,5-2.9,7.5-.6,1.6-1.2,3.1-1.9,4.7-1.2,2.7-1.9,5.7-3.6,8.2-1.5,2.2-2.8,4.6-4.8,6.5-.9.9-1.6,1.9-2.5,2.8a18,18,0,0,1-2,1.9c-.9.8-1.7,1.6-2.6,2.4-.1.1-.2.2-.3.2-1.7.1-2.7,1.6-4,2.4-1.7,1-3.4,2-5.2,3-2,1-4,2-6.1,2.8A30.91,30.91,0,0,1,50.2,260.87Zm47-89.2c.1-1.2.2-2.4.2-3.5,0-2.8,0-5.5.1-8.3V155c0-1.3-.2-2.7-.2-4a20.06,20.06,0,0,0-1.6-8,1.55,1.55,0,0,0-.8-.8c-2.6-.9-7.4-.6-9.7,3.1-1.7,2.7-3.6,5.2-4.6,8.2-1,2.8-1.8,5.6-2.7,8.4-.2.6-.4,1.3-.9,1.5a10.22,10.22,0,0,1-5.1,1.6,18.64,18.64,0,0,1-8.9-2.5,3.35,3.35,0,0,1-2.1-3.1,1.7,1.7,0,0,0-.1-.7h-17v.5c.7,1.6,1.5,3.2,2.1,4.9a41.27,41.27,0,0,1,1.5,5,1.93,1.93,0,0,1-1.3,2.2l-1.8.9a7.84,7.84,0,0,1-1.4.5c-.6.1-1.2,0-1.8.1a8.82,8.82,0,0,1-5.9-1.2,23.11,23.11,0,0,1-5.6-4.1,26.17,26.17,0,0,1-4.6-6.3c-.5-1-1.1-1.8-1.5-2.8a26.43,26.43,0,0,1-1.3-4.6c-.6-3.1-1.1-6.2-1.6-9.3a12,12,0,0,0-1.5-4.5,10.59,10.59,0,0,0-1.2,1,24.94,24.94,0,0,0-2.9,4.3,22.74,22.74,0,0,0-1.2,5.3c-.2,1.1-.5,2.2-.7,3.4-.3,1.5-.5,3.1-.8,4.7s-.5,3-.8,4.6c-.2,1.2-.3,2.5-.5,3.7a28.45,28.45,0,0,0-.4,4.1,43.41,43.41,0,0,0,.1,5.1c0,1.3.1,2.6.2,4.1.4-.3.7-.5,1-.7a9.31,9.31,0,0,1,5-2.1,14.5,14.5,0,0,1,6.2.7c1.8.7,3.6,1.3,5.5,1.9-8.2,9.3-10.4,19.8-7.6,31.6l-5.7-4.4a4.88,4.88,0,0,0,.3,1.4c.5,2,1.1,4,1.6,6s1.2,4.2,1.9,6.4,1.4,4.5,2.2,6.8c.4,1.3,1,2.6,1.4,3.8.8,2,1.5,4.1,2.5,6.1a60.52,60.52,0,0,0,3.2,5.5c.9,1.3,1.9,2.5,2.9,3.8a14.35,14.35,0,0,0,4.3,4.2,41.93,41.93,0,0,1,6.7,4.2,7.68,7.68,0,0,0,1.8,1,18.29,18.29,0,0,0,2.5.8c1.6.5,3.4,1.1,5,.4a54.12,54.12,0,0,0,7.8-3.4,57.94,57.94,0,0,0,6-4.1,11.63,11.63,0,0,0,2.9-2.5c1-1.1,2-2.2,3.1-3.2.6-.6,1.3-1.1,1.9-1.7,1.5-1.7,3.1-3.5,4.5-5.3a48.67,48.67,0,0,0,3.2-4.7c1.5-2.2,2.1-4.8,3.2-7.2.7-1.7,1.3-3.5,2-5.2s1.4-3.3,2-4.9a17.55,17.55,0,0,0,1.2-3.2c.5-1.8.9-3.7,1.4-5.5a23.61,23.61,0,0,1-9.2,5.3l.3-2c0-.1.1-.2.1-.3a33.36,33.36,0,0,0,.1-12.2,58.47,58.47,0,0,0-3.1-10.3,36.81,36.81,0,0,0-3.2-7c-1-1.5-2.1-2.9-3.2-4.4a20.47,20.47,0,0,1,6.5-3.1c2.3-.6,4.7-1.2,7.1-1.7a16.78,16.78,0,0,1,7.4-.2,21.85,21.85,0,0,1,3.6.8Z"/><path d="M226.1,55.47a28,28,0,0,1,.3-7.1c.3-2.1.1-4.4.2-6.5.1-6.7.2-13.3.3-20a24.55,24.55,0,0,1,1.5-8.5c.6-1.5,1-3,1.6-4.5a5.94,5.94,0,0,1,1.3-1.8c.6-.7,1.2-1.3,1.7-2a5.07,5.07,0,0,1,3.8-1.6A20.12,20.12,0,0,1,248,6.27a24.28,24.28,0,0,1,8.4,7.2c1.3,1.8,2.7,3.4,3.9,5.1.7.9,1.1,1.9,1.8,2.8,1.2,1.7,2.6,3.3,3.8,4.9a2.52,2.52,0,0,0,2.7,1,74.44,74.44,0,0,1,17,.5c.5.1,1.1.1,1.6.2a1.57,1.57,0,0,0,1.9-.9c3.6-5.4,7.3-10.8,11-16.2,2.1-3,5.1-4.8,8.4-6.2a5.41,5.41,0,0,1,4.8.2c5.1,2.7,9.4,6.3,11.5,11.9a20.69,20.69,0,0,1,1,4.3,64.79,64.79,0,0,1,.7,7.7c0,6,1,12,1.2,18A57.68,57.68,0,0,1,324,70c-1.5,3.7-2.5,7.5-3.9,11.2-1.8,4.4-3.8,8.7-5.7,13.1-1.2,2.9-2.3,5.8-3.7,8.6a111.47,111.47,0,0,1-7.4,13,12.12,12.12,0,0,1-4,3.8c-.2.2-.5.4-.7.6a21,21,0,0,1-12.5,6.4,42.38,42.38,0,0,1-13.3.1,17.13,17.13,0,0,1-7.8-3.4,104.88,104.88,0,0,1-13.6-12.2c-1.6-1.7-3-3.7-4.5-5.6-1.8-2.4-3.7-4.7-5.3-7.3s-3-5.5-4.5-8.3a97.16,97.16,0,0,1-6.9-18.9c-.6-2-1.4-3.8-2.2-5.8A21.74,21.74,0,0,1,226.1,55.47Zm37.2-17.8c-1.3-2.5-2.7-5.1-4.2-7.7a53.45,53.45,0,0,0-6.2-9.5,6.42,6.42,0,0,0-5.5-2.2,30.81,30.81,0,0,0-7.9,1.6,7.89,7.89,0,0,0-2.3,1.4,9.42,9.42,0,0,0-3,5.4,28.52,28.52,0,0,0-.1,10.5,141.86,141.86,0,0,0,4.6,21.3,88.6,88.6,0,0,0,5,14.2,37.62,37.62,0,0,0,4.2,7.6,25,25,0,0,1,2.1,3.5,33.89,33.89,0,0,0,4.6,7.2c1,1.1,1.8,2.3,2.7,3.4a48.81,48.81,0,0,0,4.8,5.3,26.61,26.61,0,0,0,17.2,5.9c3.8-.1,7.3-.8,10.4-3a36.77,36.77,0,0,0,8.8-8.8,63.24,63.24,0,0,0,9.6-19.9c.8-2.7,1.1-5.6,1.9-8.4,1.6-6,3-12.1,4.4-18.1a51.25,51.25,0,0,0,1.5-16.1,9.88,9.88,0,0,0-1.1-3.7,19.41,19.41,0,0,0-2.1-2.9,15.09,15.09,0,0,0-5.2-4.2,2,2,0,0,0-1.5-.1,27.86,27.86,0,0,0-6.3,4.5,84.93,84.93,0,0,0-9.5,12,2.42,2.42,0,0,1-2.7,1.2c-4.9-.4-9.7-.8-14.6-1C269.8,37.07,266.6,37.47,263.3,37.67Z"/><path d="M186.7,70.77a27.22,27.22,0,0,1-5.5-9.8c-.3-.8-.2-1.3.5-1.7,2.2-1.2,4.4-2.4,6.6-3.5a.76.76,0,0,1,1,.1.1.1,0,0,0,.1.1,26.75,26.75,0,0,1,1.8,2.8c1,1.7,1.9,3.4,2.9,5.1.3.7.6,1.3.9,2a.91.91,0,0,1-.3.7c-2.1,1.1-4.3,2.2-6.4,3.3Zm3.2-3.2c1.2-.4,1.3-.5,1-1.4a21,21,0,0,0-1.3-2.6c-.9-1.4-1.9-2.7-2.9-4.1a.8.8,0,0,0-1.1-.3.1.1,0,0,0-.1.1c-.2.1-.2.6-.1.9a14.46,14.46,0,0,0,1.1,2.9C187.6,64.57,188.8,66.07,189.9,67.57Z"/><path d="M204.1,55a17.08,17.08,0,0,1-.8,2.9,23.08,23.08,0,0,1-4.9,6,28.91,28.91,0,0,0-5.4-9.5C196.8,54.37,200.4,53.77,204.1,55Z"/><path d="M173.7,72a26.26,26.26,0,0,1,4.3-8.3,23.41,23.41,0,0,0,5,8.1A58,58,0,0,1,173.7,72Z"/><path d="M130.2,70.57a26.25,26.25,0,0,1,2.9-10.7c.5-1.1.6-1.2,1.7-.8a38.09,38.09,0,0,1,8.3,4.2,1.11,1.11,0,0,1,.6,1.4l-3,10.8c-.1.5-.4.5-.8.5a19.85,19.85,0,0,1-8.7-3.4C130.5,72,130,71.47,130.2,70.57Zm7.8-6v-.5a4.88,4.88,0,0,1-.3-.7,2.09,2.09,0,0,0-.6.4c-.1.1-.2.3-.3.4a18.13,18.13,0,0,0-2.2,6.8c-.1.4.2,1,.3,1.4.4-.3,1-.5,1.2-1a17.23,17.23,0,0,0,1.9-6.8Z"/><path d="M147.3,66.37c1.9.9,6.4,5.8,8.1,8.9-1.5,1-8.2,1.3-10.9,1.2C146.4,73.27,147.7,70.07,147.3,66.37Z"/><path d="M130.7,58.17c-3.8,5.7-3.1,5.9-3.6,10.4a14.62,14.62,0,0,1-1.6-1.9c-1.4-2.4-2.7-4.8-4-7.2-.5-1-.4-1.1.6-1.4a13.42,13.42,0,0,1,3.5-.4C127.3,57.77,128.9,58,130.7,58.17Z"/><path d="M67.6,47.77c-.4,5.1-.1,9.7,2.1,14.2-4.1-.2-7.9-1.8-12-2.7.5-1.1,1-2.2,1.5-3.1a22.1,22.1,0,0,1,5.1-6.3C65.4,49.17,66.5,48.37,67.6,47.77Z"/><path d="M73.9,62.07c-1,.3-1.4-.2-1.8-1a24.67,24.67,0,0,1-2.1-8.9c-.1-1.4-.2-2.9-.3-4.3,0-.5.1-.8.7-.8,1.6,0,3.1-.1,4.7-.1a1.45,1.45,0,0,1,1,.7c.6,2,1.2,4,1.7,6.1s.9,4.2,1.4,6.2c.1.6,0,.9-.5,1l-4.8,1.4Zm-1.5-10.6h-.2c.4,1.7.7,3.5,1.2,5.2a13.9,13.9,0,0,0,1.2,2.8,1.23,1.23,0,0,0,.8.4.89.89,0,0,0,.5-.8,20,20,0,0,0-2.6-8.9.6.6,0,0,0-.6-.3c-.1,0-.3.3-.3.5v1.1Z"/><path d="M81.4,59.77c-.4-4.3-.1-8.7-3.5-12.1l.1-.2a27,27,0,0,1,4.1.7c1.7.7,3.4,1.4,5.1,2.2a.55.55,0,0,1,.3.5,11.46,11.46,0,0,1-5.7,8.7C81.7,59.67,81.6,59.67,81.4,59.77Z"/><path d="M24.4,49.87c.7,0,1.5.1,2.2.1a1.18,1.18,0,0,1,1.3,1.2c.5,2.3,1,4.7,1.4,7,.4,1.9.7,3.8,1,5.7.2.8-.1,1.1-.9,1.3A16.45,16.45,0,0,1,24,66a2.14,2.14,0,0,1-1.7-.8,11.51,11.51,0,0,1-2-5.2c-.4-2.8-.6-5.7-.9-8.5a1,1,0,0,1,.6-1.1h.2l4.2-.7Zm1.7,11.3h0a11,11,0,0,0-.2-2.5,39.74,39.74,0,0,0-1.5-4.9c-.1-.4-.7-.5-1.1-.8-.2.3-.5.7-.4,1a23.28,23.28,0,0,0,.4,3.8,45,45,0,0,0,1.6,4.8.84.84,0,0,0,.7.4.75.75,0,0,0,.5-.7,2,2,0,0,0,0-1.1Z"/><path d="M32.7,64.07c.1-4.6.2-9.1-2.6-13.2a4.05,4.05,0,0,1,1,.3,18.16,18.16,0,0,1,9,6.9.66.66,0,0,1,.1.6A18.31,18.31,0,0,1,32.7,64.07Z"/><path d="M17.3,51.87c-.7,4.9-.8,7.2.7,12.6l-8.5-2.8A20.42,20.42,0,0,1,17.3,51.87Z"/><path d="M30.5,215.47c5.8-9.7,6.3-20,5-30.8a34.67,34.67,0,0,1,2.9,2.5c1.7,1.6,3.4,3.2,4.9,4.9a37.18,37.18,0,0,1,3.3,4.5c1.1,2,2.2,4.1,3.1,6.2a15.67,15.67,0,0,1,.8,3.1,3.22,3.22,0,0,1-.9,2.9,2.18,2.18,0,0,0-.5.8,8.67,8.67,0,0,1-5,4.2c-1.9.5-3.7,1.3-5.6,1.6a54.59,54.59,0,0,1-5.7.4Z"/><path d="M71,213.07c-1.6-.1-3-.2-4.4-.4-2.3-.4-4.6-.8-6.9-1.4a10.28,10.28,0,0,1-4.1-1.9,9.8,9.8,0,0,0-2.2-1.3c-1.3-.6-1.3-1.8-1.2-2.9a32.05,32.05,0,0,1,2.9-10.9,27,27,0,0,1,4-7,61.68,61.68,0,0,1,4.3-4.6,10.14,10.14,0,0,1,1.3-.9C62.7,193,65.4,203.17,71,213.07Z"/><path d="M55.3,237.07c-4.4,4.8-9.9,6.8-16.3,7.3a9.86,9.86,0,0,1-2.4-.3,1.09,1.09,0,0,1-.8-.8c1,.1,2,.2,3,.2a12.7,12.7,0,0,0,9-3.6,32.2,32.2,0,0,0,5.3-6.3c.3-.4.2-1.1.3-1.6.2-.8-.2-1.2-.7-1.8a10.39,10.39,0,0,1-1.7-2.4,2.91,2.91,0,0,0-1.7-1.4,9.13,9.13,0,0,1-5-5.2c-.4-1,.2-1.7,1.3-2.2a44.26,44.26,0,0,1,10-3,19.42,19.42,0,0,1,2.4-.2,4.36,4.36,0,0,1,4.1,2.3,14.3,14.3,0,0,1,1.7,4.9,2,2,0,0,1-1.5,2.5,20.48,20.48,0,0,1-2.4.5,1.74,1.74,0,0,0-1.4,1.2,20.07,20.07,0,0,1-1.7,2.7c-.1.2-.4.5-.3.6.3,1.6.6,3.3,1,4.9a2.77,2.77,0,0,0,2.4,2.1c2.1.3,4.2.8,6.3,1.1.6.1.7.3.6.8a2.85,2.85,0,0,1-3.5,2.1,12.7,12.7,0,0,1-6.1-3.1A4.57,4.57,0,0,1,55.3,237.07Z"/><path d="M89.2,165.07a12.58,12.58,0,0,1-7.7-4c-.6-.6-.4-1.3-.1-2,.7-1.4,1.3-2.9,2.1-4.3,1.2-2.2,2.5-4.4,3.8-6.6a6.42,6.42,0,0,1,1-1.3,2.12,2.12,0,0,1,2.6-.4c3.5,2,5.9,4.7,6.3,8.9a9,9,0,0,1-.6,5.4,6.29,6.29,0,0,1-2.7,2.9A15.88,15.88,0,0,1,89.2,165.07Z"/><path d="M75.5,212.27c-.7-1.4-1.4-2.7-2.1-4.1a37.9,37.9,0,0,1-3.9-11.3c-.5-3-.8-6-1-9-.2-2.8,0-5.6,0-8.5,0-.9,0-.9.8-1.5,5.1,10.9,6.5,22.5,6.6,34.3Z"/><path d="M12.7,164.57c.3-1.7.7-3.5.9-5.3.2-1.4.3-2.8.4-4.3v-.1c.5-2.4.6-2.5,2.9-2.5a3.25,3.25,0,0,1,3.3,2.3,37.15,37.15,0,0,1,2.1,9.2c.2,2.1-1.2,3.3-2.9,4.2a8.37,8.37,0,0,1-4.1.8c-1.3-.1-2-.7-2.4-2.3A12.31,12.31,0,0,1,12.7,164.57Z"/><path d="M26.2,214.37a27.19,27.19,0,0,1-1.2-9c-.2-8.4,1.6-16.3,6.7-23.3a19.48,19.48,0,0,1,.2,2.5,43.11,43.11,0,0,1-.9,9.5c-.5,3.1-.9,6.1-1.5,9.2-.4,2-1,4-1.6,6-.4,1.4-.8,2.9-1.2,4.3a2.35,2.35,0,0,0-.2.8Z"/><path d="M265.6,67.67c.2-1.3.3-2.6.6-3.8a3.61,3.61,0,0,1,1.8-2.5,12.49,12.49,0,0,0,1.2-.9,9.37,9.37,0,0,1,8.1-1.7,26.81,26.81,0,0,1,10,4.6,5.72,5.72,0,0,1,2.4,5.4,18.63,18.63,0,0,1-2.8,8.6,7.06,7.06,0,0,1-6.5,3.5,23.15,23.15,0,0,1-10.9-2.7,5.45,5.45,0,0,1-2.7-3.4A27.77,27.77,0,0,1,265.6,67.67Z"/><path class="cls-1" d="M72.4,51.47a3.4,3.4,0,0,1,.1-1,.85.85,0,0,1,.3-.5.86.86,0,0,1,.6.3,20,20,0,0,1,2.6,8.9,1,1,0,0,1-.5.8.91.91,0,0,1-.8-.4,13.9,13.9,0,0,1-1.2-2.8c-.5-1.7-.8-3.4-1.2-5.2Z"/><path class="cls-1" d="M26.1,61.17a2.44,2.44,0,0,1,0,1.2,1.79,1.79,0,0,1-.5.7.75.75,0,0,1-.7-.4,44.19,44.19,0,0,1-1.5-4.8,16.37,16.37,0,0,1-.4-3.8c0-.3.3-.7.4-1,.4.3,1,.4,1.1.8a45.8,45.8,0,0,1,1.5,4.9,9.66,9.66,0,0,1,.1,2.4Z"/></g></g></g></svg>