<svg width="680" height="310" viewBox="0 0 680 310" fill="none" xmlns="http://www.w3.org/2000/svg">
<path d="M0.427734 108.663L645.717 0.0655115L679.498 200.792L34.2085 309.389L0.427734 108.663Z" fill="white"/>
<path d="M44.5448 242.558L31.8848 166.685L94.083 156.307L106.743 232.18L88.0688 235.296L78.0708 175.377L53.221 179.523L63.2189 239.442L44.5448 242.558Z" fill="black"/>
<path d="M132.456 259.476L114.669 152.872L133.343 149.756L134.643 157.549C135.5 155.139 137.436 152.7 140.45 150.232C143.513 147.757 147.201 146.159 151.514 145.439C162.64 143.583 171.786 145.709 178.952 151.818C186.109 157.879 190.685 166.888 192.681 178.848C194.676 190.807 193.273 200.814 188.471 208.87C183.669 216.926 175.705 221.882 164.579 223.738C160.854 224.36 157.145 224.173 153.453 223.177C149.801 222.124 146.933 220.637 144.85 218.718L151.131 256.36L132.456 259.476ZM139.988 170.108C137.424 174.667 136.755 180.622 137.982 187.975C139.2 195.278 141.766 200.693 145.68 204.222C149.643 207.742 154.173 209.077 159.27 208.226C164.417 207.367 168.288 204.605 170.885 199.94C173.531 195.267 174.253 189.328 173.051 182.123C171.841 174.869 169.23 169.486 165.218 165.974C161.247 162.405 156.688 161.05 151.542 161.908C146.444 162.759 142.593 165.492 139.988 170.108Z" fill="black"/>
<path d="M216.288 213.901L203.628 138.028L222.302 134.912L230.117 181.745L248.329 130.57L268.694 127.172L281.354 203.045L262.679 206.16L254.865 159.328L236.58 210.515L216.288 213.901Z" fill="black"/>
<path d="M301.866 199.622L289.206 123.749L308.762 120.486L333.253 161.286L343.096 114.757L362.653 111.494L375.313 187.367L356.638 190.483L350.308 152.546L343.943 185.498L330.929 187.669L314.21 158.57L320.54 196.506L301.866 199.622Z" fill="black"/>
<path d="M389.583 160.124C387.466 155.893 386.016 151.425 385.231 146.719C384.445 142.014 384.367 137.317 384.995 132.627C385.664 127.881 387.052 123.367 389.159 119.086C391.307 114.748 394.61 110.998 399.07 107.836C403.571 104.616 408.933 102.487 415.158 101.448C421.187 100.442 426.75 100.723 431.848 102.291C436.938 103.809 441.145 106.231 444.471 109.555C447.837 112.822 450.537 116.477 452.572 120.521C454.656 124.556 456.058 128.73 456.778 133.043L458.066 140.763L405.793 149.485C406.758 154.059 409.095 157.8 412.804 160.708C416.554 163.558 421.15 164.53 426.59 163.622C434.334 162.33 439.811 157.411 443.02 148.865L459.011 151.864C455.052 167.689 444.789 176.983 428.223 179.747C421.998 180.786 416.239 180.538 410.945 179.003C405.7 177.46 401.358 174.986 397.918 171.58C394.527 168.166 391.749 164.347 389.583 160.124ZM403.768 134.634L436.485 129.175C432.766 119.871 426.549 115.971 417.832 117.476C413.421 118.212 409.978 120.222 407.504 123.507C405.029 126.791 403.784 130.5 403.768 134.634Z" fill="black"/>
<path d="M462.803 111.181L460.14 95.2273L519.471 85.3276L522.133 101.281L501.842 104.667L511.84 164.586L493.166 167.702L483.168 107.783L462.803 111.181Z" fill="black"/>
<path d="M548.894 158.404L536.234 82.5306L554.908 79.4147L559.729 108.308L573.551 106.002C581.589 104.661 588.317 105.73 593.734 109.209C599.199 112.679 602.529 117.993 603.723 125.149C604.909 132.256 603.481 138.338 599.438 143.396C595.444 148.445 589.428 151.64 581.39 152.981L548.894 158.404ZM564.906 139.334L575.419 137.579C582.428 136.41 585.516 133.326 584.682 128.326C583.888 123.27 579.963 121.33 572.905 122.508L562.391 124.262L564.906 139.334ZM623.443 145.964L610.783 70.0915L629.458 66.9755L642.118 142.848L623.443 145.964Z" fill="black"/>
</svg>
