<svg width="463" height="464" viewBox="0 0 463 464" fill="none" xmlns="http://www.w3.org/2000/svg">
<path d="M195.633 0.338501L462.263 191.135L267.491 463.321L0.860971 272.524L195.633 0.338501Z" fill="white"/>
<path d="M354.41 252.736C351.942 254.745 349.247 256.593 346.633 258.326C352.578 250.738 353.089 241.15 350.094 232.142C355.018 222.623 359.861 213.217 364.785 203.697C364.996 203.162 365.289 202.513 365.111 202.043C364.641 201.02 363.278 201.246 362.255 201.716C353.815 205.115 345.521 208.791 337.291 212.855C331.308 207.544 324.058 204.244 317 204.513C334.369 194.632 352.905 186.959 372.104 181.476C373.548 181.137 375.074 180.684 376.421 180.961C379.341 181.677 380.863 184.826 381.737 187.683C385.588 201.25 382.737 216.029 375.896 228.467C370.469 237.97 362.999 246.01 354.41 252.736Z" fill="black"/>
<path d="M308.08 261.115C307.125 258.372 305.716 255.304 304.371 252.626C301.957 248.324 298.829 244.541 295.099 241.357C290.089 237.086 284.153 233.868 277.664 232.142C272.749 230.856 267.33 230.753 262.04 231.43C255.192 232.365 248.407 234.889 242.677 238.34C242.302 240.303 242.154 242.428 242.138 242.931C241.924 247.068 242.991 251.093 244.887 254.681C246.928 258.544 250.105 262.019 253.624 264.537C260.63 269.379 269.52 271.107 278.055 270.693C281.544 270.615 285.049 270.034 288.441 269.372C295.386 267.821 302.025 265.02 308.08 261.115ZM206.016 146.376L205.805 145.711C205.521 135.554 204.848 125.461 204.175 115.369C203.902 111.912 203.564 108.067 201.164 105.663C200.565 105.062 199.883 104.575 199.072 104.509C197.336 104.297 196.118 105.999 195.257 107.443C185.947 123.091 177.513 139.195 169.76 155.786C169.598 156.013 169.549 156.321 169.5 156.629C169.531 158.024 171.511 157.896 172.728 157.395C183.457 152.715 194.656 149.059 206.016 146.376ZM212.796 230.687C215.749 230.397 218.589 230.027 221.574 229.932C223.104 224.677 224.519 219.34 225.011 213.857C225.044 212.851 225.191 211.926 225.224 210.92C225.391 204.69 224.325 198.264 221.328 192.858C218.622 188.004 214.423 183.798 209.639 180.89C205.958 178.599 201.156 177.394 195.98 176.951C188.484 176.392 180.209 177.163 173.49 178.877C173.588 178.261 173.491 177.676 173.037 177.351C172.469 176.945 171.43 177.918 172.079 178.21L172.306 178.373C172.062 178.713 171.705 178.973 171.348 179.232L171.494 179.508C172.159 179.298 172.825 179.087 173.603 178.958C173.636 179.153 173.555 179.266 173.473 179.38C172.201 187.394 172.308 195.88 174.606 203.702C175.512 206.753 176.613 209.772 178.185 212.613C183.628 222.515 193.715 230.247 204.958 231.085C207.473 231.169 210.15 231.025 212.796 230.687ZM206.536 266.538C212.119 265.213 217.491 263.222 222.604 260.874C217.448 256.326 211.106 253.676 204.683 251.139C204.743 256.331 205.307 261.54 206.536 266.538ZM160.942 144.842C162.438 141.793 164.046 138.825 165.736 135.744C165.606 136.166 165.476 136.588 165.346 137.009C161.005 147.633 165.232 136.928 165.232 136.928C165.525 136.279 165.817 135.631 165.996 134.901C167.72 130.814 169.556 126.808 171.507 122.883C177.046 114.662 183.915 107.221 191.79 101.014C185.135 104.318 179.695 109.521 175.423 115.731C181.841 104.364 189.281 93.727 197.742 83.8214C198.749 82.6541 199.953 81.3355 201.413 81.6938C202.126 82.3759 202.886 82.8689 203.6 83.551C203.746 83.8269 204.005 84.1841 204.069 84.5736C211.747 100.708 219.36 117.654 221.066 135.178C221.095 138.975 220.649 125.551 220.678 129.347C220.925 125.405 221.403 139.024 221.066 135.178C220.989 129.289 220.913 123.399 220.869 117.704C220.791 114.216 220.793 110.614 220.52 107.158C220.941 108.488 221.362 109.819 221.783 111.15C224.889 122.64 225.772 134.599 226.46 146.59C226.572 147.871 226.571 149.072 226.684 150.354L226.505 151.084C240.927 154.196 254.404 162.467 266.631 171.045C272.388 174.993 277.869 179.087 283.382 183.375C283.382 183.375 283.382 183.375 283.496 183.456C292.901 190.701 301.949 198.206 310.753 206.05C311.32 206.456 311.807 206.976 312.293 207.496C313.006 208.178 313.801 208.746 314.514 209.429C313.801 208.746 313.088 208.064 312.293 207.496C313.835 206.54 316.016 204.777 317.672 203.903C325.41 201.502 333.502 206.343 339.485 211.654C334.956 213.905 328.105 217.781 323.608 220.226C327.398 228.602 330.456 237.326 331.666 246.43C332.102 249.659 332.882 253.423 336.013 253.604C338.528 253.688 339.989 251.04 341.191 248.64C344.051 242.964 349.03 234.065 351.89 228.389C354.885 237.396 365.527 237.685 359.583 245.273C362.197 243.539 360.631 246.836 354.362 253.045C337.114 273.311 319.023 293.315 297.106 308.352C285.694 316.146 273.244 322.511 260.194 327.074C234.454 335.942 205.003 337.521 180.902 324.908C148.805 308.118 133.048 269.212 134.44 232.967C135.585 201.865 146.934 172.574 160.942 144.842Z" fill="black"/>
<path d="M341.401 249.09C340.28 251.377 338.412 253.987 335.897 253.904C332.766 253.723 331.698 249.698 331.181 246.582C329.972 237.479 326.62 228.161 322.83 219.785C327.327 217.34 333.778 214.416 338.306 212.165C344.062 217.313 350.077 220.885 352.505 228.286C350.578 234.764 344.375 243.495 341.401 249.09Z" fill="#A2A1A2"/>
<path d="M364.705 203.811C359.781 213.331 355.402 222.734 350.478 232.254C348.05 224.853 342.935 217.923 337.179 212.774C345.327 208.823 353.703 205.034 362.143 201.635C363.084 201.278 364.642 201.02 364.998 201.962C365.322 202.708 365.03 203.357 364.705 203.811Z" fill="#A2A1A2"/>
<path d="M304.37 252.626C305.715 255.304 306.93 258.404 308.079 261.115C302.219 264.987 295.499 267.901 288.635 269.339C293.523 263.227 296.45 255.539 296.748 247.686C296.783 245.48 296.558 242.916 294.936 241.584L295.18 241.244C298.828 244.541 302.07 248.405 304.37 252.626Z" fill="white"/>
<path d="M294.855 241.698C296.477 243.03 296.897 245.562 296.668 247.801C296.256 255.572 293.329 263.26 288.554 269.453C285.081 270.229 281.657 270.696 278.168 270.774C269.715 271.075 260.824 269.347 253.737 264.619C250.024 262.133 246.96 258.739 245 254.762C246.565 244.899 253.176 235.9 262.185 231.706L262.153 231.511C267.524 230.721 272.862 230.937 277.777 232.223C284.153 233.868 290.202 237.167 295.212 241.439L294.855 241.698ZM249.899 255.351C256.508 249.954 261.057 242.397 266.579 235.88C258.301 239.052 251.853 246.624 249.899 255.351Z" fill="#C1B665"/>
<path d="M327.509 200.375C322.638 203.764 317.714 206.541 312.842 209.93C311.495 208.393 309.877 207.235 308.53 205.698C314.967 202.857 321.509 201.237 327.509 200.375Z" fill="black"/>
<path d="M266.661 235.766C261.139 242.283 256.59 249.84 249.982 255.237C251.855 246.623 258.302 239.052 266.661 235.766Z" fill="black"/>
<path d="M262.039 231.429C253.063 235.818 246.452 244.817 244.886 254.68C242.991 251.093 242.004 246.954 242.137 242.931C242.154 242.428 242.415 240.384 242.676 238.34C248.407 234.889 255.11 232.478 262.039 231.429Z" fill="white"/>
<path d="M204.682 251.138C211.105 253.675 217.447 256.326 222.603 260.874C217.409 263.335 212.005 265.131 206.535 266.537C205.306 261.539 204.743 256.33 204.682 251.138Z" fill="#D76460"/>
<path d="M282.731 183.658C277.331 179.45 271.656 175.389 265.98 171.328C253.753 162.75 240.276 154.479 225.854 151.366L226.033 150.637C225.92 149.355 225.921 148.154 225.809 146.872C234.925 149.963 243.31 155.277 251.223 160.768C261.942 168.095 272.418 175.763 282.731 183.658Z" fill="black"/>
<path d="M225.011 213.856C224.52 219.34 223.298 224.644 221.574 229.932C218.589 230.027 215.749 230.397 212.796 230.687C215.849 227.38 218.675 223.91 220.933 220.034C222.655 217.148 224.151 214.099 225.029 210.952C225.11 212.039 225.044 212.851 225.011 213.856Z" fill="white"/>
<path d="M196.797 188.519L196.003 187.95C189.023 191.708 183.128 197.787 179.601 204.874C186.581 201.116 192.427 195.345 196.797 188.519ZM220.932 220.034C218.674 223.909 215.848 227.379 212.795 230.686C210.036 230.943 207.359 231.086 204.73 230.922C193.487 230.084 183.319 222.465 177.957 212.449C176.385 209.609 175.203 206.703 174.378 203.539C179.027 192.964 186.498 183.723 195.866 176.868C201.155 177.392 206.038 178.484 209.524 180.807C214.309 183.716 218.475 187.727 221.213 192.776C224.211 198.182 225.277 204.608 225.109 210.838C224.068 214.212 222.654 217.147 220.932 220.034Z" fill="#C1B665"/>
<path d="M196.799 188.519C192.624 195.314 186.584 201.117 179.636 205.069C183.244 197.869 188.944 191.822 196.037 188.145L196.799 188.519Z" fill="black"/>
<path d="M195.786 176.983C186.387 183.643 178.948 193.079 174.299 203.653C172.114 195.912 171.894 187.345 173.166 179.331C173.247 179.218 173.215 179.023 173.296 178.909C179.934 177.309 188.291 176.425 195.786 176.983Z" fill="white"/>
<path d="M220.997 117.525C221.074 123.414 221.15 129.304 221.194 134.999C214.05 124.604 210.969 100.66 203.405 84.6069C203.51 83.9799 203.12 82.8158 202.975 82.5399C211.368 89.3592 217.33 97.2238 220.73 106.865C220.922 110.434 221 113.923 220.997 117.525Z" fill="black"/>
<path d="M206.239 145.52L206.452 146.2C194.859 148.975 183.626 152.71 172.638 157.324C171.395 157.841 169.26 157.895 169.348 156.551C169.399 156.236 169.45 155.921 169.616 155.689C177.289 138.863 186.021 122.266 195.562 106.249C196.444 104.772 197.691 103.028 199.461 103.24C200.288 103.305 201.097 103.884 201.591 104.413C203.948 106.979 204.48 110.874 204.633 114.322C205.322 124.832 205.896 135.259 206.239 145.52Z" fill="#A2A1A2"/>
<path d="M172.058 178.183L171.8 177.998C171.155 177.537 172.354 176.406 172.905 176.999C173.421 177.368 175.224 178.103 173.218 179.013C172.455 179.263 172.195 179.746 171.432 179.995L170.824 179.09C171.493 178.972 171.775 178.578 172.058 178.183Z" fill="black"/>
<path d="M218.049 94.061C219.538 98.2159 220.167 102.613 220.521 107.157C217.121 97.516 211.496 90.7451 203.632 83.7449C203.195 82.917 201.336 82.1795 201.413 81.6929C208.94 83.6469 215.507 86.579 218.049 94.061Z" fill="black"/>
<path d="M165.232 136.927C165.362 136.506 165.492 136.084 165.622 135.662C165.785 135.435 165.834 135.127 165.996 134.9C165.817 135.63 165.524 136.279 165.232 136.927Z" fill="black"/>
<path d="M166.111 134.982C165.948 135.209 165.899 135.517 165.737 135.744C166.209 134.365 166.68 132.986 167.265 131.689C167.9 130.083 168.534 128.478 169.281 126.953C170.061 125.623 170.841 124.294 171.734 123.045C169.671 126.889 167.834 130.894 166.111 134.982Z" fill="black"/>
<path d="M191.789 101.014C183.915 107.22 177.045 114.661 171.619 122.964C172.822 120.563 174.106 118.05 175.422 115.731C179.694 109.521 185.134 104.317 191.789 101.014Z" fill="black"/>
</svg>
