<svg width="668" height="282" viewBox="0 0 668 282" fill="none" xmlns="http://www.w3.org/2000/svg">
<path d="M0.226562 126.235L636.871 0.720348L667.523 156.196L30.8785 281.71L0.226562 126.235Z" fill="white"/>
<path d="M116.147 248.444L92.0166 127.585L121.763 121.646L131.232 169.076L161.112 113.79L197.768 106.471L160.39 171.779L225.06 226.699L188.521 233.994L134.506 185.472L145.893 242.505L116.147 248.444Z" fill="black"/>
<path d="M249.448 205.511C236.086 195.92 227.604 182.107 224.003 164.072C220.387 145.958 222.914 129.947 231.584 116.038C240.317 102.036 254.091 93.1559 272.907 89.3992C291.801 85.6269 307.929 88.5364 321.291 98.1277C334.716 107.625 343.237 121.431 346.853 139.544C350.454 157.579 347.888 173.598 339.155 187.601C330.485 201.51 316.703 210.35 297.809 214.123C278.993 217.879 262.873 215.009 249.448 205.511ZM258.115 129.982C254.069 138.178 253.082 147.468 255.155 157.852C257.228 168.236 261.707 176.435 268.59 182.448C275.474 188.462 283.522 190.549 292.735 188.709C302.026 186.854 308.655 181.837 312.624 173.657C316.671 165.461 317.658 156.171 315.584 145.787C313.511 135.403 309.033 127.204 302.149 121.191C295.343 115.162 287.295 113.074 278.004 114.929C268.792 116.769 262.162 121.786 258.115 129.982Z" fill="black"/>
<path d="M348.762 102.751L343.688 77.3376L438.197 58.4684L443.271 83.8815L410.948 90.3349L430.004 185.78L400.258 191.719L381.202 96.2739L348.762 102.751Z" fill="black"/>
<path d="M471.967 137.337C468.362 130.669 465.812 123.587 464.315 116.092C462.819 108.597 462.455 101.079 463.222 93.5375C464.052 85.9026 466.045 78.6038 469.202 71.6411C472.42 64.5848 477.52 58.4112 484.501 53.1205C491.545 47.736 500.025 44.054 509.94 42.0743C519.543 40.157 528.466 40.3239 536.71 42.575C544.937 44.7481 551.798 48.4118 557.293 53.5662C562.85 58.6269 567.36 64.343 570.824 70.7146C574.366 77.0706 576.823 83.6838 578.195 90.5543L580.65 102.851L497.384 119.475C499.162 126.752 503.095 132.624 509.182 137.092C515.333 141.466 522.741 142.787 531.407 141.057C543.743 138.594 552.263 130.439 556.967 116.591L582.729 120.581C577.193 146.123 561.231 161.529 534.842 166.798C524.926 168.777 515.691 168.673 507.135 166.484C498.658 164.28 491.578 160.538 485.896 155.258C480.293 149.964 475.65 143.99 471.967 137.337ZM493.387 95.7959L545.502 85.3909C539.074 70.6806 528.919 64.7518 515.037 67.6046C508.011 69.0075 502.599 72.4017 498.803 77.7872C495.007 83.1727 493.202 89.1756 493.387 95.7959Z" fill="black"/>
</svg>
