<svg width="217" height="281" viewBox="0 0 217 281" fill="none" xmlns="http://www.w3.org/2000/svg">
<path d="M112.125 0.119751L216.582 50.8377L105.002 280.643L0.545542 229.925L112.125 0.119751Z" fill="white"/>
<path d="M44.383 217.164C41.3577 208.428 41.9719 199.68 46.2256 190.919C50.5375 182.038 57.0614 176.085 65.7971 173.06C74.5911 169.915 83.4285 170.498 92.3092 174.81C101.19 179.122 107.114 185.706 110.081 194.562C113.106 203.297 112.463 212.106 108.151 220.986C103.897 229.747 97.4025 235.64 88.6668 238.665C79.9311 241.691 71.1228 241.047 62.2421 236.735C53.3613 232.423 47.4083 225.9 44.383 217.164ZM107.052 88.0929C104.027 79.3572 104.641 70.6089 108.895 61.8482C113.207 52.9674 119.73 47.0144 128.466 43.9891C137.26 40.8438 146.098 41.4271 154.978 45.7391C163.859 50.0511 169.783 56.6349 172.75 65.4906C175.775 74.2263 175.132 83.0346 170.82 91.9153C166.566 100.676 160.072 106.569 151.336 109.594C142.6 112.62 133.792 111.976 124.911 107.664C116.03 103.352 110.077 96.8286 107.052 88.0929Z" fill="black"/>
</svg>
