<svg width="494" height="496" viewBox="0 0 494 496" fill="none" xmlns="http://www.w3.org/2000/svg">
<path d="M0.171875 198.551L290.587 0.149667L493.122 296.615L202.707 495.016L0.171875 198.551Z" fill="white"/>
<path d="M381.229 328.354L381.466 328.695C378.543 330.665 375.584 332.541 372.66 334.511C367.457 328.192 362.843 321.433 358.853 314.33C361.318 312.857 363.782 311.384 366.282 310.005C371.32 316.172 376.227 322.281 381.229 328.354Z" fill="#D9D9D9"/>
<path d="M360.627 302.781C362.512 305.189 364.492 307.562 366.412 310.065C363.948 311.538 361.448 312.916 358.983 314.389C358.675 313.86 358.402 313.425 358.188 312.86C357.19 311.085 356.157 309.215 354.431 308.362L353.683 307.245C355.923 305.749 358.257 304.218 360.627 302.781Z" fill="black"/>
<path d="M372.66 334.512C371.54 335.26 370.42 336.008 369.264 336.661C364.745 329.867 360.225 323.073 355.705 316.279C356.766 315.661 357.828 315.043 358.853 314.331C362.878 321.529 367.492 328.287 372.66 334.512Z" fill="black"/>
<path d="M355.704 316.279C354.926 316.789 354.206 317.17 353.428 317.68C351.615 315.46 349.895 313.204 348.176 310.948C349.98 309.726 351.783 308.503 353.587 307.281L354.334 308.398C356.156 309.215 357.189 311.085 358.092 312.896C358.4 313.425 358.673 313.86 358.887 314.425C357.826 315.043 356.765 315.661 355.704 316.279Z" fill="black"/>
<path d="M348.166 286.72C352.244 292.067 356.417 297.377 360.59 302.687C358.256 304.218 355.886 305.656 353.587 307.281C351.784 308.503 349.98 309.726 348.177 310.948C345.45 307.459 342.782 303.84 340.114 300.221C344.292 299.282 346.617 294.308 347.561 289.965C347.806 288.903 347.956 287.877 348.166 286.72Z" fill="#D9D9D9"/>
<path d="M353.43 317.679C354.208 317.169 354.927 316.788 355.705 316.278C360.225 323.072 364.745 329.866 369.264 336.66C366.305 338.536 363.44 340.376 360.481 342.253C355.678 335.566 351.465 328.44 347.381 321.373C349.409 320.173 351.401 318.879 353.43 317.679Z" fill="#D9D9D9"/>
<path d="M348.167 286.721C348.017 287.747 347.807 288.904 347.562 289.966C346.618 294.309 344.294 299.283 340.115 300.221C336.131 294.839 332.241 289.422 328.446 283.968C328.872 284.238 329.392 284.471 329.783 284.646C331.64 285.557 334.04 286.478 335.583 285.139C336.632 284.203 336.757 282.54 336.765 281.137C336.696 277.824 336.628 274.511 336.276 271.306C340.247 276.37 344.16 281.563 348.167 286.721Z" fill="black"/>
<path d="M280.614 191.716C298.338 218.811 316.9 245.267 336.333 271.176C336.591 274.417 336.789 277.788 336.822 281.006C336.815 282.409 336.689 284.072 335.641 285.008C334.097 286.348 331.733 285.521 329.84 284.516C329.414 284.246 328.929 284.107 328.503 283.838C322.099 274.635 316.072 265.29 310.197 255.778C306.968 258.08 303.644 260.417 300.414 262.719C280.94 234.994 262.738 206.356 245.881 176.993C249.695 172.531 253.048 167.706 256.01 162.706C265.848 170.714 274.077 181.594 280.614 191.716Z" fill="#D9D9D9"/>
<path d="M348.178 310.948C349.897 313.204 351.711 315.424 353.43 317.68C351.402 318.88 349.315 320.21 347.323 321.504C347.287 321.41 347.251 321.316 347.251 321.316C346.053 319.293 344.854 317.271 343.655 315.248L343.145 314.472C344.818 313.192 346.469 312.135 348.178 310.948Z" fill="black"/>
<path d="M360.516 342.348C359.643 342.894 358.865 343.404 357.993 343.95C353.378 337.192 348.634 330.375 344.02 323.617C345.14 322.869 346.296 322.216 347.321 321.504C351.499 328.535 355.713 335.661 360.516 342.348Z" fill="black"/>
<path d="M285.871 355.038C284.315 356.059 282.758 357.08 281.167 358.007C277.924 359.99 274.682 361.974 271.404 363.863C268.373 365.551 265.248 367.275 262.181 368.868C260.161 364.68 258.047 360.528 255.744 356.447C255.897 356.281 256.05 356.116 256.297 355.914C259.216 352.223 257.535 346.937 255.798 342.641C251.932 333.014 248.03 323.294 244.069 313.703C249.104 322.994 255.011 331.739 261.85 339.808C263.959 342.239 266.163 344.634 269.119 345.882C272.076 347.131 275.925 346.748 277.938 344.369C280.492 341.139 279.025 336.418 277.278 332.665C273.271 323.522 269.206 314.509 265.105 305.403C271.155 314.524 279.386 322.28 288.934 327.814C291.288 329.183 294.15 330.467 296.865 329.653C299.673 328.803 301.306 325.707 301.475 322.735C301.643 319.763 300.572 316.939 299.537 314.208C297.93 309.971 296.323 305.734 294.752 301.591C298.971 306.453 303.685 310.912 308.822 314.779C313.072 318.014 318.656 321.066 323.623 319.075C328.365 317.061 330.296 311.052 329.266 306.057C328.236 301.063 325.094 296.762 322.023 292.65C318.311 287.703 314.6 282.756 310.983 277.773C317.355 283.758 323.597 289.683 329.969 295.668C332.621 298.108 335.664 300.723 339.231 300.448C339.55 300.435 339.833 300.327 340.057 300.35C342.725 303.969 345.358 307.494 348.12 311.078C346.411 312.264 344.796 313.415 343.087 314.602C338.301 317.925 333.645 321.306 328.989 324.687C322.966 329.017 316.979 333.441 310.991 337.866C306.147 341.318 301.302 344.771 296.422 348.129C292.932 350.314 289.419 352.724 285.871 355.038Z" fill="#6C6B6C"/>
<path d="M343.985 323.523C348.599 330.282 353.343 337.098 357.957 343.857C353.595 346.588 349.138 349.355 344.681 352.122C340.942 345.678 336.453 337.257 332.737 330.589C336.51 328.296 340.247 325.91 343.985 323.523Z" fill="#D9D9D9"/>
<path d="M340.114 300.22C339.831 300.327 339.606 300.304 339.288 300.318C335.757 300.687 332.584 298.013 330.025 295.537C323.654 289.553 317.412 283.627 311.04 277.643C309.285 275.293 307.625 272.907 306 270.616C313.313 275.381 320.838 279.851 328.539 283.931C332.24 289.42 336.13 294.838 340.114 300.22Z" fill="black"/>
<path d="M343.985 323.523C340.247 325.91 336.51 328.296 332.773 330.683C331.502 328.472 330.339 326.544 329.283 324.898L329.011 324.463C333.666 321.082 338.416 317.665 343.108 314.378L343.618 315.154C344.817 317.177 346.016 319.199 347.214 321.221C347.25 321.316 347.286 321.41 347.286 321.41C346.26 322.122 345.14 322.87 343.985 323.523Z" fill="black"/>
<path d="M310.103 255.813C315.977 265.324 322.098 274.634 328.409 283.872C320.708 279.792 313.183 275.323 305.869 270.557C304.007 267.924 302.146 265.292 300.284 262.659C303.679 260.51 306.909 258.208 310.103 255.813Z" fill="#6C6B6C"/>
<path d="M310.946 277.679C314.563 282.662 318.275 287.609 321.986 292.556C325.057 296.668 328.294 300.933 329.229 305.963C330.26 310.958 328.328 316.967 323.586 318.981C318.655 321.066 313.071 318.014 308.785 314.685C303.648 310.818 298.934 306.359 294.715 301.497C293.359 297.919 291.966 294.247 290.479 290.61C295.637 297.378 302.126 303.102 309.426 307.55C311.521 308.802 314.406 309.862 316.125 308.133C316.832 307.434 317.148 306.56 317.204 305.569C317.947 300.98 315.218 296.63 312.667 292.751C306.819 283.876 301.064 274.965 295.463 265.888C297.114 264.832 298.634 263.717 300.285 262.66C302.147 265.292 304.009 267.925 305.871 270.558C307.567 273.038 309.322 275.388 310.946 277.679Z" fill="black"/>
<path d="M344.717 352.216C343.845 352.763 342.878 353.345 341.911 353.927C337.486 347.097 333.06 340.267 328.599 333.343C330.002 332.487 331.275 331.574 332.678 330.719C336.583 337.315 341.072 345.737 344.717 352.216Z" fill="black"/>
<path d="M328.73 333.401C333.156 340.231 337.581 347.061 342.042 353.985C337.302 356.859 332.657 359.698 327.917 362.572C323.468 355.966 318.89 349.302 314.442 342.696C319.205 339.598 323.932 336.405 328.73 333.401Z" fill="#D9D9D9"/>
<path d="M328.73 333.4C323.967 336.498 319.204 339.597 314.347 342.731C313.196 341.121 312.105 339.381 310.954 337.771C316.977 333.441 322.965 329.016 328.952 324.592L329.225 325.027C330.281 326.673 331.48 328.695 332.714 330.812C331.406 331.631 330.097 332.451 328.73 333.4Z" fill="black"/>
<path d="M312.739 292.94C315.289 296.819 318.019 301.169 317.276 305.758C317.09 306.69 316.809 307.659 316.197 308.321C314.477 310.051 311.556 308.896 309.498 307.739C302.197 303.291 295.708 297.567 290.551 290.799C288.314 285.186 286.042 279.478 283.616 273.936C287.731 271.406 291.716 268.818 295.665 266.136C301.1 275.06 306.89 284.065 312.739 292.94Z" fill="#6C6B6C"/>
<path d="M300.319 262.754C298.704 263.904 297.148 264.925 295.498 265.982C287.44 252.99 279.572 239.927 271.762 226.734C263.334 212.483 254.966 198.102 246.692 183.685C245.766 182.097 244.876 180.604 244.044 178.981C244.657 178.318 245.269 177.655 245.845 176.898C262.679 206.485 280.845 235.029 300.319 262.754Z" fill="black"/>
<path d="M271.798 226.829C279.573 239.928 287.477 253.085 295.535 266.077C291.585 268.759 287.506 271.383 283.486 273.877C274.092 252.238 262.883 231.503 247.323 213.817C241.268 206.959 234.587 200.446 229.557 192.876C234.79 188.738 239.655 184.2 244.022 179.205C244.854 180.829 245.744 182.322 246.67 183.91C255.003 198.197 263.371 212.578 271.798 226.829Z" fill="#D9D9D9"/>
<path d="M254.235 161.44C254.826 161.862 255.454 162.378 255.951 162.835C252.989 167.835 249.542 172.697 245.823 177.123C244.933 175.629 244.137 174.1 243.247 172.607C246.862 168.759 250.477 164.911 254.235 161.44Z" fill="black"/>
<path d="M180.352 123.762C180.202 124.788 179.957 125.85 180.125 126.863C180.293 127.877 180.969 128.805 182.033 129.048C182.872 129.268 183.781 128.816 184.263 128.095C184.745 127.373 184.707 126.418 184.421 125.665C183.684 124.006 181.768 123.225 180.352 123.762ZM170.675 138.955C170.737 139.686 170.798 140.416 171.048 141.076C171.346 142.147 172.093 143.264 173.18 143.282C173.948 143.314 174.726 142.804 175.338 142.141C176.351 141.111 177.316 139.668 176.91 138.314C176.612 137.242 175.428 136.399 174.341 136.38C173.29 136.456 171.464 137.902 170.675 138.955ZM185.453 139.49C185.28 140.74 185.649 142 186.42 142.893C186.751 143.198 187.119 143.597 187.603 143.736C188.478 144.051 189.481 143.563 189.963 142.842C190.54 142.084 190.596 141.094 190.499 140.269C190.259 139.067 189.476 137.857 188.341 137.426C187.264 136.864 186.111 138.379 185.453 139.49ZM164.921 166.769C160.877 169.487 157.107 172.64 153.704 176.193C148.646 159.156 150.005 138.824 162.536 126.318C166.47 122.456 171.269 119.452 176.009 116.578C185.583 110.793 196.338 104.991 207.493 106.792C213.733 107.872 219.329 111.243 224.76 114.461C229.576 117.481 234.451 120.371 239.267 123.391C235.312 128.337 230.493 132.426 224.963 135.493C224.998 135.587 224.998 135.587 225.034 135.681C204.684 144.367 184.679 153.676 166.194 165.856C165.852 166.093 165.321 166.402 164.921 166.769ZM199.768 126.846C199.788 125.761 199.005 124.55 197.847 124.343C196.689 124.136 195.627 124.754 194.732 125.525L194.531 125.278C193.281 125.967 193.074 127.984 194.01 129.029C194.946 130.074 196.742 130.255 197.992 129.566C199.089 129.042 199.783 128.025 199.768 126.846Z" fill="#ECD648"/>
<path d="M314.406 342.602C318.854 349.208 323.433 355.872 327.881 362.478C327.161 362.859 326.478 363.333 325.758 363.714C321.216 357.144 316.425 350.775 311.293 344.644C312.319 343.932 313.38 343.314 314.406 342.602Z" fill="black"/>
<path d="M243.306 172.477C242.788 173.104 242.14 173.673 241.622 174.3C240.268 171.583 239.008 168.83 237.995 165.875L237.391 165.135C240.927 162.502 244.463 159.869 248.093 157.2C250.281 158.416 252.317 159.798 254.294 161.31C250.477 164.911 246.862 168.759 243.306 172.477Z" fill="#D9D9D9"/>
<path d="M325.758 363.713C321.549 366.278 317.304 368.75 313.153 371.185C308.682 364.804 304.116 358.458 299.551 352.112C303.477 349.654 307.461 347.066 311.388 344.607C316.425 350.774 321.215 357.143 325.758 363.713Z" fill="#D9D9D9"/>
<path d="M244.675 155.588C245.846 156.113 246.922 156.675 248.035 157.33C244.499 159.963 240.869 162.632 237.333 165.265C216.365 180.863 195.612 197.026 172.127 207.978C172.017 206.835 171.872 205.597 171.857 204.418C192.202 194.011 210.73 180.523 229.129 166.976C234.279 163.192 239.524 159.372 244.675 155.588Z" fill="#0D0E0F"/>
<path d="M177.195 179.777C188.838 174.608 200.884 169.932 211.708 163.458C218.57 159.348 225.599 155.39 232.77 151.809C236.882 152.404 240.925 153.671 244.639 155.493C239.394 159.313 234.243 163.097 228.998 166.917C210.564 180.37 191.977 193.988 171.726 204.359C171.171 196.062 172.457 187.497 175.815 180.408C176.287 180.229 176.759 180.05 177.195 179.777Z" fill="#D9D9D9"/>
<path d="M311.292 344.644C307.402 347.197 303.381 349.691 299.455 352.149C298.471 350.691 297.427 349.364 296.348 347.942C301.229 344.583 306.073 341.131 310.918 337.678C312.068 339.288 313.16 341.028 314.31 342.638C313.379 343.315 312.318 343.932 311.292 344.644Z" fill="black"/>
<path d="M290.384 290.646C291.871 294.282 293.228 297.86 294.621 301.532C296.227 305.77 297.834 310.007 299.405 314.15C300.441 316.88 301.512 319.705 301.343 322.677C301.175 325.648 299.506 328.651 296.733 329.594C294.019 330.408 291.251 329.088 288.802 327.755C279.255 322.222 271.023 314.466 264.973 305.344C263.427 301.838 261.823 298.461 260.183 294.991C267.486 304.283 276.579 312.036 286.872 317.825C287.268 307.767 282.988 298.189 278.698 289.154C277.166 285.966 275.668 282.872 274.136 279.684C277.319 277.83 280.467 275.883 283.615 273.935C285.911 279.419 288.242 284.997 290.384 290.646Z" fill="black"/>
<path d="M243.306 172.477C244.196 173.97 244.992 175.5 245.882 176.993C245.27 177.656 244.693 178.413 244.081 179.076C243.155 177.489 242.359 175.959 241.528 174.336C242.176 173.767 242.693 173.14 243.306 172.477Z" fill="black"/>
<path d="M241.528 174.337C242.36 175.96 243.191 177.583 244.081 179.077C239.714 184.071 234.754 188.645 229.616 192.747C228.56 191.101 227.635 189.514 226.673 187.832L226.602 187.644C232.071 183.846 236.865 179.121 241.528 174.337Z" fill="#0D0E0F"/>
<path d="M176.553 178.943C176.482 178.754 176.352 178.696 176.28 178.508C195.237 170.134 213.73 160.537 231.439 149.729C231.819 150.446 232.294 151.128 232.768 151.81C225.597 155.391 218.533 159.254 211.707 163.458C200.918 170.026 188.836 174.608 177.193 179.777C176.992 179.53 176.755 179.189 176.553 178.943Z" fill="#0D0E0F"/>
<path d="M208.145 197.335C203.344 199.478 198.413 201.564 193.505 203.425C192.466 203.819 191.523 204.177 190.484 204.57C184.538 206.825 178.52 208.892 172.489 210.64C172.357 209.721 172.224 208.802 172.092 207.883C195.612 197.025 216.366 180.863 237.297 165.171L237.902 165.911C238.879 168.771 240.139 171.525 241.529 174.336C236.865 179.12 232.072 183.846 226.508 187.679L226.413 187.715C225.388 188.427 224.327 189.044 223.301 189.756C219.717 191.977 215.895 193.857 212.038 195.643C211.849 195.714 211.661 195.786 211.472 195.858C210.375 196.381 209.278 196.905 208.145 197.335Z" fill="#D9D9D9"/>
<path d="M228.603 144.236C229.447 146.178 230.386 148.083 231.442 149.729C213.696 160.443 195.204 170.041 176.283 178.508C175.844 177.921 175.405 177.333 174.966 176.746C181.969 172.152 189.008 167.652 195.952 163.187C202.801 158.759 209.651 154.331 216.774 150.337C220.677 148.103 224.651 146.058 228.603 144.236Z" fill="#ECD648"/>
<path d="M227.294 141.069C227.687 142.105 228.21 143.199 228.638 144.329C224.592 146.187 220.712 148.196 216.868 150.301C209.745 154.294 202.895 158.722 196.046 163.151C189.007 167.651 182.005 172.245 175.061 176.709C174.658 176.215 174.313 175.592 173.91 175.099C180.806 170.222 187.701 165.346 194.597 160.469C200.031 156.578 205.595 152.744 211.302 149.288C216.383 146.176 221.702 143.405 227.294 141.069Z" fill="#0D0E0F"/>
<path d="M226.057 138.094C226.414 139.035 226.807 140.071 227.258 140.977C221.666 143.313 216.347 146.084 211.171 149.231C205.464 152.688 199.9 156.521 194.467 160.412C187.571 165.289 180.675 170.165 173.78 175.042C171.859 172.539 169.903 169.942 167.829 167.606C173.566 162.522 180.572 158.789 187.495 155.409C200.115 149.116 212.95 143.387 226.057 138.094Z" fill="#ECD648"/>
<path d="M225.069 135.775C225.355 136.528 225.676 137.375 226.092 138.187C212.949 143.386 200.15 149.209 187.495 155.408C180.607 158.882 173.566 162.521 167.828 167.605C167.295 167.053 166.821 166.371 166.288 165.82C184.678 153.676 204.719 144.461 225.069 135.775Z" fill="#0D0E0F"/>
<path d="M313.093 371.316C311.69 372.171 310.192 373.062 308.754 373.823C304.565 367.334 300.342 360.751 296.059 354.297C297.179 353.55 298.335 352.896 299.455 352.148C304.115 358.458 308.586 364.84 313.093 371.316Z" fill="black"/>
<path d="M283.486 273.877C280.338 275.824 277.19 277.772 274.006 279.625C259.748 250.569 243.958 222.309 226.67 194.94C227.601 194.264 228.626 193.552 229.522 192.782C234.552 200.352 241.232 206.865 247.287 213.723C262.847 231.408 274.057 252.143 283.486 273.877Z" fill="#0D0E0F"/>
<path d="M278.662 289.06C282.988 298.189 287.232 307.673 286.836 317.731C276.579 312.036 267.449 304.19 260.241 294.861C259.397 292.919 258.423 290.919 257.578 288.978C263.109 285.911 268.64 282.845 274.099 279.59C275.632 282.778 277.129 285.872 278.662 289.06Z" fill="#6C6B6C"/>
<path d="M296.154 354.262C300.343 360.751 304.566 367.334 308.849 373.788C305.948 375.534 303.012 377.186 300.076 378.838C295.298 372.787 291.205 366.262 287.83 359.357C290.542 357.682 293.348 355.972 296.154 354.262Z" fill="#D9D9D9"/>
<path d="M274.1 279.591C268.64 282.846 263.145 286.006 257.579 288.979C244.018 259.766 230.02 230.826 215.457 202.101C219.36 199.867 223.097 197.48 226.727 194.811C244.051 222.274 259.842 250.534 274.1 279.591Z" fill="#D9D9D9"/>
<path d="M296.154 354.261C293.348 355.971 290.636 357.645 287.83 359.356C287.165 357.885 286.535 356.509 285.869 355.038C289.417 352.723 292.966 350.408 296.384 348.035C297.463 349.456 298.412 350.82 299.491 352.241C298.336 352.895 297.18 353.549 296.154 354.261Z" fill="black"/>
<path d="M226.673 187.831C227.54 189.548 228.501 191.23 229.616 192.746C228.685 193.422 227.695 194.228 226.764 194.904C225.672 193.164 224.58 191.424 223.489 189.684C224.55 189.066 225.576 188.354 226.601 187.642L226.695 187.607L226.673 187.831Z" fill="#0D0E0F"/>
<path d="M300.077 378.837C299.016 379.455 297.954 380.073 296.893 380.691C293.858 376.672 291.07 372.452 288.152 368.174C286.729 366.129 285.387 363.73 283.928 361.59C285.273 360.865 286.487 360.082 287.796 359.262C291.111 366.298 295.205 372.823 300.077 378.837Z" fill="black"/>
<path d="M223.395 189.72C224.487 191.46 225.578 193.2 226.67 194.94C223.04 197.609 219.302 199.996 215.399 202.23C214.259 200.077 213.178 197.795 212.038 195.643C215.953 193.727 219.775 191.847 223.395 189.72Z" fill="#0D0E0F"/>
<path d="M288.152 368.174C291.034 372.358 293.822 376.578 296.893 380.691C293.615 382.58 290.336 384.469 287.023 386.264C282.528 380.107 278.187 373.783 273.846 367.46C277.218 365.535 280.591 363.61 283.963 361.685C285.387 363.73 286.728 366.129 288.152 368.174Z" fill="#D9D9D9"/>
<path d="M285.868 355.038C286.44 356.545 287.07 357.921 287.83 359.356C286.521 360.175 285.271 360.865 283.962 361.684C283.322 360.85 282.682 360.016 281.947 359.217C281.876 359.029 281.746 358.971 281.746 358.971L281.2 358.101C282.72 356.986 284.277 355.965 285.868 355.038Z" fill="black"/>
<path d="M264.972 305.344C269.073 314.451 273.139 323.464 277.146 332.606C278.798 336.395 280.359 341.081 277.805 344.311C275.828 346.784 271.943 347.072 268.987 345.824C266.03 344.576 263.791 342.086 261.717 339.75C254.878 331.681 248.971 322.936 243.936 313.644C242.771 310.855 241.664 307.937 240.498 305.148C246.714 314.422 254.734 322.474 263.988 328.657C262.678 316.661 257.567 305.46 252.527 294.447C252.147 293.73 251.897 293.071 251.517 292.353C253.486 291.283 255.456 290.214 257.425 289.144C258.269 291.085 259.243 293.085 260.088 295.027C261.786 298.367 263.426 301.838 264.972 305.344Z" fill="black"/>
<path d="M215.457 202.1C230.021 230.825 244.018 259.765 257.579 288.978C255.61 290.048 253.64 291.118 251.671 292.188C238.299 262.903 224.796 233.56 211.329 204.311C212.71 203.68 214.054 202.955 215.457 202.1Z" fill="#0D0E0F"/>
<path d="M281.912 359.123C282.647 359.922 283.287 360.756 283.928 361.59C280.591 363.609 277.218 365.534 273.81 367.365C273.098 366.343 272.387 365.32 271.639 364.204L271.366 363.769C274.645 361.879 277.923 359.99 281.129 357.912L281.675 358.782C281.711 358.877 281.747 358.971 281.912 359.123Z" fill="black"/>
<path d="M281.711 358.877C281.711 358.877 281.841 358.935 281.912 359.123C281.747 358.971 281.711 358.877 281.711 358.877Z" fill="#6C6B6C"/>
<path d="M252.587 294.318C257.627 305.331 262.738 316.531 264.048 328.528C254.794 322.344 246.68 314.328 240.558 305.018C239.808 303.041 238.929 301.005 238.179 299.028C242.755 296.862 247.166 294.543 251.671 292.188C251.957 292.941 252.337 293.659 252.587 294.318Z" fill="#6C6B6C"/>
<path d="M211.329 204.312C224.701 233.596 238.204 262.939 251.67 292.188C247.165 294.543 242.719 296.767 238.178 299.028C235.168 291.661 232.253 284.258 229.244 276.891C221.261 256.979 209.712 229.372 197.538 210.08C202.234 208.514 206.882 206.536 211.329 204.312Z" fill="#D9D9D9"/>
<path d="M286.928 386.301C286.056 386.847 285.148 387.299 284.181 387.881C279.25 381.997 274.626 375.781 270.285 369.457C271.44 368.804 272.596 368.15 273.751 367.496C278.057 373.726 282.493 380.013 286.928 386.301Z" fill="black"/>
<path d="M212.096 195.513C213.236 197.666 214.317 199.948 215.457 202.101C214.113 202.826 212.769 203.551 211.33 204.312C210.248 202.03 209.226 199.617 208.144 197.335C209.241 196.811 210.374 196.382 211.471 195.858C211.66 195.787 211.943 195.679 212.096 195.513Z" fill="black"/>
<path d="M188.399 137.296C189.57 137.821 190.317 138.938 190.557 140.139C190.689 141.058 190.633 142.049 190.021 142.712C189.444 143.469 188.5 143.827 187.661 143.607C187.176 143.467 186.845 143.162 186.477 142.763C185.707 141.871 185.337 140.611 185.511 139.36C186.11 138.379 187.264 136.865 188.399 137.296Z" fill="black"/>
<path d="M184.348 125.476C184.67 126.324 184.672 127.184 184.19 127.906C183.708 128.627 182.8 129.079 181.96 128.859C181.027 128.675 180.315 127.652 180.052 126.675C179.884 125.661 180.035 124.635 180.315 123.667L180.28 123.573C181.767 123.224 183.683 124.006 184.348 125.476Z" fill="black"/>
<path d="M199.847 126.094C200.168 126.941 199.754 128.427 199.272 129.149C198.79 129.87 196.673 130.831 195.833 130.61C194.9 130.426 193.424 128.976 193.162 127.999C192.993 126.985 192.94 126.375 193.737 124.944L194.947 124.117L197.008 124.019C198.495 123.67 199.181 124.623 199.847 126.094Z" fill="black"/>
<path d="M270.343 369.327C268.185 370.469 266.027 371.61 263.963 372.716L263.892 372.528C263.297 371.245 262.739 370.057 262.144 368.775C265.305 367.145 268.372 365.552 271.367 363.77L271.639 364.205C272.351 365.227 273.063 366.25 273.81 367.366C272.654 368.02 271.499 368.674 270.343 369.327Z" fill="black"/>
<path d="M208.144 197.335C209.225 199.617 210.248 202.029 211.329 204.312C206.883 206.536 202.235 208.514 197.444 210.116C196.317 208.281 195.131 206.577 193.945 204.873L193.409 203.461C198.412 201.564 203.343 199.478 208.144 197.335Z" fill="black"/>
<path d="M270.343 369.326C274.685 375.65 279.309 381.866 284.24 387.75C279.711 390.329 275.148 392.814 270.489 395.334C266.822 389.078 262.358 381.294 258.797 375.32C260.519 374.452 262.147 373.619 263.869 372.751C266.027 371.609 268.185 370.468 270.343 369.326Z" fill="#D9D9D9"/>
<path d="M243.997 313.515C247.863 323.141 251.766 332.862 255.726 342.453C257.463 346.748 259.05 352.07 256.225 355.726C256.072 355.892 255.919 356.057 255.672 356.259C253.677 352.707 251.647 349.062 249.652 345.51C247.051 336.373 242.054 328.036 238.415 319.293C236.048 313.621 234.118 307.676 232.411 301.753C234.322 300.813 236.269 299.967 238.274 298.992C239.024 300.969 239.903 303.005 240.653 304.982C241.76 307.901 242.831 310.726 243.997 313.515Z" fill="black"/>
<path d="M229.245 276.891C232.255 284.258 235.17 291.661 238.179 299.028C236.269 299.968 234.358 300.908 232.317 301.789C230.624 296.185 229.119 290.509 227.426 284.905C222.884 270.365 216.76 256.209 209.269 243.003C203.428 232.725 196.702 222.675 192.713 211.587C194.259 211.109 195.899 210.594 197.445 210.116C209.655 229.502 221.168 257.015 229.245 276.891Z" fill="black"/>
<path d="M174.376 136.474C175.557 136.456 176.611 137.242 176.945 138.407C177.386 139.855 176.386 141.204 175.373 142.234C174.725 142.803 174.077 143.372 173.215 143.376C172.092 143.263 171.475 142.205 171.082 141.169C170.833 140.51 170.771 139.779 170.71 139.048C171.463 137.901 173.289 136.455 174.376 136.474Z" fill="black"/>
<path d="M258.797 375.321C257.794 375.809 256.697 376.332 255.601 376.856C253.501 377.868 251.496 378.843 249.361 379.761C248.896 378.537 248.338 377.348 247.874 376.124C250.739 374.284 253.841 372.785 256.943 371.285C258.665 370.417 260.328 369.678 262.014 368.716C262.609 369.998 263.167 371.187 263.761 372.469L263.833 372.657C262.241 373.584 260.519 374.452 258.797 375.321Z" fill="black"/>
<path d="M255.707 356.354C257.916 360.47 260.124 364.587 262.144 368.775C260.517 369.607 258.795 370.476 257.073 371.344C253.971 372.844 250.833 374.249 248.004 376.183C246.089 371.417 244.079 366.687 242.163 361.92C240.784 358.567 239.404 355.213 237.988 351.765C240.192 354.16 242.585 356.484 245.636 357.696C248.852 359.061 253.186 358.817 255.707 356.354Z" fill="#D9D9D9"/>
<path d="M270.489 395.334C269.864 395.679 269.144 396.059 268.519 396.404C264.048 390.022 259.765 383.569 255.73 376.914C256.733 376.426 257.83 375.903 258.927 375.379C262.357 381.294 266.821 389.078 270.489 395.334Z" fill="black"/>
<path d="M230.028 302.873C234.052 318.04 241.757 331.812 249.557 345.547C249.592 345.641 249.628 345.735 249.664 345.829C250.225 347.878 250.61 350.317 249.174 351.939C247.796 353.43 245.434 353.465 243.472 353.132C241.511 352.798 239.666 352.205 237.881 351.483C223.833 317.285 209.407 283.23 191.007 251.221C184.656 240.167 177.833 229.292 173.995 217.178C173.674 216.33 173.482 215.541 173.255 214.658C178.11 214.648 183.092 213.836 187.872 212.777C189.454 212.392 191.036 212.008 192.676 211.494C196.665 222.582 203.391 232.632 209.232 242.91C216.759 256.21 222.847 270.272 227.389 284.811C229.176 290.38 230.681 296.056 232.28 301.696C231.596 302.171 230.877 302.551 230.028 302.873Z" fill="#D9D9D9"/>
<path d="M249.651 345.509C251.646 349.061 253.676 352.707 255.671 356.258C253.186 358.816 248.946 359.024 245.599 357.6C242.643 356.352 240.156 354.064 237.952 351.669C237.916 351.575 237.916 351.575 237.881 351.481C239.666 352.204 241.605 352.761 243.472 353.13C245.434 353.463 247.832 353.523 249.174 351.937C250.61 350.315 250.225 347.877 249.664 345.828C249.664 345.828 249.628 345.734 249.651 345.509Z" fill="black"/>
<path d="M238.32 319.329C241.995 328.166 246.956 336.409 249.557 345.546C241.758 331.811 234.052 318.039 230.028 302.872C230.747 302.492 231.502 302.205 232.316 301.789C234.058 307.806 235.953 313.657 238.32 319.329Z" fill="#6C6B6C"/>
<path d="M194.076 204.931C195.226 206.542 196.353 208.376 197.575 210.174C196.029 210.653 194.389 211.167 192.843 211.645C192.164 209.856 191.58 208.032 191.149 206.041L190.614 204.629C191.652 204.235 192.596 203.877 193.634 203.483L194.076 204.931Z" fill="black"/>
<path d="M255.696 376.82C259.731 383.475 264.049 390.022 268.485 396.31C265.171 398.105 261.951 399.864 258.638 401.66L257.806 400.036C255.011 393.234 252.251 386.527 249.456 379.725C251.591 378.807 253.596 377.832 255.696 376.82Z" fill="#D9D9D9"/>
<path d="M190.483 204.57L191.019 205.982C191.508 207.843 192.092 209.667 192.712 211.586C191.166 212.065 189.49 212.485 187.909 212.869C183.222 213.893 178.24 214.705 173.386 214.715C173.016 213.455 172.705 212.065 172.488 210.64C178.613 208.855 184.537 206.825 190.483 204.57Z" fill="black"/>
</svg>
