<svg width="491" height="560" viewBox="0 0 491 560" fill="none" xmlns="http://www.w3.org/2000/svg">
<path d="M26.7412 365.547L361.515 76.0011L463.392 193.792L128.619 483.338L26.7412 365.547Z" fill="white"/>
<path d="M109.122 430.392L73.9687 389.45L84.0456 380.798L105.744 406.07L98.0898 368.74L109.079 359.304L144.233 400.246L134.156 408.898L112.457 383.627L120.072 420.991L109.122 430.392Z" fill="black"/>
<path d="M154.154 382.423C147.238 381.378 141.179 377.827 135.979 371.77C130.779 365.714 128.185 359.188 128.198 352.193C128.211 345.198 131.418 338.952 137.818 333.457C147.075 325.509 156.627 324.085 166.473 329.184L160.602 340.567C154.519 337.978 149.4 338.491 145.244 342.105C142.15 344.762 140.783 347.934 141.146 351.62C141.535 355.284 143.33 358.98 146.532 362.709C149.734 366.439 153.116 368.772 156.679 369.711C160.268 370.627 163.609 369.756 166.704 367.099C170.883 363.511 172.153 358.515 170.514 352.112L182.654 348.029C186.205 358.534 183.353 367.76 174.096 375.708C167.695 381.204 161.048 383.442 154.154 382.423Z" fill="black"/>
<path d="M169.553 322.336L162.161 313.727L194.177 286.238L201.569 294.847L190.619 304.248L218.381 336.582L208.304 345.234L180.542 312.901L169.553 322.336Z" fill="black"/>
<path d="M235.121 312.974C227.962 312.182 221.76 308.731 216.515 302.622C211.246 296.485 208.773 289.833 209.096 282.664C209.423 275.445 212.773 269.1 219.147 263.627C225.548 258.131 232.327 255.779 239.486 256.571C246.648 257.314 252.863 260.753 258.131 266.889C263.377 272.999 265.837 279.663 265.51 286.881C265.187 294.05 261.825 300.383 255.425 305.878C249.051 311.351 242.283 313.716 235.121 312.974ZM222.214 282.29C222.43 286.286 224.047 290.043 227.068 293.561C230.088 297.078 233.557 299.246 237.475 300.063C241.393 300.88 244.912 299.949 248.033 297.269C251.18 294.567 252.633 291.229 252.392 287.255C252.177 283.259 250.559 279.502 247.539 275.984C244.518 272.466 241.049 270.299 237.131 269.482C233.24 268.642 229.72 269.573 226.573 272.275C223.452 274.955 221.999 278.293 222.214 282.29Z" fill="black"/>
<path d="M299.746 295.53L250.354 238.004L260.431 229.352L264.041 233.557C263.681 231.8 263.957 229.633 264.87 227.057C265.809 224.459 267.442 222.16 269.77 220.162C275.774 215.007 282.035 212.962 288.555 214.026C295.052 215.064 301.07 218.81 306.611 225.264C312.152 231.717 314.945 238.233 314.988 244.812C315.031 251.391 312.051 257.258 306.047 262.413C304.037 264.139 301.743 265.374 299.165 266.117C296.591 266.811 294.33 266.961 292.382 266.565L309.823 286.878L299.746 295.53ZM271.811 239.154C271.927 242.822 273.689 246.639 277.095 250.607C280.478 254.548 283.986 256.866 287.616 257.563C291.273 258.236 294.477 257.392 297.227 255.031C300.004 252.646 301.325 249.582 301.19 245.839C301.081 242.073 299.357 238.246 296.019 234.358C292.658 230.444 289.136 228.161 285.452 227.51C281.773 226.81 278.544 227.652 275.767 230.037C273.017 232.398 271.698 235.438 271.811 239.154Z" fill="black"/>
<path d="M333.511 237.73L298.358 196.788L308.435 188.135L330.133 213.407L322.479 176.077L333.468 166.641L368.622 207.584L358.545 216.236L336.846 190.964L344.461 228.328L333.511 237.73Z" fill="black"/>
<path d="M375.366 201.793L370.442 174.386C367.298 175.754 364.169 176.097 361.057 175.415C357.948 174.684 355.213 172.943 352.851 170.192C349.922 166.781 348.809 162.889 349.512 158.517C350.242 154.123 352.551 150.257 356.439 146.919L372.07 133.498L407.223 174.44L397.146 183.092L381.954 165.398L380.803 166.386L386.078 192.596L375.366 201.793ZM363.275 156.005C361.106 157.867 360.885 159.803 362.611 161.813C364.314 163.797 366.25 163.857 368.419 161.995L374.528 156.749L369.385 150.759L363.275 156.005Z" fill="black"/>
</svg>
