<svg width="325" height="384" viewBox="0 0 325 384" fill="none" xmlns="http://www.w3.org/2000/svg">
<path d="M0.115234 46.2343L266.801 0.573609L324.554 337.888L57.8687 383.549L0.115234 46.2343Z" fill="white"/>
<path d="M97.3457 289.718C74.7087 272.621 60.6636 248.45 55.2102 217.205C49.7333 185.823 54.7603 158.324 70.2913 134.706C85.934 110.928 110.055 96.1952 142.653 90.5057C175.387 84.7927 203.072 90.4842 225.709 107.58C248.458 124.518 262.571 148.677 268.048 180.058C273.501 211.304 268.406 238.815 252.764 262.592C237.233 286.211 213.1 300.876 180.366 306.589C147.768 312.279 120.094 306.655 97.3457 289.718ZM115.451 159.858C108.131 173.819 106.041 189.795 109.18 207.785C112.32 225.775 119.699 240.098 131.315 250.755C142.932 261.411 156.721 265.347 172.682 262.561C188.778 259.752 200.419 251.378 207.604 237.44C214.924 223.479 217.014 207.503 213.874 189.513C210.735 171.523 203.356 157.2 191.74 146.543C180.258 135.863 166.469 131.928 150.373 134.737C134.412 137.523 122.771 145.896 115.451 159.858Z" fill="black"/>
</svg>
