<svg width="808" height="404" viewBox="0 0 808 404" fill="none" xmlns="http://www.w3.org/2000/svg">
<path d="M50.7471 0.600708L807.377 248.75L756.715 403.221L0.0857521 155.071L50.7471 0.600708Z" fill="white"/>
<path d="M128.203 102.042L142.645 57.7742L163.701 64.6435L151.747 101.284C148.646 110.79 151.185 116.877 159.364 119.545C166.273 121.799 173.946 118.616 182.384 109.995L193.959 74.5147L215.015 81.384L187.105 166.935L166.049 160.066L174.189 135.113C169.074 137.297 164.412 138.466 160.203 138.622C156.05 138.796 151.32 138.017 146.015 136.286C138.112 133.708 132.487 129.396 129.139 123.351C125.865 117.269 125.553 110.166 128.203 102.042Z" fill="black"/>
<path d="M219.214 147.234C219.307 141.7 220.219 136.28 221.95 130.975C223.681 125.669 226.14 120.754 229.329 116.23C232.59 111.668 236.471 107.737 240.972 104.436C245.547 101.098 251.002 98.9947 257.339 98.1269C263.749 97.2219 270.463 97.9143 277.482 100.204C284.28 102.422 289.899 105.722 294.339 110.106C298.797 114.434 301.852 119.222 303.503 124.469C305.227 129.679 306.052 134.931 305.975 140.226C305.954 145.539 305.15 150.627 303.563 155.49L300.724 164.195L241.783 144.966C240.31 150.233 240.71 155.378 242.985 160.4C245.333 165.386 249.575 168.879 255.709 170.88C264.441 173.729 272.782 171.589 280.734 164.461L295.699 176.222C283.033 190.495 267.36 194.584 248.68 188.49C241.661 186.201 235.821 182.828 231.16 178.372C226.554 173.935 223.388 169.019 221.663 163.625C219.992 158.25 219.176 152.786 219.214 147.234ZM247.717 128.466L284.606 140.501C285.782 128.838 281.442 121.43 271.586 118.276C266.613 116.653 261.954 116.876 257.61 118.944C253.267 121.013 249.969 124.187 247.717 128.466Z" fill="black"/>
<path d="M296.666 241.017L335.88 120.815L356.936 127.684L354.069 136.471C356.262 134.435 359.589 132.952 364.051 132.023C368.567 131.112 373.257 131.449 378.12 133.036C390.666 137.129 399.002 144.282 403.13 154.495C407.276 164.653 407.15 176.474 402.751 189.959C398.351 203.443 391.482 213.065 382.144 218.824C372.805 224.582 361.863 225.415 349.318 221.322C345.118 219.952 341.372 217.752 338.08 214.721C334.862 211.653 332.691 208.56 331.568 205.443L317.722 247.886L296.666 241.017ZM352.82 152.39C347.694 155.732 343.779 161.548 341.075 169.838C338.388 178.072 338.12 185.078 340.271 190.855C342.478 196.65 346.455 200.485 352.202 202.36C358.005 204.253 363.515 203.482 368.733 200.048C374.005 196.632 377.967 190.862 380.617 182.738C383.285 174.558 383.489 167.562 381.227 161.749C379.039 155.899 375.043 152.027 369.24 150.134C363.493 148.259 358.019 149.011 352.82 152.39Z" fill="black"/>
<path d="M407.448 238.819L435.358 153.268L456.414 160.138L446.272 191.224L474.789 200.528L484.931 169.441L505.987 176.31L478.077 261.861L457.021 254.992L468.92 218.516L440.403 209.213L428.504 245.688L407.448 238.819Z" fill="black"/>
<path d="M512.953 260.948C507.883 250.061 507.431 238.234 511.596 225.468C515.779 212.646 523.119 203.362 533.615 197.614C544.186 191.829 556.13 191.109 569.449 195.455C582.823 199.818 592.045 207.443 597.115 218.33C602.258 229.18 602.739 241.016 598.556 253.838C594.391 266.604 587.023 275.879 576.453 281.664C565.956 287.412 554.021 288.104 540.647 283.741C527.328 279.396 518.097 271.798 512.953 260.948ZM545.507 215.986C539.998 219.753 536.045 225.312 533.647 232.662C531.249 240.012 531.164 246.833 533.392 253.124C535.619 259.415 539.994 263.625 546.515 265.752C553.092 267.898 559.107 267.078 564.561 263.293C570.07 259.526 574.024 253.967 576.422 246.617C578.82 239.266 578.905 232.446 576.677 226.154C574.504 219.881 570.13 215.672 563.553 213.526C557.032 211.399 551.017 212.219 545.507 215.986Z" fill="black"/>
<path d="M603.916 302.914L631.826 217.364L653.877 224.557L657.211 280.127L692.59 237.187L714.641 244.381L686.731 329.932L665.675 323.062L679.63 280.287L655.202 311.024L640.529 306.237L638.927 267.008L624.972 309.784L603.916 302.914Z" fill="black"/>
</svg>
